<?xml version="1.0" standalone="no"?>
<!DOCTYPE svg PUBLIC "-//W3C//DTD SVG 1.1//EN" "http://www.w3.org/Graphics/SVG/1.1/DTD/svg11.dtd" >
<svg>
<metadata>
Created by FontForge 20090622 at Thu Jul  4 13:17:04 2019
 By deploy user
Copyright &#226;&#147;&#146; 1992-2017 AsiaSoft Inc. Seoul Korea All Rights Reserved. http://www.asiasoft.co.kr
</metadata>
<defs>
<font id="KoreanTITGD5-R" horiz-adv-x="900" >
  <font-face 
    font-family="KoreanTITGD5R"
    font-weight="400"
    font-stretch="normal"
    units-per-em="1000"
    panose-1="2 2 6 0 0 0 0 0 0 0"
    ascent="800"
    descent="-200"
    x-height="533"
    cap-height="673"
    bbox="-182 -263 993 834"
    underline-thickness="20"
    underline-position="-143"
    unicode-range="U+0020-U+FFE6"
  />
<missing-glyph 
 />
    <glyph glyph-name=".notdef" 
 />
    <glyph glyph-name="glyph1" horiz-adv-x="0" 
 />
    <glyph glyph-name="glyph2" horiz-adv-x="333" 
 />
    <glyph glyph-name="space" unicode=" " horiz-adv-x="300" 
 />
    <glyph glyph-name="exclam" unicode="!" horiz-adv-x="319" 
d="M251 730l-19 -612h-142l-19 612h180zM160 61q100 0 100 -100q0 -101 -100 -101q-101 0 -101 101q0 100 101 100z" />
    <glyph glyph-name="quotedbl" unicode="&#x22;" horiz-adv-x="430" 
d="M175 510h-96l-32 290h154zM347 510h-96l-23 290h154z" />
    <glyph glyph-name="numbersign" unicode="#" horiz-adv-x="705" 
d="M639 267l-23 -117h-110l-42 -237h-147l42 237h-96l-42 -237h-147l42 237h-94l23 117h92l29 162h-100l23 117h98l31 175h147l-31 -175h96l31 175h147l-31 -175h106l-23 -117h-104l-29 -162h112zM313 429l-29 -162h96l29 162h-96z" />
    <glyph glyph-name="dollar" unicode="$" horiz-adv-x="635" 
d="M268 -176v116q-112 25 -227 112l74 120q87 -74 153 -98v205q-11 4 -31 10q-80 25 -129.5 76.5t-50.5 126.5q-2 93 53.5 152t157.5 65v91h121v-101q100 -21 183 -86l-66 -120q-64 41 -117 63v-171q2 0 6.5 -1.5t6.5 -2.5q215 -73 187 -246q-14 -84 -66.5 -139t-133.5 -65
v-107h-121zM440 145q7 46 -51 83v-158q43 19 51 75zM213 508q0 -42 55 -75v139q-55 -11 -55 -64z" />
    <glyph glyph-name="percent" unicode="%" horiz-adv-x="827" 
d="M173 -93l334 800h149l-334 -800h-149zM193 585q-37 0 -37 -105t37 -105q39 0 39 105t-39 105zM194 719q83 0 123 -62t40 -176t-40 -176t-123 -62q-82 0 -123 62.5t-41 175.5t41 175.5t123 62.5zM633 237q-38 0 -38 -107q0 -103 38 -103q39 0 39 103q0 107 -39 107z
M634 370q82 0 122.5 -62.5t40.5 -176.5q0 -237 -163 -237q-82 0 -123 62t-41 175t41 176t123 63z" />
    <glyph glyph-name="ampersand" unicode="&#x26;" horiz-adv-x="764" 
d="M394 356l124 -155q13 27 22.5 78t9.5 90h144q0 -78 -22.5 -151.5t-53.5 -124.5l145 -181h-189l-50 61q-81 -83 -209 -83q-122 0 -198.5 59t-76.5 179q0 147 144 247q-76 95 -76 171q0 80 56 130t143 50q92 0 147 -48.5t55 -118.5q0 -108 -115 -203zM191 120
q0 -47 33.5 -72.5t80.5 -25.5q81 0 129 60l-156 191q-87 -71 -87 -153zM256 556q0 -49 45 -98q59 48 59 100q0 55 -53 55q-26 0 -38.5 -17.5t-12.5 -39.5z" />
    <glyph glyph-name="quotesingle" unicode="'" horiz-adv-x="270" 
d="M188 510h-108l-26 290h162z" />
    <glyph glyph-name="parenleft" unicode="(" horiz-adv-x="360" 
d="M72 302q0 109 34.5 242.5t105.5 225.5h130q-42 -63 -68.5 -126.5t-37.5 -126.5t-14 -107.5t-3 -107.5t3 -107.5t14 -108t37.5 -127t68.5 -126.5h-130q-71 93 -105.5 224.5t-34.5 244.5z" />
    <glyph glyph-name="parenright" unicode=")" horiz-adv-x="360" 
d="M288 302q0 -113 -34.5 -244.5t-105.5 -224.5h-130q42 63 68.5 126.5t37.5 127t14 108t3 107.5t-3 107.5t-14 107.5t-37.5 126.5t-68.5 126.5h130q71 -92 105.5 -225.5t34.5 -242.5z" />
    <glyph glyph-name="asterisk" unicode="*" horiz-adv-x="520" 
d="M365 540l105 -128l-110 -85l-97 136l-102 -136l-111 89l109 122l-141 44l44 135l135 -59l-9 142h149l-11 -143l128 57l48 -129z" />
    <glyph glyph-name="plus" unicode="+" horiz-adv-x="520" 
d="M188 546h143v-167h151v-124h-151v-173h-143v173h-151v124h151v167z" />
    <glyph glyph-name="comma" unicode="," horiz-adv-x="270" 
d="M222 21q9 -60 -22.5 -126.5t-81.5 -105.5l-73 30q20 19 37 50.5t17 50.5q-29 3 -50.5 27t-22.5 60q-1 37 23 65.5t62 32.5q46 5 75.5 -20t35.5 -64z" />
    <glyph glyph-name="hyphen" unicode="-" horiz-adv-x="520" 
d="M65 253v128h389v-128h-389z" />
    <glyph glyph-name="period" unicode="." horiz-adv-x="270" 
d="M135 75q40 0 66.5 -26t26.5 -73q0 -50 -26 -74.5t-67 -24.5q-42 0 -68 24.5t-26 74.5q0 46 26.5 72.5t67.5 26.5z" />
    <glyph glyph-name="slash" unicode="/" horiz-adv-x="520" 
d="M187 -92h-162l313 818h157z" />
    <glyph glyph-name="zero" unicode="0" horiz-adv-x="582" 
d="M205 314q0 -142 17 -206t67 -64q51 0 69 64.5t18 205.5t-18 205.5t-69 64.5q-50 0 -67 -64t-17 -206zM547 314q0 -214 -63 -313t-195 -99t-193.5 99t-61.5 313q0 215 61.5 314t193.5 99t195 -99t63 -314z" />
    <glyph glyph-name="one" unicode="1" horiz-adv-x="582" 
d="M504 58v-139h-418v139h131v435q-21 -18 -57.5 -33.5t-64.5 -21.5l-63 120q62 21 125.5 65t89.5 93h150v-658h107z" />
    <glyph glyph-name="two" unicode="2" horiz-adv-x="582" 
d="M53 -81v52q0 110 168 291q65 68 100 122t35 106q0 47 -18 69.5t-56 21.5q-36 -1 -69.5 -39.5t-49.5 -94.5l-146 69q26 90 97 150.5t174 60.5q118 0 182 -61t64 -177q0 -38 -10 -74t-27.5 -65.5t-40 -59.5t-48 -56.5l-51.5 -55.5q-63 -68 -83 -120h278v-139h-499z" />
    <glyph glyph-name="three" unicode="3" horiz-adv-x="582" 
d="M522 546q3 -54 -19.5 -108t-56.5 -81q45 -27 72.5 -76t27.5 -111q-1 -141 -87.5 -208.5t-222.5 -57.5q-41 2 -108 22t-105 46l39 144q35 -23 88.5 -40.5t82.5 -19.5q134 -7 134 111q0 51 -39 78t-99 26h-87v146h89q54 0 87.5 24.5t33.5 74.5q0 36 -26 54.5t-71 11.5
q-79 -12 -151 -84l-73 129q96 89 244 100q99 7 170 -39t77 -142z" />
    <glyph glyph-name="four" unicode="4" horiz-adv-x="582" 
d="M22 164l306 552h171v-521h75v-145h-75v-132h-166v134h-311v112zM196 187h137v271z" />
    <glyph glyph-name="five" unicode="5" horiz-adv-x="582" 
d="M57 -45l27 145q59 -43 154 -48q71 -4 106 44t26 117q-8 58 -56 82t-106 16q-86 -10 -140 -45l33 450h423v-144h-261l-10 -128q107 19 193 -39.5t94 -179.5q5 -83 -16.5 -147t-62 -102t-92.5 -56.5t-111 -16.5q-124 5 -201 52z" />
    <glyph glyph-name="six" unicode="6" horiz-adv-x="582" 
d="M386 178q3 61 -17 99t-64 42q-35 4 -66 -17t-33 -53q-5 -84 15 -141.5t71 -57.5q88 0 94 128zM264 545q-34 -45 -38 -108q34 25 94 27q99 2 164 -70t63 -208q-2 -137 -76.5 -211.5t-182.5 -72.5q-250 4 -247 363q2 233 78 351q22 34 54 59.5t79 42t115 9.5t147 -41
l-40 -138q-157 71 -210 -3z" />
    <glyph glyph-name="seven" unicode="7" horiz-adv-x="582" 
d="M44 572v144h506v-122q-78 -82 -137.5 -261.5t-65.5 -414.5h-181q8 218 62.5 386t124.5 268h-309z" />
    <glyph glyph-name="eight" unicode="8" horiz-adv-x="582" 
d="M358 520q0 77 -73 77q-32 0 -51.5 -21t-19.5 -56q0 -65 80 -106q64 41 64 106zM389 130q0 48 -31.5 78t-90.5 53q-33 -18 -53 -49.5t-20 -70.5q0 -50 26.5 -77t72.5 -27q39 0 67.5 25t28.5 68zM556 146q0 -84 -39.5 -141.5t-99.5 -82.5t-134 -25q-50 0 -95 14t-82 41
t-59 73t-22 104q0 61 33.5 117t84.5 92q-96 74 -96 182q0 103 72 156.5t175 53.5q94 0 162.5 -52t68.5 -149q0 -103 -98 -179q56 -34 92.5 -86.5t36.5 -117.5z" />
    <glyph glyph-name="nine" unicode="9" horiz-adv-x="582" 
d="M193 449q-3 -66 21 -106.5t66 -42.5q36 -2 64.5 23.5t30.5 63.5q5 81 -15 137.5t-71 57.5q-42 1 -68 -36t-28 -97zM331 85q33 40 38 96q-41 -30 -99 -30q-101 -1 -171.5 73.5t-70.5 215.5t75 216.5t185 71.5q134 -5 193.5 -92.5t59.5 -252.5q0 -255 -59 -358
q-20 -34 -51 -61t-78 -46.5t-117 -17t-152 32.5l26 147q163 -62 221 5z" />
    <glyph glyph-name="colon" unicode=":" horiz-adv-x="270" 
d="M135 231q46 0 71 -26.5t25 -75.5q0 -102 -96 -102q-97 0 -97 102q0 48 25.5 75t71.5 27zM135 606q46 0 71 -26.5t25 -75.5q0 -102 -96 -102q-97 0 -97 102q0 48 25.5 75t71.5 27z" />
    <glyph glyph-name="semicolon" unicode=";" horiz-adv-x="270" 
d="M231 157q9 -60 -22.5 -127t-81.5 -106l-73 31q20 18 37 49.5t17 51.5q-29 3 -50.5 26.5t-22.5 59.5q-1 37 23 65.5t62 32.5q46 6 75.5 -19t35.5 -64zM135 606q46 0 71 -26.5t25 -75.5q0 -102 -96 -102q-97 0 -97 102q0 48 25.5 75t71.5 27z" />
    <glyph glyph-name="less" unicode="&#x3c;" horiz-adv-x="430" 
d="M172 321v-24l227 -213v-187l-392 365v89l392 357v-182z" />
    <glyph glyph-name="equal" unicode="=" horiz-adv-x="520" 
d="M55 359v130h409v-130h-409zM55 134v130h409v-130h-409z" />
    <glyph glyph-name="greater" unicode="&#x3e;" horiz-adv-x="430" 
d="M257 297v24l-227 205v182l392 -357v-89l-392 -365v187z" />
    <glyph glyph-name="question" unicode="?" horiz-adv-x="585" 
d="M300 747q103 2 169 -57t66 -152q0 -59 -32.5 -116t-79.5 -99q-31 -28 -47 -53.5t-16 -64.5v-87h-157v102q0 107 88 184q78 74 78 127q0 36 -23 55.5t-65 19.5q-28 0 -65.5 -27.5t-69.5 -70.5l-104 103q105 133 258 136zM276 62q99 0 99 -101t-99 -101q-101 0 -101 101
t101 101z" />
    <glyph glyph-name="at" unicode="@" horiz-adv-x="824" 
d="M782 388q0 -150 -76 -241h83q-36 -73 -86 -125.5t-103 -78.5t-98.5 -37t-87.5 -11q-179 0 -278.5 90.5t-99.5 263.5q0 114 52 215.5t149 165.5t217 64q154 0 241 -83.5t87 -222.5zM414 4q103 0 181 63q-37 -15 -67.5 -9t-48.5 18t-27 27q-40 -43 -105 -43
q-70 0 -108 46.5t-38 118.5q0 71 26 136.5t80 109.5t123 44q56 0 82 -26l9 27h103q-23 30 -68.5 52t-98.5 22q-124 0 -208 -104.5t-84 -239.5q0 -242 249 -242zM322 220q0 -45 30 -45q41 0 73.5 69.5t32.5 128.5q0 33 -24 33q-46 0 -79 -63t-33 -123zM657 390q0 56 -20 92
l-98 -282q-12 -33 8 -35q45 -3 77.5 61t32.5 164z" />
    <glyph glyph-name="A" unicode="A" horiz-adv-x="745" 
d="M547 -82l-48 174h-254l-48 -174h-182l242 800h231l242 -800h-183zM372 551l-90 -323h179z" />
    <glyph glyph-name="B" unicode="B" horiz-adv-x="684" 
d="M50 -82v798h336q101 0 164 -50t63 -151q0 -100 -66 -159q46 -30 76.5 -84t30.5 -117q0 -98 -62 -167.5t-185 -69.5h-357zM227 56h136q62 0 91 26.5t29 84.5q0 105 -164 105h-92v-216zM227 413h131q39 0 61.5 21.5t22.5 64.5q0 78 -89 78h-126v-164z" />
    <glyph glyph-name="C" unicode="C" horiz-adv-x="663" 
d="M561 143l84 -125q-107 -114 -260 -116q-168 -2 -261.5 103.5t-93.5 299.5q0 199 92.5 315t250.5 112q154 -3 257 -101l-82 -133q-89 83 -184 78q-70 -4 -112.5 -77t-42.5 -182q0 -119 43 -190t128 -72q99 -2 181 88z" />
    <glyph glyph-name="D" unicode="D" horiz-adv-x="668" 
d="M227 569v-507h42q96 0 147 69t51 193q0 134 -56 189.5t-184 55.5zM50 716h206q186 0 284 -102t98 -296q0 -190 -98.5 -295t-275.5 -105h-214v798z" />
    <glyph glyph-name="E" unicode="E" horiz-adv-x="584" 
d="M50 -82v798h491v-144h-310v-166h300v-142h-300v-205h323v-141h-504z" />
    <glyph glyph-name="F" unicode="F" horiz-adv-x="564" 
d="M50 -82v798h487v-145h-305v-171h297v-145h-297v-337h-182z" />
    <glyph glyph-name="G" unicode="G" horiz-adv-x="694" 
d="M342 226v139h310v-339q-91 -122 -281 -124q-163 -1 -252 111.5t-89 290.5q0 187 86 307t251 121q81 0 143.5 -26.5t119.5 -84.5l-86 -120q-81 77 -169 77q-79 0 -123 -74.5t-44 -186.5q0 -122 46 -195t137 -73q65 0 92 31v146h-141z" />
    <glyph glyph-name="H" unicode="H" horiz-adv-x="664" 
d="M437 404v312h177v-798h-177v342h-210v-342h-177v798h177v-312h210z" />
    <glyph glyph-name="I" unicode="I" horiz-adv-x="320" 
d="M70 -82v798h180v-798h-180z" />
    <glyph glyph-name="J" unicode="J" horiz-adv-x="348" 
d="M94 159v560h182v-563q0 -99 -40.5 -188.5t-113.5 -142.5q-11 -9 -20 -9.5t-26 10.5l-89 56q107 82 107 277z" />
    <glyph glyph-name="K" unicode="K" horiz-adv-x="684" 
d="M50 -82v798h176v-276l224 276h214l-271 -331l280 -467h-200l-207 343l-40 -53v-290h-176z" />
    <glyph glyph-name="L" unicode="L" horiz-adv-x="561" 
d="M50 -82v798h185v-653h301v-145h-486z" />
    <glyph glyph-name="M" unicode="M" horiz-adv-x="796" 
d="M746 -82h-168v368l-131 -364h-98l-131 364v-368h-168v798h153l196 -565l194 565h153v-798z" />
    <glyph glyph-name="N" unicode="N" horiz-adv-x="680" 
d="M630 -82h-150l-257 474v-474h-173v798h150l257 -483v483h173v-798z" />
    <glyph glyph-name="O" unicode="O" horiz-adv-x="652" 
d="M210 316q0 -51 2 -87t8.5 -74.5t18.5 -62t33.5 -38.5t51.5 -15q38 0 62.5 21t35.5 63t15 85t4 108t-4 108.5t-15 85.5t-35.5 63t-62.5 21q-37 0 -61 -21t-35 -63.5t-14.5 -85.5t-3.5 -108zM621 316q0 -213 -73.5 -314t-224.5 -101q-150 0 -221 100.5t-71 314.5t71 315
t221 101q151 0 224.5 -101.5t73.5 -314.5z" />
    <glyph glyph-name="P" unicode="P" horiz-adv-x="635" 
d="M50 -82v798h287q121 0 194.5 -67.5t73.5 -203.5q0 -134 -78.5 -208t-198.5 -74h-101v-245h-177zM308 574h-81v-271h81q59 0 93 36.5t34 105.5q0 129 -127 129z" />
    <glyph glyph-name="Q" unicode="Q" horiz-adv-x="703" 
d="M621 316q0 -141 -33 -233l109 -109l-105 -104l-88 86q-70 -55 -181 -55q-150 0 -221 100.5t-71 314.5t71 315t221 101q151 0 224.5 -101.5t73.5 -314.5zM210 316q0 -51 2 -87t8.5 -74.5t18.5 -62t33.5 -38.5t51.5 -15q38 0 62.5 21t35.5 63t15 85t4 108t-4 108.5
t-15 85.5t-35.5 63t-62.5 21q-37 0 -61 -21t-35 -63.5t-14.5 -85.5t-3.5 -108z" />
    <glyph glyph-name="R" unicode="R" horiz-adv-x="660" 
d="M50 -82v798h306q120 0 187.5 -55.5t67.5 -173.5q0 -60 -26.5 -110.5t-67.5 -76.5q48 -18 63 -92q4 -16 20.5 -121t37.5 -169h-180q-13 51 -27.5 141t-20.5 112q-18 66 -91 66h-92v-319h-177zM324 577h-97v-196h100q111 0 111 103q0 50 -28 71.5t-86 21.5z" />
    <glyph glyph-name="S" unicode="S" horiz-adv-x="616" 
d="M586 124q-14 -121 -99 -179.5t-220 -40.5q-56 8 -125 38.5t-117 77.5l86 140q102 -95 181 -102q54 -5 84 13t38 64q6 34 -18.5 63t-67.5 46q-24 10 -95 37q-85 35 -130.5 86t-46.5 138q-1 114 70 175.5t203 55.5q135 -7 251 -101l-77 -137q-105 77 -185 80q-75 3 -79 -63
q-2 -30 27.5 -57t59 -40t68.5 -26q95 -32 149.5 -99.5t42.5 -168.5z" />
    <glyph glyph-name="T" unicode="T" horiz-adv-x="639" 
d="M30 574v142h579v-142h-197v-656h-182v656h-200z" />
    <glyph glyph-name="U" unicode="U" horiz-adv-x="644" 
d="M418 202v514h176v-525q0 -136 -68.5 -213t-205.5 -77q-136 0 -203 77t-67 214v524h177v-514q0 -84 20 -121.5t73 -37.5q54 0 76 39t22 120z" />
    <glyph glyph-name="V" unicode="V" horiz-adv-x="694" 
d="M432 -82h-171l-247 798h191l142 -526l142 526h191z" />
    <glyph glyph-name="W" unicode="W" horiz-adv-x="829" 
d="M313 -82h-134l-162 798h177l79 -440l83 437h117l84 -436l78 439h177l-162 -798h-134l-102 431z" />
    <glyph glyph-name="X" unicode="X" horiz-adv-x="639" 
d="M11 -82l214 400l-214 398h191l117 -236l118 236h191l-215 -398l215 -400h-189l-120 238l-119 -238h-189z" />
    <glyph glyph-name="Y" unicode="Y" horiz-adv-x="682" 
d="M255 164l-243 552h192l137 -356l135 356h194l-243 -553v-245h-172v246z" />
    <glyph glyph-name="Z" unicode="Z" horiz-adv-x="580" 
d="M545 605l-308 -546h318v-141h-530v112l307 545h-296v141h509v-111z" />
    <glyph glyph-name="bracketleft" unicode="[" horiz-adv-x="400" 
d="M107 -164v931h273v-113h-126v-705h126v-113h-273z" />
    <glyph glyph-name="backslash" unicode="\" horiz-adv-x="520" 
d="M505 -102h-161l-329 838h156z" />
    <glyph glyph-name="bracketright" unicode="]" horiz-adv-x="400" 
d="M293 767v-931h-273v113h126v705h-126v113h273z" />
    <glyph glyph-name="asciicircum" unicode="^" horiz-adv-x="554" 
d="M338 800l176 -391h-150l-87 214l-87 -214h-150l175 391h123z" />
    <glyph glyph-name="underscore" unicode="_" horiz-adv-x="567" 
d="M501 43v-125h-435v125h435z" />
    <glyph glyph-name="grave" unicode="`" horiz-adv-x="270" 
d="M205 800l60 -290h-122l-124 290h186z" />
    <glyph glyph-name="a" unicode="a" horiz-adv-x="578" 
d="M187 87q0 -27 17.5 -44t40.5 -17q73 0 101 40t18 139q-41 0 -78.5 -10t-68 -38t-30.5 -70zM150 291q38 23 99 38t113 13q0 76 -83 76q-38 0 -84 -17.5t-82 -57.5l-84 92q93 119 262 119q101 0 169 -59t68 -161v-420h-141l-3 33q-55 -46 -153 -49q-82 -2 -140.5 47.5
t-57.5 149.5q1 125 117 196z" />
    <glyph glyph-name="b" unicode="b" horiz-adv-x="606" 
d="M315 395q-94 0 -94 -166q0 -184 96 -184q33 0 54 28t28.5 66.5t7.5 86.5q0 169 -92 169zM342 -94q-91 0 -140 49l-7 -37h-145v806h174v-216q46 28 115 30q63 1 110 -24.5t74 -71.5t40 -101.5t13 -119.5q0 -134 -59 -224.5t-175 -90.5z" />
    <glyph glyph-name="c" unicode="c" horiz-adv-x="566" 
d="M470 122l80 -110q-45 -60 -110.5 -87t-131.5 -27q-122 0 -200 86t-78 237q0 147 76 235.5t202 90.5q143 2 232 -94l-81 -118q-32 35 -71 52t-71 15q-53 -5 -84 -57t-31 -133q0 -68 32 -118t86 -49q87 2 150 77z" />
    <glyph glyph-name="d" unicode="d" horiz-adv-x="606" 
d="M292 395q-92 0 -92 -169q0 -48 7.5 -86.5t28.5 -66.5t54 -28q95 0 95 184q0 166 -93 166zM265 -94q-116 0 -175 90.5t-59 224.5q0 86 23.5 156t80 116.5t139.5 44.5q68 -2 108 -30v216h174v-806h-145l-7 37q-49 -49 -139 -49z" />
    <glyph glyph-name="e" unicode="e" horiz-adv-x="572" 
d="M295 409q-42 0 -66.5 -37.5t-23.5 -104.5h171q1 65 -20.5 103.5t-60.5 38.5zM515 133h-309q3 -42 31.5 -68.5t82.5 -26.5q35 0 81 16.5t77 48.5l61 -106q-37 -48 -106 -74t-132 -26q-131 0 -201 90.5t-70 218.5q0 153 65.5 246.5t201.5 93.5q74 0 126 -33t78 -90
t35.5 -122t5.5 -141q-1 -15 -6 -21t-21 -6z" />
    <glyph glyph-name="f" unicode="f" horiz-adv-x="454" 
d="M422 527v-143h-134v-466h-175v466h-98v143h98v61q0 89 45.5 132.5t120.5 40.5q100 -5 167 -39l-31 -123q-57 27 -99 25q-28 -2 -28 -52v-45h134z" />
    <glyph glyph-name="g" unicode="g" horiz-adv-x="603" 
d="M553 546v-514q0 -112 -53.5 -176t-161.5 -65q-137 -2 -269 53l43 129q134 -62 214 -49q35 6 47 23t12 51v42q-39 -30 -122 -30q-116 0 -174.5 73.5t-58.5 198.5q0 121 64 196t175 75q81 0 123 -34v27h161zM289 419q-43 0 -67 -33.5t-24 -99.5q0 -143 87 -143
q50 0 72.5 36t22.5 110q0 65 -24.5 97.5t-66.5 32.5z" />
    <glyph glyph-name="h" unicode="h" horiz-adv-x="607" 
d="M50 -82v806h175v-225q48 31 117 36q108 9 161.5 -53t53.5 -169v-395h-171v373q0 54 -21 81t-60 21q-29 -3 -54.5 -22.5t-25.5 -55.5v-397h-175z" />
    <glyph glyph-name="i" unicode="i" horiz-adv-x="312" 
d="M68 -82v575h178v-575h-178zM156 757q46 0 74.5 -25t28.5 -76q0 -101 -103 -101q-104 0 -104 101q0 51 29 76t75 25z" />
    <glyph glyph-name="j" unicode="j" horiz-adv-x="320" 
d="M67 144v356h178v-350q0 -213 -121 -312q-15 -12 -23 -14.5t-28 5.5l-91 46q52 47 68.5 113.5t16.5 155.5zM155 759q46 0 74.5 -25t28.5 -75q0 -101 -103 -101t-103 101q0 50 28 75t75 25z" />
    <glyph glyph-name="k" unicode="k" horiz-adv-x="638" 
d="M50 -82v806h175v-388l181 194h226l-237 -241l239 -371h-199l-169 261l-41 -43v-218h-175z" />
    <glyph glyph-name="l" unicode="l" horiz-adv-x="298" 
d="M60 -82v806h179v-806h-179z" />
    <glyph glyph-name="m" unicode="m" horiz-adv-x="800" 
d="M314 -82v369q0 56 -11 78.5t-40 18.5q-45 -9 -45 -88v-378h-170v615h158v-38q33 33 89 40q97 13 141 -63q19 26 56 43.5t70 20.5q93 9 136.5 -50t43.5 -166v-402h-159v370q0 56 -10 78t-38 18q-50 -9 -50 -89v-377h-171z" />
    <glyph glyph-name="n" unicode="n" horiz-adv-x="602" 
d="M50 -82v615h169v-38q48 37 123 42q107 8 158.5 -53.5t51.5 -168.5v-397h-172v375q0 55 -18 81t-57 21q-29 -4 -55 -23.5t-26 -54.5v-399h-174z" />
    <glyph glyph-name="o" unicode="o" horiz-adv-x="573" 
d="M372 222q0 61 -6 99.5t-26 65.5t-55 27q-50 0 -67.5 -49.5t-17.5 -142.5q0 -94 17.5 -142.5t67.5 -48.5q51 0 69 49t18 142zM285 546q70 0 122 -26t80.5 -72.5t42 -102.5t13.5 -123t-13.5 -123t-42 -102.5t-80 -72.5t-122.5 -26q-70 0 -121 26t-79.5 72.5t-41.5 102
t-13 123.5q0 67 13 123t41.5 102.5t79.5 72.5t121 26z" />
    <glyph glyph-name="p" unicode="p" horiz-adv-x="605" 
d="M313 408q-91 0 -91 -150q0 -167 95 -167q44 0 65.5 46.5t21.5 117.5q0 153 -91 153zM50 -210v743h172v-32q25 19 60.5 31t62.5 12q80 0 133 -41.5t74.5 -105t21.5 -146.5q0 -129 -59 -213t-177 -84q-60 0 -116 27v-191h-172z" />
    <glyph glyph-name="q" unicode="q" horiz-adv-x="605" 
d="M292 408q-91 0 -91 -153q0 -71 21.5 -117.5t65.5 -46.5q95 0 95 167q0 150 -91 150zM555 533v-743h-172v191q-56 -27 -116 -27q-118 0 -177 84t-59 213q0 127 59.5 210t177.5 83q76 0 125 -43v32h162z" />
    <glyph glyph-name="r" unicode="r" horiz-adv-x="447" 
d="M60 -82v615h174v-49q27 33 87 50t111 5v-140q-82 2 -138.5 -35t-56.5 -88v-358h-177z" />
    <glyph glyph-name="s" unicode="s" horiz-adv-x="527" 
d="M503 106q0 -108 -61.5 -161t-176.5 -48q-61 2 -127 27t-114 69l68 128q93 -76 172 -76q76 0 76 50q0 21 -18.5 36t-40 21.5t-53 13.5t-42.5 11q-78 27 -114 75.5t-34 124.5q3 91 68 135.5t166 39.5q121 -6 221 -72l-61 -132q-88 49 -141 54q-70 5 -75 -29q-7 -46 57 -62
q3 -1 8 -2l59.5 -17.5t57 -24t55 -36.5t35 -51.5t15.5 -73.5z" />
    <glyph glyph-name="t" unicode="t" horiz-adv-x="440" 
d="M414 551v-143h-124v-309q0 -95 113 -33l25 -123q-30 -21 -77 -32.5t-85 -13.5q-72 -4 -111 43t-39 132v336h-101v143h101v175h174v-175h124z" />
    <glyph glyph-name="u" unicode="u" horiz-adv-x="592" 
d="M50 114v419h174v-405q0 -90 72 -90q33 0 52.5 30t19.5 84v381h174v-615h-144l-5 30q-40 -47 -129 -47q-96 0 -155 56.5t-59 156.5z" />
    <glyph glyph-name="v" unicode="v" horiz-adv-x="607" 
d="M373 -82h-139l-227 615h186l110 -358l111 358h186z" />
    <glyph glyph-name="w" unicode="w" horiz-adv-x="725" 
d="M283 -82h-137l-132 615h167l60 -334l65 331h111l66 -333l60 336h168l-134 -615h-137l-79 308z" />
    <glyph glyph-name="x" unicode="x" horiz-adv-x="570" 
d="M10 -82l179 301l-183 314h188l90 -175l92 175h188l-186 -314l178 -301h-189l-84 162l-84 -162h-189z" />
    <glyph glyph-name="y" unicode="y" horiz-adv-x="585" 
d="M189 533l102 -310l114 310h175l-280 -743h-175l81 224l-201 519h184z" />
    <glyph glyph-name="z" unicode="z" horiz-adv-x="505" 
d="M474 423l-241 -366h250v-139h-460v111l239 365h-232v139h444v-110z" />
    <glyph glyph-name="braceleft" unicode="{" horiz-adv-x="400" 
d="M267 563v-77q0 -27 -1.5 -42.5t-7.5 -36.5t-20.5 -39t-38.5 -35q24 -15 38.5 -34t20.5 -45.5t7.5 -47t1.5 -55.5v-116q0 -52 29.5 -74t88.5 -22v-109h-46q-103 0 -157 59.5t-54 167.5v82q0 32 -0.5 45.5t-5 34t-14 29.5t-27.5 18t-46 14v104q65 12 79 39t14 99v45
q0 91 53.5 149t160.5 58h43v-109q-60 0 -89 -20.5t-29 -81.5z" />
    <glyph glyph-name="bar" unicode="|" horiz-adv-x="311" 
d="M85 746h141v-858h-141v858z" />
    <glyph glyph-name="braceright" unicode="}" horiz-adv-x="400" 
d="M133 486v77q0 61 -29 81.5t-89 20.5v109h43q107 0 160.5 -58t53.5 -149v-45q0 -32 1 -46t5 -33t14 -28t27.5 -17.5t45.5 -13.5v-104q-28 -5 -46 -14t-27.5 -18t-14 -29.5t-5 -34t-0.5 -45.5v-82q0 -108 -54 -167.5t-157 -59.5h-46v109q59 0 88.5 22t29.5 74v116
q0 28 0.5 44.5t4.5 39.5t10.5 38t20 31.5t32.5 28.5q-45 32 -56.5 65.5t-11.5 87.5z" />
    <glyph glyph-name="asciitilde" unicode="~" horiz-adv-x="520" 
d="M420 435l91 -47q-23 -85 -69.5 -127t-94.5 -40q-29 1 -64 20t-57 35q-43 27 -72.5 15.5t-49.5 -68.5l-95 48q18 67 58 113t89 50q34 3 61 -8t63 -36q48 -36 79.5 -27.5t60.5 72.5z" />
    <glyph glyph-name="uni20A9" unicode="&#x20a9;" 
d="M25 353v128h74l-47 235h167l42 -235h92l41 232h111l40 -232h93l42 235h167l-48 -235h75v-128h-101l-88 -435h-134l-99 435h-7l-97 -435h-134l-89 435h-100zM283 353l25 -137l23 137h-48zM568 353l24 -136l24 136h-48z" />
    <glyph glyph-name="uni2010" unicode="&#x2010;" 
d="M185 253v128h529v-128h-529z" />
    <glyph glyph-name="copyright" unicode="&#xa9;" 
d="M460 623q-92 0 -160 -45t-98.5 -112.5t-30.5 -146.5t30.5 -146.5t98.5 -112.5t160 -45q70 0 126.5 26t91 69t53.5 97.5t19 111.5t-19 111.5t-53.5 97.5t-91 69t-126.5 26zM460 -77q-94 0 -169.5 34t-122 89.5t-72 127t-25.5 145.5t25.5 145.5t72 127t122 89.5t169.5 34
t169.5 -34t122 -89.5t72 -127t25.5 -145.5t-25.5 -145.5t-72 -127t-122 -89.5t-169.5 -34zM602 260l73 -92q-38 -47 -95 -71t-111 -24q-106 0 -174 65.5t-68 178.5q0 112 63.5 181.5t171.5 70.5q120 2 202 -81l-71 -98q-61 61 -125 54q-44 -5 -68 -39.5t-23 -90.5
q2 -51 28 -84.5t71 -33.5q70 0 126 64z" />
    <glyph glyph-name="uniE4F5" unicode="&#xe4f5;" 
d="M883 268h-120v226l-72 -223h-69l-72 223v-226h-120v532h118l109 -353l108 353h118v-532zM15 700v100h392v-100h-126v-432h-138v432h-128z" />
    <glyph glyph-name="uniE4F6" unicode="&#xe4f6;" 
d="M450 75q40 0 66.5 -26t26.5 -73q0 -50 -26 -74.5t-67 -24.5q-42 0 -68 24.5t-26 74.5q0 46 26.5 72.5t67.5 26.5zM151 75q40 0 66.5 -26t26.5 -73q0 -50 -26 -74.5t-67 -24.5q-42 0 -68 24.5t-26 74.5q0 46 26.5 72.5t67.5 26.5zM747 75q40 0 66.5 -26t26.5 -73
q0 -50 -26 -74.5t-67 -24.5q-42 0 -68 24.5t-26 74.5q0 46 26.5 72.5t67.5 26.5z" />
    <glyph glyph-name="uni3000" unicode="&#x3000;" 
 />
    <glyph glyph-name="uni3001" unicode="&#x3001;" horiz-adv-x="450" 
d="M355 53q-68 -44 -190 -213l-69 63q34 61 82 128.5t79 101.5z" />
    <glyph glyph-name="uni3002" unicode="&#x3002;" horiz-adv-x="450" 
d="M328 -51q0 -51 -32 -80t-70.5 -29t-70.5 29t-32 80t32 80t70.5 29t70.5 -29t32 -80zM276 -51q0 34 -25 48.5t-50.5 0t-25.5 -48.5t25.5 -48.5t50.5 0t25 48.5z" />
    <glyph glyph-name="periodcentered" unicode="&#xb7;" horiz-adv-x="450" 
d="M225 414q40 0 66.5 -26t26.5 -73q0 -50 -26 -74.5t-67 -24.5q-42 0 -68 24.5t-26 74.5q0 46 26.5 72.5t67.5 26.5z" />
    <glyph glyph-name="twodotenleader" unicode="&#x2025;" 
d="M226 414q40 0 66.5 -26t26.5 -73q0 -50 -26 -74.5t-67 -24.5q-42 0 -68 24.5t-26 74.5q0 46 26.5 72.5t67.5 26.5zM672 414q40 0 66.5 -26t26.5 -73q0 -50 -26 -74.5t-67 -24.5q-42 0 -68 24.5t-26 74.5q0 46 26.5 72.5t67.5 26.5z" />
    <glyph glyph-name="ellipsis" unicode="&#x2026;" 
d="M450 414q40 0 66.5 -26t26.5 -73q0 -50 -26 -74.5t-67 -24.5q-42 0 -68 24.5t-26 74.5q0 46 26.5 72.5t67.5 26.5zM151 414q40 0 66.5 -26t26.5 -73q0 -50 -26 -74.5t-67 -24.5q-42 0 -68 24.5t-26 74.5q0 46 26.5 72.5t67.5 26.5zM747 414q40 0 66.5 -26t26.5 -73
q0 -50 -26 -74.5t-67 -24.5q-42 0 -68 24.5t-26 74.5q0 46 26.5 72.5t67.5 26.5z" />
    <glyph glyph-name="dieresis" unicode="&#xa8;" 
d="M226 800q40 0 66.5 -26t26.5 -73q0 -50 -26 -74.5t-67 -24.5q-42 0 -68 24.5t-26 74.5q0 46 26.5 72.5t67.5 26.5zM672 800q40 0 66.5 -26t26.5 -73q0 -50 -26 -74.5t-67 -24.5q-42 0 -68 24.5t-26 74.5q0 46 26.5 72.5t67.5 26.5z" />
    <glyph glyph-name="uni3003" unicode="&#x3003;" 
d="M511 174l-90 46l113 270l132 -68zM326 184l-92 43l103 274l135 -64z" />
    <glyph glyph-name="uni00AD" unicode="&#xad;" 
d="M225 253v128h449v-128h-449z" />
    <glyph glyph-name="afii00208" unicode="&#x2015;" 
d="M125 253v128h649v-128h-649z" />
    <glyph glyph-name="uni2016" unicode="&#x2016;" 
d="M269 746h141v-858h-141v858zM489 746h141v-858h-141v858z" />
    <glyph glyph-name="uniFF3C" unicode="&#xff3c;" 
d="M745 -102h-161l-429 838h156z" />
    <glyph glyph-name="similar" unicode="&#x223c;" 
d="M610 435l91 -47q-23 -85 -69.5 -127t-94.5 -40q-29 1 -64 20t-57 35q-43 27 -72.5 15.5t-49.5 -68.5l-95 48q18 67 58 113t89 50q34 3 61 -8t63 -36q48 -36 79.5 -27.5t60.5 72.5z" />
    <glyph glyph-name="quoteleft" unicode="&#x2018;" horiz-adv-x="450" 
d="M225 550q-8 62 28.5 142.5t85.5 118.5l72 -29q-24 -23 -47.5 -65.5t-22.5 -67.5q33 -1 55.5 -25.5t23.5 -62.5q0 -37 -24.5 -65t-62.5 -32q-46 -4 -75 21.5t-33 64.5z" />
    <glyph glyph-name="quoteright" unicode="&#x2019;" horiz-adv-x="450" 
d="M224 717q10 -61 -23.5 -143t-81.5 -121l-73 26q23 24 45 67t21 68q-34 0 -57.5 23.5t-24.5 61.5q-2 37 21.5 66t61.5 34q46 6 75.5 -18.5t35.5 -63.5z" />
    <glyph glyph-name="quotedblleft" unicode="&#x201c;" horiz-adv-x="450" 
d="M240 550q-8 61 28 142t83 119l66 -29q-24 -24 -47.5 -66t-22.5 -67q33 -1 55 -25.5t23 -62.5t-22 -65t-61 -32q-44 -4 -71.5 21.5t-30.5 64.5zM36 550q-8 61 28 142t83 119l66 -29q-24 -24 -47.5 -66t-22.5 -67q33 -1 55 -25.5t23 -62.5t-22 -65t-61 -32
q-44 -4 -71.5 21.5t-30.5 64.5z" />
    <glyph glyph-name="quotedblright" unicode="&#x201d;" horiz-adv-x="450" 
d="M207 718q10 -61 -21.5 -143.5t-77.5 -121.5l-66 27q22 24 42.5 67t18.5 68q-33 -1 -55 22.5t-25 61.5t19 66.5t60 34.5q44 5 72.5 -20t32.5 -62zM410 718q10 -61 -21.5 -143.5t-77.5 -121.5l-66 27q22 24 42.5 67t18.5 68q-33 -1 -55 22.5t-25 61.5t19 66.5t60 34.5
q44 5 72.5 -20t32.5 -62z" />
    <glyph glyph-name="uni3014" unicode="&#x3014;" horiz-adv-x="450" 
d="M405 -149l-233 154v590l233 154v-115l-135 -93v-488l135 -87v-115z" />
    <glyph glyph-name="uni3015" unicode="&#x3015;" horiz-adv-x="450" 
d="M279 5l-233 -154v115l135 87v488l-135 93v115l233 -154v-590z" />
    <glyph glyph-name="uni3008" unicode="&#x3008;" horiz-adv-x="450" 
d="M405 -77l-102 -66l-255 445l255 443l102 -67l-216 -377z" />
    <glyph glyph-name="uni3009" unicode="&#x3009;" horiz-adv-x="450" 
d="M403 302l-255 -445l-102 66l216 378l-216 377l102 67z" />
    <glyph glyph-name="uni300A" unicode="&#x300a;" horiz-adv-x="450" 
d="M405 -141h-46l-181 441l181 441h45l-181 -441zM299 -141h-46l-181 441l181 441h45l-181 -441z" />
    <glyph glyph-name="uni300B" unicode="&#x300b;" horiz-adv-x="450" 
d="M379 300l-181 -441h-46l182 441l-181 441h45zM272 300l-180 -441h-46l181 441l-180 441h45z" />
    <glyph glyph-name="uni300C" unicode="&#x300c;" horiz-adv-x="450" 
d="M405 684h-197v-345h-73v422h270v-77z" />
    <glyph glyph-name="uni300D" unicode="&#x300d;" horiz-adv-x="450" 
d="M315 -161h-269v77h197v345h72v-422z" />
    <glyph glyph-name="uni300E" unicode="&#x300e;" horiz-adv-x="450" 
d="M405 617h-135v-278h-135v422h270v-144zM360 665v48h-180v-326h45v278h135z" />
    <glyph glyph-name="uni300F" unicode="&#x300f;" horiz-adv-x="450" 
d="M315 -161h-269v144h135v278h134v-422zM270 -113v326h-45v-278h-134v-48h179z" />
    <glyph glyph-name="uni3010" unicode="&#x3010;" horiz-adv-x="450" 
d="M405 -161h-343v921h342q-114 -79 -174.5 -205t-60 -256t61 -255.5t174.5 -204.5z" />
    <glyph glyph-name="uni3011" unicode="&#x3011;" horiz-adv-x="450" 
d="M389 -160h-343q114 79 174.5 204.5t61 255.5t-60 256t-174.5 205h342v-921z" />
    <glyph glyph-name="plusminus" unicode="&#xb1;" 
d="M378 587h143v-129h151v-118h-151v-148h-143v148h-151v118h151v129zM220 27v121h459v-121h-459z" />
    <glyph glyph-name="multiply" unicode="&#xd7;" 
d="M193 53l170 249l-164 243h172l78 -135l80 135h172l-166 -243l169 -249h-172l-83 141l-84 -141h-172z" />
    <glyph glyph-name="divide" unicode="&#xf7;" 
d="M450 604q38 0 64 -24t26 -67q0 -46 -25.5 -68.5t-64.5 -22.5t-65 22.5t-26 68.5q0 42 26.5 66.5t64.5 24.5zM450 212q38 0 64 -24t26 -67q0 -46 -25.5 -68.5t-64.5 -22.5t-65 22.5t-26 68.5q0 42 26.5 66.5t64.5 24.5zM217 252v130h465v-130h-465z" />
    <glyph glyph-name="notequal" unicode="&#x2260;" 
d="M220 357v130h229l45 128h140l-45 -128h90v-130h-136l-29 -82h165v-130h-211l-46 -132h-140l46 132h-108v130h154l29 82h-183z" />
    <glyph glyph-name="lessequal" unicode="&#x2264;" 
d="M230 475l429 148v-137l-282 -82l287 -77v-136l-434 142v142zM220 27v121h459v-121h-459z" />
    <glyph glyph-name="greaterequal" unicode="&#x2265;" 
d="M240 623l429 -148v-142l-434 -142v136l287 77l-282 82v137zM679 148v-121h-459v121h459z" />
    <glyph glyph-name="infinity" unicode="&#x221e;" 
d="M617 126q-40 0 -74 20.5t-53 45.5t-29 46l-11 20q-2 -5 -6 -14t-19 -32t-32.5 -40t-47 -31.5t-61.5 -14.5q-52 0 -89.5 26t-55 64.5t-17.5 83.5t17.5 83.5t55 64.5t89.5 26q32 0 61.5 -13.5t47.5 -33t31.5 -39t19.5 -32.5l6 -14q2 5 6 14t19 32t33 40t47.5 31.5
t61.5 14.5q52 0 89.5 -26t55 -64.5t17.5 -83.5t-17.5 -83.5t-55 -64.5t-89.5 -26zM617 431q-33 0 -61.5 -20.5t-44 -45t-23.5 -44.5l-9 -21q3 -8 9 -21.5t23 -42.5t45 -48t61 -19q46 0 77.5 27t39 65.5t0 77t-39 65.5t-77.5 27zM422 300q-3 8 -9 21.5t-23 42.5t-45 48
t-61 19q-57 0 -89.5 -41t-32.5 -90t32.5 -90t89.5 -41q33 0 61.5 20.5t44 45t24.5 45.5z" />
    <glyph glyph-name="therefore" unicode="&#x2234;" 
d="M517 523q0 -44 -33 -62.5t-66.5 0t-33.5 62.5q0 34 21 53t45.5 19t45.5 -19t21 -53zM745 65q0 -44 -33 -62.5t-66.5 0t-33.5 62.5t33.5 62.5t66.5 0t33 -62.5zM289 65q0 -44 -33 -62.5t-66.5 0t-33.5 62.5t33.5 62.5t66.5 0t33 -62.5z" />
    <glyph glyph-name="degree" unicode="&#xb0;" horiz-adv-x="450" 
d="M333 646q0 -43 -22 -72.5t-54 -36.5t-63.5 0t-53.5 36.5t-22 72.5t22 72.5t53.5 36.5t63.5 0t54 -36.5t22 -72.5zM282 646q0 37 -28 52.5t-56.5 0t-28.5 -52.5t28.5 -52.5t56.5 0t28 52.5z" />
    <glyph glyph-name="minute" unicode="&#x2032;" horiz-adv-x="450" 
d="M270 761l-190 -269h-34l99 269h125z" />
    <glyph glyph-name="second" unicode="&#x2033;" horiz-adv-x="450" 
d="M428 761l-190 -269h-34l99 269h125zM270 761l-190 -269h-34l99 269h125z" />
    <glyph glyph-name="uni2103" unicode="&#x2103;" 
d="M131 592q0 -64 40 -64t40 64q0 61 -40 61t-40 -61zM26 593q0 69 38 112.5t107 43.5q68 0 106.5 -44t38.5 -112q0 -71 -37.5 -115.5t-107.5 -44.5q-58 0 -101.5 40t-43.5 120zM813 136l76 -127q-87 -105 -247 -107q-154 -2 -246.5 104.5t-92.5 298.5q0 197 91.5 314
t237.5 113q154 -4 244 -96l-77 -133q-77 79 -169 73q-70 -4 -109 -76t-39 -183q0 -117 42 -189t120 -73q100 -2 169 81z" />
    <glyph glyph-name="uni212B" unicode="&#x212b;" 
d="M271 660q0 64 47.5 107t129.5 43q81 0 129 -43.5t48 -106.5q0 -69 -48 -112l228 -631h-187l-38 117h-262l-38 -117h-186l228 631q-51 41 -51 112zM449 437l-88 -269h175zM399 659q0 -24 12 -40.5t37 -16.5t37 16.5t12 40.5q0 23 -12 39t-37 16t-37 -16t-12 -39z" />
    <glyph glyph-name="uniFFE0" unicode="&#xffe0;" 
d="M401 -176v113q-132 24 -205 119t-73 252q0 163 74 268t204 128v96h121v-93q141 -14 230 -93l-84 -123q-69 57 -146 69v-486q87 11 158 84l86 -118q-46 -46 -110.5 -74t-133.5 -34v-108h-121zM306 320q0 -161 95 -221v441q-45 -29 -70 -87.5t-25 -132.5z" />
    <glyph glyph-name="uniFFE1" unicode="&#xffe1;" 
d="M98 265v136h95v97q0 116 71 177.5t204 61.5q124 0 191 -60.5t67 -176.5v-31h-174v26q0 44 -22.5 73.5t-63.5 29.5q-46 0 -67.5 -29t-21.5 -74v-94h154v-136h-154v-206h183q35 0 50 17.5t15 55.5v83h173v-77q0 -111 -55.5 -165.5t-154.5 -54.5h-490v141h95v206h-95z" />
    <glyph glyph-name="uniFFE5" unicode="&#xffe5;" 
d="M155 244v118h114l-168 354h192l156 -354h2l154 354h194l-169 -354h114v-118h-170l-20 -42h175v-118h-193v-166h-172v166h-194v118h176l-20 42h-171z" />
    <glyph glyph-name="male" unicode="&#x2642;" 
d="M691 437l-55 -59l-145 199v-358q55 -15 89 -57t38 -92t-10.5 -98t-57 -80t-100.5 -32t-100 32t-56.5 80t-10.5 98t38 92t89 57v358l-145 -198l-54 59l239 309zM450 146q-37 0 -62.5 -21.5t-31 -52.5t0 -62t31 -52.5t62.5 -21.5t62.5 21.5t31.5 52.5t0 62t-31.5 52.5
t-62.5 21.5z" />
    <glyph glyph-name="female" unicode="&#x2640;" 
d="M738 189h-247v-335h-81v335h-247v87h247v106q-69 18 -102.5 77t-26.5 121.5t52 111.5t117 49t117.5 -49t52.5 -111.5t-26.5 -121.5t-102.5 -77v-106h247v-87zM450 664q-37 0 -62.5 -21.5t-31 -52.5t0 -62t31 -52.5t62.5 -21.5t62.5 21.5t31.5 52.5t0 62t-31.5 52.5
t-62.5 21.5z" />
    <glyph glyph-name="angle" unicode="&#x2220;" 
d="M774 -6h-621q-37 0 0 37l539 580l29 -30l-512 -550h565v-37z" />
    <glyph glyph-name="perpendicular" unicode="&#x22a5;" 
d="M757 -6h-613v37h286v557h41v-557h286v-37z" />
    <glyph glyph-name="uni2312" unicode="&#x2312;" 
d="M774 319h-42q-13 80 -56 138.5t-100.5 85.5t-123 27.5t-123 -26t-101.5 -85.5t-58 -140h-42q13 94 63 162.5t116.5 99.5t143 31t143 -31.5t116.5 -99.5t64 -162z" />
    <glyph glyph-name="partialdiff" unicode="&#x2202;" horiz-adv-x="450" 
d="M366 264q-14 -52 -48 -95t-73.5 -63.5t-77.5 -26t-64 13.5t-29 59q-5 61 43 105t108.5 59.5t102.5 6.5q2 25 -1.5 48t-15 46t-38 33t-65.5 3q-29 -5 -53 -22.5t-35.5 -30t-13.5 -10.5q-4 3 4 19t25 34.5t49 32.5t70 12q72 -2 105 -66.5t7 -157.5zM327 302q-94 0 -153 -46
q-40 -32 -52 -73.5t8 -61.5q24 -23 58.5 -11.5t65.5 43.5q60 65 73 149z" />
    <glyph glyph-name="gradient" unicode="&#x2207;" 
d="M791 588l-341 -618l-342 618h683zM661 510h-423l212 -384z" />
    <glyph glyph-name="equivalence" unicode="&#x2261;" 
d="M774 434h-647v39h647v-39zM774 281h-647v38h647v-38zM774 127h-647v39h647v-39z" />
    <glyph glyph-name="uni2252" unicode="&#x2252;" 
d="M774 359h-647v44h647v-44zM315 556q0 -24 -15 -37.5t-32.5 -13.5t-32.5 13.5t-15 37.5t15 37.5t32.5 13.5t32.5 -13.5t15 -37.5zM681 45q0 -31 -23.5 -44t-47.5 0t-24 44t24 44t47.5 0t23.5 -44zM774 197h-647v44h647v-44z" />
    <glyph glyph-name="section" unicode="&#xa7;" horiz-adv-x="450" 
d="M363 210q-13 -23 -33.5 -31.5t-36.5 -4.5q22 -23 32.5 -37t20 -42t9.5 -64q0 -65 -33.5 -99t-89.5 -34q-70 0 -106.5 43.5t-9.5 71.5q28 29 53 5.5t12 -54.5q-5 -13 11 -22.5t37.5 -9.5t40.5 19t19 55q0 42 -19 76.5t-43 54.5l-57 48.5t-51 52.5q-66 87 -30 152
q12 21 33.5 30.5t36.5 5.5q-64 58 -63 143q1 65 35 99t88 34q70 0 105.5 -43t9.5 -72t-50.5 -6t-13.5 55q3 10 -7 19.5t-26 11.5t-33 -2.5t-29.5 -23t-12.5 -47.5q0 -42 19 -76t43.5 -54l57.5 -49t51 -53q15 -20 25.5 -43.5t15 -54.5t-10.5 -54zM276 323q-60 70 -97 70
q-21 0 -31 -11.5t-8 -29.5t11 -38t23 -37q53 -67 91 -70q31 -2 40.5 17.5t0 47t-29.5 51.5z" />
    <glyph glyph-name="uni203B" unicode="&#x203b;" 
d="M513 527q0 -31 -19.5 -49t-43 -18t-43 18t-19.5 48q0 32 19.5 49.5t43 18t43 -17.5t19.5 -49zM726 300q0 -42 -31.5 -59.5t-63 0t-31.5 58.5q0 32 19.5 49.5t43.5 18t43.5 -17.5t19.5 -49zM736 54l-54 -58l-232 250l-231 -250l-53 58l234 246l-234 247l54 57l230 -250
l232 249l54 -56l-235 -247zM301 300q0 -42 -31.5 -59.5t-63 0t-31.5 58.5q0 32 19.5 49.5t43.5 18t43.5 -17.5t19.5 -49zM513 74q0 -42 -31 -59.5t-62.5 0t-31.5 58.5q0 42 31.5 59t62.5 0t31 -58z" />
    <glyph glyph-name="uni2606" unicode="&#x2606;" 
d="M808 423l-220 -171l83 -276l-220 171l-220 -171l83 278l-220 169h272l84 277l86 -277h272zM626 356h-134l-42 140l-40 -137h-134l107 -82l-39 -137l107 84l108 -86l-41 135z" />
    <glyph glyph-name="uni2605" unicode="&#x2605;" 
d="M808 423l-220 -171l83 -276l-220 171l-220 -171l83 278l-220 169h272l84 277l86 -277h272z" />
    <glyph glyph-name="circle" unicode="&#x25cb;" 
d="M760 300q0 -104 -46 -181t-115 -111.5t-149 -34.5t-149 34.5t-115 111.5t-46 181t46 181t115 111.5t149 34.5t149 -34.5t115 -111.5t46 -181zM659 300q0 70 -31 121.5t-77 75t-100.5 23.5t-100.5 -23.5t-77 -75t-31 -121.5t31 -121.5t77 -75t100.5 -23.5t100.5 23.5
t77 75t31 121.5z" />
    <glyph glyph-name="H18533" unicode="&#x25cf;" 
d="M760 300q0 -104 -46 -181t-115 -111.5t-149 -34.5t-149 34.5t-115 111.5t-46 181t46 181t115 111.5t149 34.5t149 -34.5t115 -111.5t46 -181z" />
    <glyph glyph-name="uni25CE" unicode="&#x25ce;" 
d="M819 300q0 -94 -31.5 -170t-83.5 -122.5t-118 -72t-135.5 -25.5t-135.5 25.5t-118 72t-83.5 122.5t-31.5 170t31.5 170t83.5 122.5t118 72t135.5 25.5t135.5 -25.5t118 -72t83.5 -122.5t31.5 -170zM783 300q0 112 -49.5 194t-123 119t-160 37t-160 -37t-123 -119
t-49.5 -194t49.5 -194t123 -119t160 -37t160 37t123 119t49.5 194zM687 300q0 -80 -35 -138t-87.5 -84.5t-114 -26.5t-114 26.5t-87.5 84.5t-35 138t35 138t87.5 84.5t114 26.5t114 -26.5t87.5 -84.5t35 -138zM651 300q0 67 -29.5 116.5t-74.5 71.5t-96.5 22t-96.5 -22
t-74.5 -71.5t-29.5 -116.5t29.5 -116.5t74.5 -71.5t96.5 -22t96.5 22t74.5 71.5t29.5 116.5z" />
    <glyph glyph-name="uni25C7" unicode="&#x25c7;" 
d="M805 301l-354 -380l-355 379l354 378zM657 300l-207 220l-206 -220l206 -220z" />
    <glyph glyph-name="uni25C6" unicode="&#x25c6;" 
d="M805 301l-354 -380l-355 379l354 378z" />
    <glyph glyph-name="H22073" unicode="&#x25a1;" 
d="M725 7h-549v586h549v-586zM627 111v378h-354v-378h354z" />
    <glyph glyph-name="filledbox" unicode="&#x25a0;" 
d="M725 7h-549v586h549v-586z" />
    <glyph glyph-name="uni25B3" unicode="&#x25b3;" 
d="M799 6h-699l351 634zM613 119l-164 298l-164 -298h328z" />
    <glyph glyph-name="triagup" unicode="&#x25b2;" 
d="M799 6h-699l351 634z" />
    <glyph glyph-name="uni25BD" unicode="&#x25bd;" 
d="M799 583l-348 -633l-351 633h699zM614 472h-328l164 -298z" />
    <glyph glyph-name="triagdn" unicode="&#x25bc;" 
d="M799 583l-348 -633l-351 633h699z" />
    <glyph glyph-name="arrowright" unicode="&#x2192;" 
d="M875 300l-325 -172l108 120h-647v105h648l-109 120z" />
    <glyph glyph-name="arrowleft" unicode="&#x2190;" 
d="M880 248h-647l108 -120l-325 172l325 173l-110 -120h649v-105z" />
    <glyph glyph-name="arrowup" unicode="&#x2191;" 
d="M606 406l-104 124v-689h-104v688l-106 -125l157 357z" />
    <glyph glyph-name="arrowdown" unicode="&#x2193;" 
d="M606 175l-155 -337l-159 338l106 -107v691h104v-689z" />
    <glyph glyph-name="arrowboth" unicode="&#x2194;" 
d="M892 301l-299 -166l100 112h-487l100 -112l-298 166l298 165l-100 -112h487l-100 112z" />
    <glyph glyph-name="uni3013" unicode="&#x3013;" 
d="M774 387h-630v47h630v-47zM774 166h-630v47h630v-47z" />
    <glyph glyph-name="uni226A" unicode="&#x226a;" 
d="M804 -18l-22 -28l-439 327q-18 13 -18.5 18.5t18.5 19.5l439 327l21 -30l-428 -316zM588 -18l-22 -28l-439 327q-18 13 -18.5 18.5t18.5 19.5l439 327l20 -30l-427 -316z" />
    <glyph glyph-name="uni226B" unicode="&#x226b;" 
d="M774 281l-439 -327l-22 28l429 318l-428 316l21 30l439 -327q19 -14 18.5 -19.5t-18.5 -18.5zM558 281l-439 -327l-23 28l430 318l-428 316l21 30l439 -327q18 -14 17.5 -19.5t-17.5 -18.5z" />
    <glyph glyph-name="radical" unicode="&#x221a;" 
d="M802 539h-438l-98 -576q-1 -9 -10 -6q-2 1 -4 4l-102 207l-47 -37l-18 32l79 61l83 -168l86 522h469v-39z" />
    <glyph glyph-name="uni223D" unicode="&#x223d;" 
d="M653 126q-31 0 -58 8.5t-39 17.5l-12 8l18 37q42 -30 96 -30q52 0 87 31t43 75.5t-0.5 89t-44.5 77t-89 35.5q-42 2 -74.5 -16.5t-54.5 -50t-41.5 -70l-40 -77t-45 -69.5t-63 -49t-86.5 -15q-57 4 -98.5 34.5t-59.5 73.5t-17.5 92.5t20 91.5t61 69.5t97.5 27.5
q30 0 57 -8.5t39 -16.5l12 -9l-16 -33q-40 28 -96 28q-44 0 -76.5 -22.5t-47 -56.5t-14.5 -73.5t15 -74.5t48 -59.5t79 -27.5q53 -3 93 32.5t67.5 88.5l56.5 106t76 89.5t111 34.5q56 -2 97.5 -31.5t60 -72.5t18.5 -93t-19 -92.5t-61 -71t-99 -28.5z" />
    <glyph glyph-name="proportional" unicode="&#x221d;" 
d="M794 132q-49 -33 -106 -33q-39 0 -73.5 16t-55.5 38.5t-36 44.5t-21 38l-7 16q-4 -10 -12.5 -25.5t-31.5 -49t-62.5 -56t-85.5 -22.5q-60 0 -103.5 30t-63.5 74.5t-20 96.5t20 96.5t63.5 74.5t103.5 30q46 0 86 -24t61 -52.5t33 -52.5l12 -24q4 10 12.5 25.5t32 49t63 56
t85.5 22.5q63 0 105 -33l-21 -31q-32 25 -84 25q-45 0 -81.5 -25.5t-54.5 -55.5t-27 -55l-9 -26q2 -7 5.5 -17.5t17.5 -38.5t31.5 -49.5t49 -39t68.5 -17.5q47 0 83 25zM475 300q-2 7 -6 17.5t-19.5 38.5t-33.5 49.5t-48.5 39t-64.5 17.5q-57 0 -96.5 -33.5t-48.5 -81t0 -95
t48.5 -81t96.5 -33.5q42 0 77.5 25.5t54.5 55.5t30 56z" />
    <glyph glyph-name="uni2235" unicode="&#x2235;" 
d="M745 534q0 -44 -33 -62.5t-66.5 0t-33.5 62.5t33.5 62.5t66.5 0t33 -62.5zM289 534q0 -44 -33 -62.5t-66.5 0t-33.5 62.5t33.5 62.5t66.5 0t33 -62.5zM517 76q0 -44 -33 -62.5t-66.5 0t-33.5 62.5t33.5 62.5t66.5 0t33 -62.5z" />
    <glyph glyph-name="integral" unicode="&#x222b;" 
d="M602 642q-13 -17 -22.5 -16t-24 7.5t-20.5 4.5q-21 -8 -33.5 -52.5t-15.5 -87.5t-4.5 -107.5t-2.5 -76.5q-17 -383 -134 -412q-27 -7 -43 13.5t-3 40.5q10 17 23.5 17t26.5 -7.5t17 -5.5q22 9 34.5 59.5t15.5 96.5t4.5 119.5t1.5 82.5q3 44 5 65t8.5 73t15.5 83.5
t23 69.5t35 59.5t47 27.5q27 6 42 -14.5t4 -39.5z" />
    <glyph glyph-name="uni222C" unicode="&#x222c;" 
d="M479 642q-8 -13 -17.5 -15.5t-17.5 1.5t-17.5 8t-15.5 2q-21 -8 -33.5 -53.5t-15.5 -86t-4.5 -109t-1.5 -75.5q-17 -383 -134 -412q-28 -7 -43.5 13.5t-3.5 40.5q11 17 24.5 17t26 -7.5t16.5 -5.5q22 9 35 59.5t16 96.5t4.5 119.5t1.5 82.5q3 38 3.5 47t5 52t8.5 62
t11.5 57.5t17 59t22 45t29.5 38t37 17.5q27 6 41.5 -14.5t4.5 -39.5zM723 642q-13 -17 -23 -16t-24 7.5t-20 4.5q-22 -8 -34.5 -53.5t-15.5 -86t-4.5 -109t-1.5 -75.5q-2 -31 -3 -49.5t-4.5 -57.5t-8 -66l-11 -64t-16.5 -62.5t-22.5 -51t-30 -41t-38.5 -20.5
q-28 -7 -44 13.5t-3 40.5q11 17 24.5 17t26 -7.5t17.5 -5.5q22 9 34.5 58.5t15 98t4 118.5t2.5 83q23 354 133 378q28 6 43 -14.5t4 -39.5z" />
    <glyph glyph-name="element" unicode="&#x2208;" 
d="M765 31h-374q-87 0 -151.5 40t-93 99.5t-28.5 129.5t29 129.5t93 99.5t151 40h374v-39h-384q-104 0 -161.5 -64.5t-62.5 -146.5h607v-38h-607q5 -83 62.5 -147t161.5 -64h384v-39z" />
    <glyph glyph-name="suchthat" unicode="&#x220b;" 
d="M510 31h-374v39h384q71 0 122.5 33.5t75 79.5t26.5 98h-607v38h607q-2 37 -16.5 73t-41 67.5t-69.5 51t-97 19.5h-384v39h374q87 0 151 -40t93 -99.5t29 -129.5t-28.5 -129.5t-93 -99.5t-151.5 -40z" />
    <glyph glyph-name="reflexsubset" unicode="&#x2286;" 
d="M765 147h-374q-67 0 -121 19.5t-87 52t-51 73.5t-18 84.5t18 84.5t51.5 73.5t87 52t120.5 19.5h374v-37h-385q-62 0 -111 -21t-74 -55t-37 -75t-0.5 -82t37 -75t74.5 -55t111 -21h385v-38zM783 -6h-665v37h665v-37z" />
    <glyph glyph-name="reflexsuperset" unicode="&#x2287;" 
d="M510 147h-374v38h385q62 0 111 21t74.5 55t37 75t0 82t-37 75t-74.5 55t-111 21h-385v37h374q67 0 120.5 -19.5t87 -52t51.5 -73.5t18 -84.5t-18 -84.5t-51 -73.5t-87 -52t-121 -19.5zM783 -6h-665v37h665v-37z" />
    <glyph glyph-name="propersubset" unicode="&#x2282;" 
d="M765 31h-374q-87 0 -151.5 40t-93 99.5t-28.5 129.5t29 129.5t93 99.5t151 40h374v-39h-384q-71 0 -124 -34t-76.5 -85t-23.5 -111t23.5 -111t76 -85t124.5 -34h384v-39z" />
    <glyph glyph-name="propersuperset" unicode="&#x2283;" 
d="M510 31h-374v39h384q72 0 124.5 34t76 85t23.5 111t-23.5 111t-76.5 85t-124 34h-384v39h374q87 0 151 -40t93 -99.5t29 -129.5t-28.5 -129.5t-93 -99.5t-151.5 -40z" />
    <glyph glyph-name="union" unicode="&#x222a;" 
d="M690 236q0 -93 -37.5 -161t-93.5 -98.5t-121 -31t-121 30.5t-93.5 99t-37.5 161v400h36v-410q0 -76 32 -132.5t80 -81.5t104 -25t104 25.5t80 81.5t32 132v410h36v-400z" />
    <glyph glyph-name="intersection" unicode="&#x2229;" 
d="M703 -36h-36v410q0 76 -32 132t-80 81.5t-104.5 25.5t-104.5 -25t-80 -81.5t-32 -132.5v-410h-36v400q0 70 21.5 127t57 92t81 54t93 19t93 -19t81 -54t57 -92t21.5 -127v-400z" />
    <glyph glyph-name="logicaland" unicode="&#x2227;" 
d="M751 -6l-32 -19l-269 587l-269 -587l-31 19l283 615q18 36 35 0z" />
    <glyph glyph-name="logicalor" unicode="&#x2228;" 
d="M751 609l-283 -615q-17 -38 -35 0l-283 615l31 18l269 -587l269 587z" />
    <glyph glyph-name="uniFFE2" unicode="&#xffe2;" 
d="M883 -161h-36v298h-829v38h865v-336z" />
    <glyph glyph-name="arrowdblright" unicode="&#x21d2;" 
d="M901 299l-313 -229l-40 52l101 73h-648v57h728l65 47l-68 49h-725v57h646l-99 71l40 52z" />
    <glyph glyph-name="arrowdblboth" unicode="&#x21d4;" 
d="M901 299l-313 -229l-40 52l101 73h-396l100 -72l-40 -52l-313 229l313 229l40 -52l-100 -72h394l-99 71l40 52zM794 299l-68 49h-552l-67 -48l67 -48h555z" />
    <glyph glyph-name="universal" unicode="&#x2200;" 
d="M275 716l48 -174h254l48 174h182l-242 -800h-231l-242 800h183zM450 83l90 323h-179z" />
    <glyph glyph-name="existential" unicode="&#x2203;" 
d="M702 716v-798h-491v144h310v166h-300v142h300v205h-323v141h504z" />
    <glyph glyph-name="acute" unicode="&#xb4;" 
d="M458 650q-76 -103 -113 -132q12 72 49 171q14 38 34.5 59t35.5 19t24 -14.5t2 -41.5t-32 -61z" />
    <glyph glyph-name="uniFF5E" unicode="&#xff5e;" 
d="M661 770q0 -52 -35 -83t-94 -25q-45 4 -94 32.5t-69 31.5q-29 6 -52.5 -9t-23.5 -43h-50q0 49 37 79.5t91 25.5q43 -4 90.5 -31.5t70.5 -30.5q39 -7 60 8t21 45h48z" />
    <glyph glyph-name="caron" unicode="&#x2c7;" 
d="M633 743l-183 -108l-182 108l27 48l155 -95l156 95z" />
    <glyph glyph-name="breve" unicode="&#x2d8;" 
d="M648 750q-48 -69 -122.5 -93.5t-149 0.5t-123.5 93l40 31q61 -86 158 -86t158 86z" />
    <glyph glyph-name="hungarumlaut" unicode="&#x2dd;" 
d="M548 650q-76 -103 -113 -132q12 72 49 171q14 38 34.5 59t35.5 19t24 -14.5t2 -41.5t-32 -61zM411 650q-74 -101 -112 -132q8 64 48 171q14 38 34.5 59t35.5 19t24 -14.5t2 -41.5t-32 -61z" />
    <glyph glyph-name="ring" unicode="&#x2da;" 
d="M554 650q0 -51 -32.5 -80t-71 -29t-71 29t-32.5 80t32.5 80.5t71 29.5t71 -29.5t32.5 -80.5zM508 650q0 39 -28.5 55t-57.5 0t-29 -55q0 -38 29 -54t57.5 0t28.5 54z" />
    <glyph glyph-name="dotaccent" unicode="&#x2d9;" 
d="M449 559q-37 0 -58 26t-21 57.5t21 57.5t58 26q50 0 70.5 -41.5t0 -83.5t-70.5 -42z" />
    <glyph glyph-name="cedilla" unicode="&#xb8;" horiz-adv-x="450" 
d="M290 12l-130 -137v63l66 74l-66 68v64z" />
    <glyph glyph-name="ogonek" unicode="&#x2db;" horiz-adv-x="450" 
d="M290 -125l-130 137l130 132v-64l-67 -68l67 -74v-63z" />
    <glyph glyph-name="exclamdown" unicode="&#xa1;" 
d="M358 -119l19 612h142l19 -612h-180zM449 550q-100 0 -100 100q0 101 100 101q101 0 101 -101q0 -100 -101 -100z" />
    <glyph glyph-name="questiondown" unicode="&#xbf;" 
d="M438 -135q-103 -2 -169 57t-66 152q0 59 32.5 116t79.5 99q31 28 47 53.5t16 64.5v87h157v-102q0 -107 -88 -184q-78 -74 -78 -127q0 -36 23 -55.5t65 -19.5q28 0 65.5 27.5t69.5 70.5l104 -103q-105 -133 -258 -136zM462 550q-99 0 -99 101t99 101q101 0 101 -101
t-101 -101z" />
    <glyph glyph-name="uni02D0" unicode="&#x2d0;" horiz-adv-x="450" 
d="M313 530l-88 -160l-87 160h175zM313 70h-175l87 160z" />
    <glyph glyph-name="uni222E" unicode="&#x222e;" 
d="M656 519q-32 -15 -52 15q-5 7 -7 21.5t-7 16.5q-8 3 -17 -7.5t-16 -26t-15.5 -40.5t-13 -41l-10.5 -38l-6 -22q55 -32 64 -93t-29 -109t-105 -48q-26 -83 -53 -144q-35 -70 -102 -62q-33 4 -50.5 24t-14.5 42t22 31q31 17 52 -15q5 -7 7 -22t7 -17q33 -12 79 179
q-42 25 -56.5 69.5t-3 85t47 70t83.5 26.5q31 100 52 140q33 68 102 62q32 -4 49.5 -24t14.5 -41.5t-22 -31.5zM496 342q-11 -48 -39 -140q32 3 51 28.5t16 58t-28 53.5zM445 358q-50 -4 -64.5 -56t23.5 -83q28 92 41 139z" />
    <glyph glyph-name="summation" unicode="&#x2211;" 
d="M715 -29h-519q-16 0 -21.5 7.5t-1.5 18t10.5 20t13.5 16.5l239 264l-244 243v86l517 -3v-218h-90v122h-289l230 -229l-209 -232h275v123h89v-218z" />
    <glyph glyph-name="product" unicode="&#x220f;" 
d="M757 530h-135v-556h-90v556h-163v-556h-90v556h-135v96h613v-96z" />
    <glyph glyph-name="currency" unicode="&#xa4;" 
d="M800 -4l-64 -68q-110 117 -111 117q-77 -63 -176 -62.5t-177 62.5l-109 -117l-65 67l30.5 32.5l49.5 52.5l31 32q-57 84 -57 188t58 188l-111 117l65 69l110 -119q78 61 174.5 61t175.5 -61l112 119l64 -69l-113 -118q57 -82 58 -186t-56 -187zM651 299q0 68 -30 118
t-75 72t-97.5 22t-97.5 -22t-75 -72t-30 -118t30 -118t75 -72t97.5 -22t97.5 22t75 72t30 118z" />
    <glyph glyph-name="uni2109" unicode="&#x2109;" 
d="M139 592q0 -64 40 -64t40 64q0 61 -40 61t-40 -61zM34 593q0 69 38 112.5t107 43.5q68 0 106.5 -44t38.5 -112q0 -71 -37.5 -115.5t-107.5 -44.5q-58 0 -101.5 40t-43.5 120zM374 -82v798h467v-145h-285v-171h277v-145h-277v-337h-182z" />
    <glyph glyph-name="perthousand" unicode="&#x2030;" 
d="M786 234q25 -18 34 -48.5t2.5 -62.5t-22 -66.5t-39.5 -60.5t-51 -44.5t-56.5 -19t-54.5 17.5q-29 21 -36.5 58t5 75t35 76t55 61t65 30t63.5 -16zM322 649q34 -25 38.5 -72t-17 -92t-55.5 -84t-75.5 -49t-77.5 14q-29 21 -36.5 58t4.5 74.5t35 75.5t55 61t64.5 30
t64.5 -16zM657 669l-518 -740h-71l517 740h72zM522 234q29 -21 36.5 -58t-5 -74.5t-35 -75.5t-55 -61t-65 -30t-63.5 16q-29 21 -36.5 58t4.5 75t35 76t55.5 61t65 30t63.5 -17zM755 186q-23 17 -56 -2.5t-55 -55.5t-31 -74t17 -57q19 -14 44.5 -3.5t46.5 35.5t37 56
t15.5 58.5t-18.5 42.5zM291 602q-23 17 -56.5 -2.5t-55.5 -55.5t-30 -74t18 -57q23 -17 56 2.5t55 55.5t30.5 74t-17.5 57zM491 187q-23 17 -56 -2.5t-55 -55.5t-31 -74t17 -57q23 -17 56 2.5t55 55.5t31 74t-17 57z" />
    <glyph glyph-name="uni25C1" unicode="&#x25c1;" 
d="M715 -73l-592 374l592 370v-744zM611 124v349l-280 -174z" />
    <glyph glyph-name="uni25C0" unicode="&#x25c0;" 
d="M715 -73l-592 374l592 370v-744z" />
    <glyph glyph-name="uni25B7" unicode="&#x25b7;" 
d="M770 301l-594 -374v744zM561 299l-280 174v-349z" />
    <glyph glyph-name="uni25B6" unicode="&#x25b6;" 
d="M779 301l-594 -374v744z" />
    <glyph glyph-name="uni2664" unicode="&#x2664;" 
d="M743 224q0 -48 -25 -83.5t-60.5 -49t-77 -7.5t-72.5 35q0 -62 7 -98.5t28.5 -57t48.5 -28t78 -12.5l5 -14h-450l5 14q51 5 78.5 12.5t49 28t28.5 57t7 98.5q-31 -29 -72.5 -35t-77 7.5t-60.5 49t-25 83.5q0 57 30 104t83 93q68 58 117 135.5t62 160.5q13 -83 62.5 -160.5
t116.5 -135.5q53 -46 83.5 -92.5t30.5 -104.5zM698 211q0 44 -18 81.5t-34.5 54t-49.5 44.5q-51 45 -92.5 97.5t-53.5 91.5q-10 -38 -51.5 -90.5t-92.5 -98.5l-20 -17.5t-20 -19.5l-19.5 -21.5t-17 -24t-13.5 -28t-9 -33t-3 -38.5q0 -39 21.5 -59.5t53 -21t64.5 9t59 29.5
t33 42q-1 -35 0 -86t-10.5 -107t-35.5 -74l124 4q-24 17 -35.5 72.5t-10.5 106.5t0 86q8 -27 45.5 -49.5t78.5 -29.5t74 12t33 67z" />
    <glyph glyph-name="spade" unicode="&#x2660;" 
d="M743 224q0 -55 -31 -91t-73 -45.5t-84.5 -1.5t-65.5 33q0 -60 10 -97.5t35 -57.5t54.5 -28t81.5 -13l5 -14h-450l5 14q52 5 81.5 13t55 28t35.5 57.5t10 97.5q-23 -25 -65.5 -33t-84.5 1.5t-73 45.5t-31 91q0 100 113 198q154 134 179 295q13 -83 62.5 -159.5
t116.5 -135.5q114 -97 114 -198z" />
    <glyph glyph-name="uni2661" unicode="&#x2661;" 
d="M759 491q1 -111 -121 -265l-46 -56.5t-47.5 -59.5l-37.5 -52.5t-35.5 -61.5t-21.5 -62q-8 32 -21 61.5t-35 62t-37.5 52.5l-47.5 59.5l-46 56.5q-123 155 -122 265q1 67 42 108t93 46t103 -24t71 -89q24 61 76 90t103 22.5t90 -47.5t40 -106zM704 472q0 68 -34 98.5
t-77.5 21.5t-86 -54t-56.5 -112q-16 73 -58 117.5t-85 49.5t-76.5 -26.5t-33.5 -94.5q0 -37 18.5 -79.5t36 -68t48.5 -65.5q16 -21 44.5 -54.5l44 -52.5t33.5 -46.5t28 -52.5q22 45 64.5 100t86.5 106q31 40 48.5 65.5t36 68t18.5 79.5z" />
    <glyph glyph-name="heart" unicode="&#x2665;" 
d="M759 491q0 -113 -121 -265l-46 -56.5t-47.5 -59.5l-37.5 -52.5t-35.5 -61.5t-21.5 -62q-8 32 -21 61.5t-35.5 62l-37 52t-47.5 59.5l-46 56q-122 154 -122 265q0 54 27.5 93t68.5 51t84 5.5t79.5 -45.5t49.5 -100q11 52 39 87.5t62 50t71 12t67.5 -20t50 -52.5t19.5 -80z
" />
    <glyph glyph-name="uni2667" unicode="&#x2667;" 
d="M782 259q0 -57 -31 -98.5t-74 -57t-91.5 -3t-81.5 55.5q0 -91 16.5 -139t50.5 -68t99 -26l5 -14h-450l5 14q65 6 99 25.5t51 68t17 140.5q-42 -57 -109 -61t-117.5 42.5t-50.5 120.5q0 48 31 95t75 66t92 -2q-26 39 -23.5 83t21 81t55.5 61t80 24t79.5 -24.5t56 -61
t19.5 -81.5t-25 -83q48 18 93 1.5t76.5 -62t31.5 -97.5zM735 259q0 46 -30.5 79.5t-69 37t-75.5 -23.5l-43 59q39 32 42 82t-28 87.5t-81 37.5q-49 0 -79.5 -37t-28.5 -86t39 -81l-41 -60q-52 43 -112.5 10t-60.5 -104q0 -58 40.5 -90.5t91 -22t74.5 62.5h64q1 -14 0.5 -37
t-1 -49t-4 -54t-8 -52.5t-14 -43.5t-21.5 -28h124q-12 9 -21.5 28t-14 43.5t-8 52.5t-4 54t-1 49t0.5 37h63q24 -52 74.5 -63t91.5 21.5t41 90.5z" />
    <glyph glyph-name="club" unicode="&#x2663;" 
d="M782 259q0 -65 -39 -107.5t-89 -52.5t-99 5t-68 52q0 -67 11 -111t35 -69.5t56 -37t81 -15.5l5 -14h-450l5 14q67 6 104 25t58.5 69t21.5 140q-19 -37 -68 -52t-99 -5t-88.5 52t-38.5 107q0 48 31 95t75 66t92 -2q-26 39 -23.5 83t21 81t55.5 61t80 24t79.5 -24.5t56 -61
t19.5 -81.5t-25 -83q48 18 93 1.5t76.5 -62t31.5 -97.5z" />
    <glyph glyph-name="uni2299" unicode="&#x2299;" 
d="M818 300q0 -93 -31.5 -168t-83.5 -121.5t-118 -71.5t-134.5 -25t-134.5 25t-118 71t-83.5 121.5t-31.5 168.5t31.5 168t83.5 121.5t118 71.5t134.5 25t134.5 -25t118 -71t83.5 -121.5t31.5 -168.5zM761 300q0 79 -26.5 142.5t-70.5 103t-100 60.5t-114 21t-114 -21.5
t-100 -60.5t-70.5 -102.5t-26.5 -142.5t26.5 -143t70.5 -103t100 -60.5t114 -21.5t114 21t100 60.5t70.5 103.5t26.5 143zM592 299q0 -70 -44 -109.5t-97 -39.5t-97 39.5t-44 109.5q0 48 21 83t52 50.5t68 15.5t68 -15.5t52 -50.5t21 -83z" />
    <glyph glyph-name="uni25C8" unicode="&#x25c8;" 
d="M864 300l-416 -442l-415 441l415 444zM783 299l-335 358l-334 -358l334 -356zM664 299l-216 -229l-215 229l215 228z" />
    <glyph glyph-name="uni25A3" unicode="&#x25a3;" 
d="M783 -54h-665v708h665v-708zM726 5v590h-551v-590h551zM621 119h-341v362h341v-362z" />
    <glyph glyph-name="uni25D0" unicode="&#x25d0;" 
d="M451 -92q-79 0 -145 27t-108.5 72t-72.5 104t-36.5 124t0 130t36.5 124t72.5 104t108.5 72t145 27q88 0 159 -33.5t114.5 -89t67.5 -125.5t24 -143.5t-24 -144t-67.5 -126t-114.5 -89t-159 -33.5zM451 626v-659q97 0 169 49t104 122t32.5 158.5t-32 158.5t-104 122
t-169.5 49z" />
    <glyph glyph-name="uni25D1" unicode="&#x25d1;" 
d="M450 -92q-88 0 -158.5 33.5t-114 89t-67.5 126t-24 144t23.5 143.5t67 125.5t114.5 89t159 33.5q79 0 145 -27t108.5 -72t72.5 -104t36.5 -124t0 -130t-36.5 -124t-72.5 -104t-108.5 -72t-145 -27zM450 -29v658q-74 0 -133.5 -28.5t-96 -74.5t-56.5 -105t-20 -121
t20 -121t56.5 -105t96 -74.5t133.5 -28.5z" />
    <glyph glyph-name="shade" unicode="&#x2592;" 
d="M783 -54h-665v708h665v-708z" />
    <glyph glyph-name="uni25A4" unicode="&#x25a4;" 
d="M783 -54h-665v708h665v-708zM757 541v84h-613v-84h613zM757 427v85h-613v-85h613zM757 315v84h-613v-84h613zM757 201v84h-613v-84h613zM757 88v85h-613v-85h613zM757 -25v84h-613v-84h613z" />
    <glyph glyph-name="uni25A5" unicode="&#x25a5;" 
d="M783 -54h-665v708h665v-708zM756 -26v652h-80v-652h80zM649 -26v652h-79v-652h79zM543 -26v652h-79v-652h79zM437 -26v652h-79v-652h79zM331 -26v652h-79v-652h79zM225 -26v652h-80v-652h80z" />
    <glyph glyph-name="uni25A8" unicode="&#x25a8;" 
d="M783 -54h-665v708h665v-708zM249 626h-105v-110zM370 626h-85l-141 -149v-90zM492 626h-86l-262 -278v-91zM614 626h-86l-384 -407v-92zM739 626h-90l-505 -537v-95zM757 381v92l-469 -499h86zM757 123v90l-225 -239h85zM757 511v95l-595 -632h91zM757 252v91l-347 -369
h85zM757 -26v110l-104 -110h104z" />
    <glyph glyph-name="uni25A7" unicode="&#x25a7;" 
d="M783 -54h-665v708h665v-708zM757 516v110h-104zM757 387v90l-140 149h-85zM757 257v91l-262 278h-85zM757 127v92l-383 407h-86zM757 -6v95l-504 537h-91zM739 -26l-595 632v-95l505 -537h90zM614 -26l-470 499v-92l384 -407h86zM492 -26l-348 369v-91l262 -278h86z
M370 -26l-226 239v-90l141 -149h85zM249 -26l-105 110v-110h105z" />
    <glyph glyph-name="uni25A6" unicode="&#x25a6;" 
d="M783 -54h-665v708h665v-708zM756 541v84h-80v-84h80zM649 541v84h-79v-84h79zM756 427v85h-80v-85h80zM543 541v84h-79v-84h79zM649 427v85h-79v-85h79zM756 315v84h-80v-84h80zM437 541v84h-79v-84h79zM543 427v85h-79v-85h79zM649 315v84h-79v-84h79zM756 201v84h-80
v-84h80zM331 541v84h-79v-84h79zM437 427v85h-79v-85h79zM543 315v84h-79v-84h79zM649 201v84h-79v-84h79zM756 88v85h-80v-85h80zM225 541v84h-80v-84h80zM331 427v85h-79v-85h79zM437 315v84h-79v-84h79zM543 201v84h-79v-84h79zM649 88v85h-79v-85h79zM756 -25v84h-80
v-84h80zM225 427v85h-80v-85h80zM331 315v84h-79v-84h79zM437 201v84h-79v-84h79zM543 88v85h-79v-85h79zM649 -25v84h-79v-84h79zM225 315v84h-80v-84h80zM331 201v84h-79v-84h79zM437 88v85h-79v-85h79zM543 -25v84h-79v-84h79zM225 201v84h-80v-84h80zM331 88v85h-79v-85
h79zM437 -25v84h-79v-84h79zM225 88v85h-80v-85h80zM331 -25v84h-79v-84h79zM225 -25v84h-80v-84h80z" />
    <glyph glyph-name="uni25A9" unicode="&#x25a9;" 
d="M783 -54h-665v708h665v-708zM739 626h-91l45 -49zM757 511v95l-45 -47zM738 492l-45 48l-43 -45l45 -48zM675 557l-45 48l-42 -44l44 -48zM614 626h-87l43 -46zM757 381v92l-43 -46zM678 427l-45 48l-43 -46l45 -48zM738 363l-43 45l-42 -45l42 -45zM552 561l-42 45
l-43 -45l42 -46zM615 494l-45 48l-42 -46l45 -48zM492 626h-87l43 -46zM757 252v91l-43 -45zM492 497l-44 45l-43 -45l43 -47zM617 363l-45 48l-42 -46l44 -47zM677 298l-42 45l-43 -46l43 -45zM738 233l-42 46l-43 -46l42 -46zM431 561l-42 45l-44 -45l43 -46zM554 428
l-44 49l-43 -46l45 -48zM370 626h-86l43 -46zM757 123v90l-43 -44zM557 298l-45 48l-44 -46l45 -48zM617 233l-42 46l-43 -46l42 -46zM310 561l-43 45l-43 -46l42 -45zM370 497l-43 45l-43 -46l43 -46zM431 431l-43 45l-44 -45l44 -46zM493 365l-45 48l-43 -47l45 -48z
M677 168l-42 45l-44 -44l44 -46zM738 103l-42 46l-43 -47l42 -44zM757 -6v90l-43 -45zM249 626h-87l43 -47zM187 561l-43 45v-90zM739 -26l-43 46l-44 -46h87zM433 300l-45 48l-43 -46l45 -47zM496 234l-46 48l-43 -47l46 -48zM557 169l-43 44l-43 -44l42 -45zM617 104
l-42 46l-43 -47l43 -45zM678 39l-43 45l-43 -46l44 -44zM248 496l-42 46l-43 -45l43 -47zM310 431l-44 46l-42 -46l42 -46zM369 366l-42 47l-43 -46l43 -46zM187 431l-43 46v-90zM617 -26l-42 45l-43 -45h85zM310 303l-44 45l-42 -46l42 -45zM372 235l-45 47l-43 -45l45 -48
zM435 169l-46 48l-42 -45l45 -49zM495 103l-43 47l-42 -47l42 -45zM248 366l-42 47l-43 -46l43 -46zM556 39l-43 45l-43 -45l43 -45zM187 302l-43 46v-91zM495 -26l-42 45l-44 -45h86zM374 104l-45 47l-42 -45l44 -48zM248 237l-42 45l-43 -45l43 -44zM311 171l-45 48
l-42 -46l45 -48zM434 38l-42 47l-43 -46l43 -45zM187 173l-43 46v-92zM374 -26l-42 45l-44 -45h86zM251 105l-45 48l-43 -45l45 -48zM314 39l-46 48l-43 -44l45 -49zM189 41l-45 48v-95zM253 -26l-46 48l-45 -48h91z" />
    <glyph glyph-name="uni2668" unicode="&#x2668;" 
d="M622 287q5 -62 -44 -141q-15 -23 -19 -42.5t-11 -20.5q-8 -1 -12.5 27.5t6.5 64.5q8 21 13 48t3 66t-15 71q-38 96 18 217q6 13 9 36.5t7 24.5t8.5 -7.5t7 -24.5t0.5 -44.5t-9 -61.5q-6 -31 14.5 -107.5t23.5 -105.5zM507 307q5 -35 -10.5 -83t-33.5 -76q-16 -27 -23 -49
t-13 -24q-5 -2 -8.5 7.5t-5.5 24.5t1.5 37.5t12.5 43.5q40 97 -3 188q-21 45 -20 87.5t15 69t26 55.5q11 26 12.5 59t6.5 34q13 1 20.5 -48t-7.5 -106q-11 -23 -8.5 -54.5t8 -50l15.5 -52.5t15 -63zM383 287q3 -26 -9.5 -66t-34.5 -76q-9 -14 -14 -27t-5.5 -19.5t-2.5 -10.5
t-7 -5q-8 -1 -13 27.5t7 64.5q8 21 12.5 48t2.5 66t-14 71q-43 104 21 217q8 13 14.5 36.5t9.5 24.5t5.5 -4t3 -16.5t0 -27.5t-4 -39.5t-9.5 -50.5q-7 -31 14.5 -107t23.5 -106zM800 127q0 -58 -52.5 -100.5t-131.5 -61t-170.5 -18.5t-170.5 18.5t-131.5 59t-52.5 95.5
q0 36 21 66t54 48t60.5 28t51.5 15q10 2 12 -6t-11 -13q-17 -6 -40 -16.5t-53 -38.5t-30 -58q0 -57 92 -89t202 -31t202 33t92 88q0 23 -11.5 43.5t-29.5 34t-32 21.5t-28 13q-10 3 -7.5 10.5t11.5 5.5q20 -4 43.5 -14t49.5 -27t43 -45t17 -61z" />
    <glyph glyph-name="uni260F" unicode="&#x260f;" 
d="M814 397q4 -35 -9 -45t-41 -9l-69 3q-26 1 -38.5 12.5t-18.5 48.5q-7 47 -61 62v-47q0 -35 31.5 -62t39.5 -52l67 -205l-10 -73q0 -3 -14 -3h-479q-15 0 -15 3q-10 56 -10 73l67 205q8 25 40 52t32 62v47q-54 -15 -61 -62q-6 -37 -18.5 -48.5t-38.5 -12.5l-70 -3
q-18 -1 -28.5 1.5t-17.5 15.5t-4 37q7 63 27.5 93.5t69.5 44.5q266 79 532 0q48 -14 68.5 -44.5t28.5 -93.5zM514 482q-63 8 -127 0l8 -45q56 6 111 0zM785 416q-6 45 -30 66.5t-77 37.5q-98 28 -226.5 28t-226.5 -28q-53 -16 -77.5 -37.5t-30.5 -66.5q-5 -30 0.5 -40
t26.5 -10l56 2q19 1 26.5 11.5t14.5 45.5q10 58 107 74q103 20 207 0q97 -16 107 -74q6 -35 14 -45.5t27 -11.5l56 -2q21 0 26 9.5t0 40.5zM690 97l-62 190q-8 28 -22.5 44t-26.5 21.5t-20.5 23t-8.5 50.5v50q-2 0 -6 0.5t-6 0.5l-11 -64q-84 7 -153 -1l-10 66l-11 -2v-50
q0 -33 -9 -51t-20.5 -23.5t-26 -21.5t-23.5 -43l-61 -190l7 -42h463zM561 253q0 -56 -34.5 -88.5t-76 -32.5t-76 32.5t-34.5 90.5q0 54 34.5 84.5t76 30.5t76 -31t34.5 -86zM537 253q0 43 -27 67.5t-60 24t-60 -24.5t-27 -65q0 -45 27 -71t60 -26t60 25t27 70z" />
    <glyph glyph-name="uni260E" unicode="&#x260e;" 
d="M816 378q0 -22 -13 -29t-39 -6l-69 3q-48 2 -54 44q33 -12 87 -16.5t88 4.5zM814 397q-69 -21 -176 10q-1 22 -19.5 39.5t-41.5 22.5v-47q0 -21 9 -37t20.5 -24.5t24 -22t17.5 -30.5l67 -205l-10 -75q0 -3 -14 -3h-479q-15 0 -15 3q-10 58 -10 75l67 205q6 20 39 50.5
t33 63.5v47q-23 -5 -41.5 -22.5t-19.5 -39.5q-105 -31 -177 -10q7 67 24 95t73 45q122 37 266.5 37t265.5 -37q56 -17 73 -44.5t24 -95.5zM262 390q-6 -42 -54 -44l-70 -3q-26 -1 -39 6t-13 29q34 -9 88.5 -4.5t87.5 16.5zM538 476q-82 8 -176 -1l12 -69q69 5 76.5 5
t76.5 -4zM561 253q0 55 -34.5 86t-76 31t-76 -30.5t-34.5 -84.5q0 -58 34.5 -90.5t76 -32.5t76 32.5t34.5 88.5z" />
    <glyph glyph-name="uni261C" unicode="&#x261c;" 
d="M796 126h-116v45q-48 0 -72 -12q-48 -24 -97.5 -28t-89.5 1q-15 -23 -55 -23q-35 0 -72.5 18.5t-37.5 51.5q0 25 21 38q-14 14 -6.5 37.5t27.5 31.5q-11 13 -8 27.5t13 26.5l-129 5q-21 1 -31 2t-31.5 6t-32.5 17.5t-11 32.5q0 47 106 47q169 4 259 3q20 15 44 15
q41 0 91.5 -24t81.5 -44q14 -7 30 -7v40h116v-307zM739 152v255h-35v-255h35zM680 194v175q-25 0 -31 3q-16 7 -51.5 28t-63.5 33t-52 12q-30 0 -55 -28l-43 -46q-14 -14 -20 -26.5t0.5 -22t31.5 -9.5q24 0 57 29l39 34l10 -12l-37 -45q18 -11 33 -35q117 5 136 10
q6 -9 6 -13q-75 -14 -139 -20q-5 -17 -9 -25t-12.5 -15t-24.5 -10q0 -39 -29 -44v-15q112 -6 177 28q25 14 77 14zM479 266q0 11 -13.5 25t-24.5 14q-1 0 -17 -5.5t-30 -5.5q-40 0 -66 36q-13 -9 -13 -21q0 -25 48 -44q60 -30 84 -30q13 0 22.5 8.5t9.5 22.5zM413 431
q-44 0 -238 -2q-83 0 -83 -27q0 -18 16 -26.5t34 -9.5q123 -4 207 -4zM414 222q-37 9 -81 36q-11 10 -25.5 8t-14.5 -21q0 -13 10.5 -24.5t22.5 -15.5q51 -20 82 -20q19 0 23.5 15t-17.5 22zM390 166q-65 11 -96 34q-5 4 -10 -4.5t-4 -19.5q3 -20 34 -35t52 -15t31.5 9t8 19
t-15.5 12z" />
    <glyph glyph-name="uni261E" unicode="&#x261e;" 
d="M104 126h116v45q49 0 72 -12q49 -24 98 -28t89 1q15 -23 56 -23q35 0 72 18.5t37 51.5q0 25 -21 38q14 14 6.5 37.5t-27.5 31.5q11 13 8 27.5t-13 26.5l129 5q21 1 31 2t31.5 6t32.5 17.5t11 32.5q0 47 -106 47q-169 4 -259 3q-20 15 -44 15q-41 0 -91.5 -24t-81.5 -44
q-14 -7 -30 -7v40h-116v-307zM161 152v255h35v-255h-35zM220 194v175q25 0 31 3q16 7 51.5 28t63.5 33t52 12q19 0 29.5 -6t25.5 -22l43 -46q53 -58 -12 -58q-24 0 -57 29l-40 34l-9 -12l37 -45q-18 -11 -33 -35q-117 5 -136 10q-6 -9 -6 -13q74 -14 139 -20q7 -25 15 -35
t31 -15q0 -39 29 -44v-15q-112 -6 -177 28q-24 14 -77 14zM422 266q0 11 13 25t24 14q2 0 18 -5.5t29 -5.5q40 0 66 36q12 -7 12 -21q0 -25 -47 -44q-13 -7 -43.5 -18.5t-40.5 -11.5q-13 0 -22 8.5t-9 22.5zM487 431q44 0 238 -2q83 0 83 -27q0 -18 -16 -26.5t-34 -9.5
q-123 -4 -207 -4zM486 222q37 9 81 36q8 6 16.5 8t16 -3t7.5 -18t-10.5 -24.5t-22.5 -15.5q-51 -20 -82 -20q-19 0 -23.5 15t17.5 22zM510 166q65 11 96 34q6 4 11 -4.5t3 -19.5q-3 -20 -33.5 -35t-51.5 -15q-16 0 -26.5 5.5t-13 13t1.5 14t13 7.5z" />
    <glyph glyph-name="paragraph" unicode="&#xb6;" 
d="M603 -132h-54v825h-90v-825h-54v489q-62 0 -105.5 28t-62 69.5t-18 90t20 90t60.5 69.5t94 28h209v-864z" />
    <glyph glyph-name="dagger" unicode="&#x2020;" 
d="M552 482q-61 21 -75 21q0 -42 28 -81q23 -28 23 -30t-23 -39q-19 -33 -26.5 -127t-8 -206t-1.5 -124q-1 -31 -9.5 -43.5t-17.5 0t-10 43.5q-1 12 -1.5 124t-8 206t-26.5 127q-5 9 -11.5 19.5t-8 12t-1.5 7t1.5 6.5t8 9t11.5 15q27 38 27 80q-15 0 -74 -21q-45 -15 -72 3
t-26.5 45t27 44.5t71.5 3.5q65 -21 75 -21q1 17 -19 89q-9 36 -4 63.5t19 38t30.5 13t30 -12.5t18.5 -38t-5 -64q-18 -74 -18 -88q8 0 20 3.5t29 9l27 8.5q29 11 52 6t32.5 -20t12 -33t-9.5 -33t-32 -20.5t-55 4.5z" />
    <glyph glyph-name="daggerdbl" unicode="&#x2021;" 
d="M551 347q-68 21 -74 21q0 -44 28 -79q5 -6 11 -12.5t7 -9.5t3.5 -5.5t0 -6.5t-3.5 -6.5t-7 -11.5l-11 -16q-20 -33 -27.5 -93.5t-7 -139t-0.5 -91.5q-1 -31 -9.5 -43.5t-17.5 0t-10 43.5q-1 12 -1 91t-7.5 139.5t-26.5 93.5q-5 9 -13 21q-9 13 -9 16.5t9 13.5q8 10 13 17
q27 39 27 78q-8 0 -19.5 -3.5t-28 -9t-26.5 -8.5q-46 -15 -72 3t-25 44.5t27.5 44t69.5 2.5q5 -1 34 -10t40 -9v86q-9 0 -74 -21q-46 -14 -72 3.5t-25 44.5t27.5 44t69.5 1q9 -2 36 -10t38 -8q1 16 -19 86q-9 35 -4.5 62t18.5 37.5t30.5 12.5t30 -12t18 -37t-5.5 -63
q-18 -72 -18 -85q10 0 37.5 8t37.5 10q34 13 59 4t31 -29t1.5 -40t-29.5 -29.5t-62 1.5q-64 20 -74 20v-85q8 0 19.5 3t28 8t27.5 8q42 16 68 -1.5t27.5 -44.5t-24 -45t-71.5 -3z" />
    <glyph glyph-name="arrowupdn" unicode="&#x2195;" 
d="M608 147l-158 -318l-158 318l106 -107v520l-106 -107l158 318l158 -318l-106 107v-520z" />
    <glyph glyph-name="uni2197" unicode="&#x2197;" 
d="M872 751l-143 -423l-3 190l-624 -667l-76 73l624 669h-182z" />
    <glyph glyph-name="uni2199" unicode="&#x2199;" 
d="M877 677l-624 -669h181l-403 -158l143 423l2 -190l625 667z" />
    <glyph glyph-name="uni2196" unicode="&#x2196;" 
d="M870 -76l-76 -73l-625 667l-3 -190l-142 423l403 -158h-182z" />
    <glyph glyph-name="uni2198" unicode="&#x2198;" 
d="M866 -150l-403 158h182l-625 669l76 73l625 -667l3 190z" />
    <glyph glyph-name="uni266D" unicode="&#x266d;" 
d="M555 199q-1 -32 -21 -64.5t-37.5 -49.5t-49.5 -44q-46 -39 -105 -109v732h32v-412q31 36 74.5 42.5t75.5 -19.5t31 -76zM489 188q0 37 -18 52t-39.5 10.5t-39.5 -19t-18 -31.5v-192q8 10 32 37.5l39.5 46.5t29.5 46.5t14 49.5z" />
    <glyph glyph-name="uni2669" unicode="&#x2669;" horiz-adv-x="450" 
d="M344 17q0 -57 -51.5 -97.5t-106.5 -40.5q-51 0 -69 30.5t-5 70t46 67.5q17 15 46 28t60 16.5t50 -13.5v644h30v-705z" />
    <glyph glyph-name="musicalnote" unicode="&#x266a;" 
d="M662 305q0 -106 -67 -223h-13q8 15 17.5 39.5l18 48.5t14 54.5t4.5 58.5q-4 76 -52 138.5t-117 68.5v-480q0 -55 -51.5 -96t-104.5 -41q-50 0 -69.5 29.5t-7 68.5t47.5 69q29 26 75.5 39t80.5 -7v643h29q4 -23 6 -45t12.5 -50.5t28.5 -52.5q13 -17 48 -57t51.5 -62.5
t32.5 -62t16 -80.5z" />
    <glyph glyph-name="uni266C" unicode="&#x266c;" 
d="M738 146q0 -57 -51 -98t-106 -41q-51 0 -69 30.5t-5 70t46 67.5q33 29 75 40t82 -8v217l-354 -81v-285q0 -58 -50 -98.5t-106 -40.5q-51 0 -69 30.5t-5 70t46 67.5q18 16 46 28.5t59 16t51 -13.5v450l410 93v-515zM710 520v39l-354 -82v-38z" />
    <glyph glyph-name="uni327F" unicode="&#x327f;" 
d="M883 368h-98q-21 120 -86 204l-174 -215l186 -299q55 75 65 183h-107v85h213q-8 -232 -124.5 -352t-307.5 -120q-166 0 -285.5 110.5t-148.5 299.5h99q31 -178 146 -266v627h140v-221l179 221h68q-88 72 -198 72q-135 0 -224 -82t-102 -225h107v-84h-213q8 231 125 351.5
t307 120.5q166 0 285.5 -111t147.5 -299zM450 -65q116 0 200 62h-58l-159 264l-32 -37v-227h-139q84 -62 188 -62z" />
    <glyph glyph-name="uni321C" unicode="&#x321c;" 
d="M685 686v-130h-152q30 -118 201 -166l-32 -84q-9 -23 -18.5 -28t-36.5 2q-46 11 -102 46t-96 94q-39 -63 -98.5 -97.5t-104.5 -43.5q-24 -6 -33.5 -1.5t-18.5 27.5l-31 83q173 47 203 168h-153v130h472zM742 238v-134h-215v-217h-156v217h-215v134h586zM10 297
q0 269 122 453h100q-69 -121 -91 -225.5t-22 -227.5t22 -228t91 -226h-100q-122 186 -122 454zM890 297q0 -268 -122 -454h-100q69 121 91 226t22 228t-22 227.5t-91 225.5h100q122 -184 122 -453z" />
    <glyph glyph-name="afii61352" unicode="&#x2116;" 
d="M415 -83h-118l-152 472v-472h-127v799h118l151 -492v492h128v-799zM686 224q0 95 -11 142t-46 47q-34 0 -45 -47t-11 -142t11 -142t45 -47q35 0 46 47t11 142zM629 546q186 0 186 -322q0 -323 -186 -323q-184 0 -184 323q0 322 184 322zM834 -10q25 0 42 -19.5t17 -49.5
q0 -31 -17 -50t-42 -19q-26 0 -43 19t-17 50q0 30 17 49.5t43 19.5z" />
    <glyph glyph-name="uni33C7" unicode="&#x33c7;" 
d="M389 117l64 -119q-28 -44 -79 -70t-103 -27q-123 -2 -190 97t-67 306q0 209 70.5 319.5t183.5 106.5q121 -4 196 -104l-76 -119q-60 80 -127 68q-101 -18 -101 -259q0 -125 25 -193.5t85 -69.5q71 -2 119 64zM686 224q0 95 -11 142t-46 47q-34 0 -45 -47t-11 -142
t11 -142t45 -47q35 0 46 47t11 142zM629 546q186 0 186 -322q0 -323 -186 -323q-184 0 -184 323q0 322 184 322zM834 -10q25 0 42 -19.5t17 -49.5q0 -31 -17 -50t-42 -19q-26 0 -43 19t-17 50q0 30 17 49.5t43 19.5z" />
    <glyph glyph-name="trademark" unicode="&#x2122;" 
d="M825 352h-117v137l-46 -134h-74l-46 135v-138h-117v448h115l85 -276l85 276h115v-448zM48 710v90h357v-90h-112v-358h-132v358h-113z" />
    <glyph glyph-name="uni33C2" unicode="&#x33c2;" 
d="M833 -62q21 0 36 -18t15 -44q0 -27 -15 -45t-36 -18q-23 0 -38 17.5t-15 45.5q0 24 13 42h-88v364v22.5v19t-0.5 16t-1.5 13.5t-2 10.5t-3 7.5t-4.5 4.5t-6.5 1.5q-17 0 -17 -66v-393h-112v373q0 55 -3 70.5t-16 15.5q-8 0 -13 -19t-5 -41v-399h-112v613h103v-22
q22 20 43 20q48 0 75 -52q33 52 76 52q111 0 111 -215v-379q8 3 16 3zM360 -62q21 0 36 -18t15 -44q0 -27 -15 -45t-36 -18q-23 0 -38 17.5t-15 45.5q0 24 13 42h-71l-3 33q-33 -47 -93 -50q-53 -3 -93 47t-40 150q3 132 83 200q23 19 60.5 32.5t69.5 9.5q0 44 -16 66.5
t-36 22.5q-22 0 -55.5 -21.5t-55.5 -61.5l-52 96q48 107 171 107q67 0 112 -46.5t45 -145.5v-421q8 2 14 2zM130 96q0 -27 11 -44t25 -17q38 0 52.5 42t7.5 132q-36 4 -66 -23.5t-30 -89.5z" />
    <glyph glyph-name="uni33D8" unicode="&#x33d8;" 
d="M833 -63q21 0 36 -18t15 -43q0 -27 -15 -45t-36 -18q-23 0 -38 17.5t-15 45.5q0 25 14 42h-89v364v25.5v21t-1 17.5t-2 14t-3 10t-4.5 6t-6.5 2q-18 0 -18 -66v-394h-112v374q0 55 -3 70.5t-16 15.5q-17 0 -17 -60v-400h-113v612h103v-20q24 18 43 18q49 0 75 -50
q31 50 76 50q111 0 111 -213v-381q8 3 16 3zM29 -200v733h110v-13q28 20 66 20q80 0 121 -77t41 -202q0 -122 -42.5 -203.5t-119.5 -81.5q-32 0 -56 15v-191h-120zM198 408q-28 0 -39 -34.5t-11 -105.5q0 -84 11 -119.5t43 -35.5q27 0 37.5 36t10.5 116q0 74 -11.5 108.5
t-40.5 34.5zM351 -63q21 0 36 -18t15 -43q0 -27 -15 -45t-36 -18q-23 0 -38 17.5t-15 45.5q0 25 15.5 43t37.5 18z" />
    <glyph glyph-name="uni2121" unicode="&#x2121;" 
d="M8 576v140h398v-140h-125v-657h-145v657h-128zM516 413q-23 0 -38 -40.5t-15 -106.5h105q0 65 -14.5 106t-37.5 41zM678 135h-204q9 -103 66 -104q64 -2 99 59l50 -101q-25 -49 -71.5 -70t-93.5 -18q-61 3 -105.5 49t-65.5 114.5t-21 148.5q0 332 184 332
q51 0 87.5 -30.5t56 -84.5t28 -120.5t6.5 -147.5q0 -27 -16 -27zM734 -82v806h143v-806h-143z" />
    <glyph glyph-name="uniFF01" unicode="&#xff01;" 
d="M541 730l-19 -612h-142l-19 612h180zM450 61q100 0 100 -100q0 -101 -100 -101q-101 0 -101 101q0 100 101 100z" />
    <glyph glyph-name="uniFF02" unicode="&#xff02;" 
d="M410 510h-96l-32 290h154zM582 510h-96l-23 290h154z" />
    <glyph glyph-name="uniFF03" unicode="&#xff03;" 
d="M736 267l-23 -117h-110l-42 -237h-147l42 237h-96l-42 -237h-147l42 237h-94l23 117h92l29 162h-100l23 117h98l31 175h147l-31 -175h96l31 175h147l-31 -175h106l-23 -117h-104l-29 -162h112zM410 429l-29 -162h96l29 162h-96z" />
    <glyph glyph-name="uniFF04" unicode="&#xff04;" 
d="M401 -176v116q-112 25 -227 112l74 120q87 -74 153 -98v205q-11 4 -31 10q-80 25 -129.5 76.5t-50.5 126.5q-2 93 53.5 152t157.5 65v91h121v-101q100 -21 183 -86l-66 -120q-64 41 -117 63v-171q2 0 6.5 -1.5t6.5 -2.5q215 -73 187 -246q-14 -84 -66.5 -139t-133.5 -65
v-107h-121zM573 145q7 46 -51 83v-158q43 19 51 75zM346 508q0 -42 55 -75v139q-55 -11 -55 -64z" />
    <glyph glyph-name="uniFF05" unicode="&#xff05;" 
d="M209 -93l334 800h149l-334 -800h-149zM229 585q-37 0 -37 -105t37 -105q39 0 39 105t-39 105zM230 719q83 0 123 -62t40 -176t-40 -176t-123 -62q-82 0 -123 62.5t-41 175.5t41 175.5t123 62.5zM669 237q-38 0 -38 -107q0 -103 38 -103q39 0 39 103q0 107 -39 107z
M670 370q82 0 122.5 -62.5t40.5 -176.5q0 -237 -163 -237q-82 0 -123 62t-41 175t41 176t123 63z" />
    <glyph glyph-name="uniFF06" unicode="&#xff06;" 
d="M442 356l124 -155q13 27 22.5 78t9.5 90h144q0 -78 -22.5 -151.5t-53.5 -124.5l145 -181h-189l-50 61q-81 -83 -209 -83q-122 0 -198.5 59t-76.5 179q0 147 144 247q-76 95 -76 171q0 80 56 130t143 50q92 0 147 -48.5t55 -118.5q0 -108 -115 -203zM239 120
q0 -47 33.5 -72.5t80.5 -25.5q81 0 129 60l-156 191q-87 -71 -87 -153zM304 556q0 -49 45 -98q59 48 59 100q0 55 -53 55q-26 0 -38.5 -17.5t-12.5 -39.5z" />
    <glyph glyph-name="uniFF07" unicode="&#xff07;" 
d="M503 510h-108l-26 290h162z" />
    <glyph glyph-name="uniFF08" unicode="&#xff08;" horiz-adv-x="450" 
d="M145 302q0 109 34.5 242.5t105.5 225.5h130q-42 -63 -68.5 -126.5t-37.5 -126.5t-14 -107.5t-3 -107.5t3 -107.5t14 -108t37.5 -127t68.5 -126.5h-130q-71 93 -105.5 224.5t-34.5 244.5z" />
    <glyph glyph-name="uniFF09" unicode="&#xff09;" horiz-adv-x="450" 
d="M303 302q0 -113 -34.5 -244.5t-105.5 -224.5h-130q42 63 68.5 126.5t37.5 127t14 108t3 107.5t-3 107.5t-14 107.5t-37.5 126.5t-68.5 126.5h130q71 -92 105.5 -225.5t34.5 -242.5z" />
    <glyph glyph-name="uniFF0A" unicode="&#xff0a;" 
d="M555 540l105 -128l-110 -85l-97 136l-102 -136l-111 89l109 122l-141 44l44 135l135 -59l-9 142h149l-11 -143l128 57l48 -129z" />
    <glyph glyph-name="uniFF0B" unicode="&#xff0b;" 
d="M378 546h143v-167h151v-124h-151v-173h-143v173h-151v124h151v167z" />
    <glyph glyph-name="uniFF0C" unicode="&#xff0c;" 
d="M547 21q9 -60 -22.5 -126.5t-81.5 -105.5l-73 30q20 19 37 50.5t17 50.5q-29 3 -50.5 27t-22.5 60q-1 37 23 65.5t62 32.5q46 5 75.5 -20t35.5 -64z" />
    <glyph glyph-name="uniFF0D" unicode="&#xff0d;" 
d="M255 253v128h389v-128h-389z" />
    <glyph glyph-name="uniFF0E" unicode="&#xff0e;" 
d="M450 75q40 0 66.5 -26t26.5 -73q0 -50 -26 -74.5t-67 -24.5q-42 0 -68 24.5t-26 74.5q0 46 26.5 72.5t67.5 26.5z" />
    <glyph glyph-name="uniFF0F" unicode="&#xff0f;" 
d="M377 -92h-162l313 818h157z" />
    <glyph glyph-name="uniFF10" unicode="&#xff10;" 
d="M364 314q0 -142 17 -206t67 -64q51 0 69 64.5t18 205.5t-18 205.5t-69 64.5q-50 0 -67 -64t-17 -206zM706 314q0 -214 -63 -313t-195 -99t-193.5 99t-61.5 313q0 215 61.5 314t193.5 99t195 -99t63 -314z" />
    <glyph glyph-name="uniFF11" unicode="&#xff11;" 
d="M686 58v-139h-418v139h131v435q-21 -18 -57.5 -33.5t-64.5 -21.5l-63 120q62 21 125.5 65t89.5 93h150v-658h107z" />
    <glyph glyph-name="uniFF12" unicode="&#xff12;" 
d="M218 -81v52q0 110 168 291q65 68 100 122t35 106q0 47 -18 69.5t-56 21.5q-36 -1 -69.5 -39.5t-49.5 -94.5l-146 69q26 90 97 150.5t174 60.5q118 0 182 -61t64 -177q0 -38 -10 -74t-27.5 -65.5t-40 -59.5t-48 -56.5l-51.5 -55.5q-63 -68 -83 -120h278v-139h-499z" />
    <glyph glyph-name="uniFF13" unicode="&#xff13;" 
d="M687 546q3 -54 -19.5 -108t-56.5 -81q45 -27 72.5 -76t27.5 -111q-1 -141 -87.5 -208.5t-222.5 -57.5q-41 2 -108 22t-105 46l39 144q35 -23 88.5 -40.5t82.5 -19.5q134 -7 134 111q0 51 -39 78t-99 26h-87v146h89q54 0 87.5 24.5t33.5 74.5q0 36 -26 54.5t-71 11.5
q-79 -12 -151 -84l-73 129q96 89 244 100q99 7 170 -39t77 -142z" />
    <glyph glyph-name="uniFF14" unicode="&#xff14;" 
d="M174 198l303 518h171v-487h78v-145h-78v-166h-166v168h-308v112zM351 221h131v240z" />
    <glyph glyph-name="uniFF15" unicode="&#xff15;" 
d="M208 -45l27 145q59 -43 154 -48q71 -4 106 44t26 117q-8 58 -56 82t-106 16q-86 -10 -140 -45l33 450h423v-144h-261l-10 -128q107 19 193 -39.5t94 -179.5q5 -83 -16.5 -147t-62 -102t-92.5 -56.5t-111 -16.5q-124 5 -201 52z" />
    <glyph glyph-name="uniFF16" unicode="&#xff16;" 
d="M542 178q3 61 -17 99t-64 42q-35 4 -66 -17t-33 -53q-5 -84 15 -141.5t71 -57.5q88 0 94 128zM420 545q-34 -45 -38 -108q34 25 94 27q99 2 164 -70t63 -208q-2 -137 -76.5 -211.5t-182.5 -72.5q-250 4 -247 363q2 233 78 351q22 34 54 59.5t79 42t115 9.5t147 -41
l-40 -138q-157 71 -210 -3z" />
    <glyph glyph-name="uniFF17" unicode="&#xff17;" 
d="M197 572v144h506v-122q-78 -82 -137.5 -261.5t-65.5 -414.5h-181q8 218 62.5 386t124.5 268h-309z" />
    <glyph glyph-name="uniFF18" unicode="&#xff18;" 
d="M517 520q0 77 -73 77q-32 0 -51.5 -21t-19.5 -56q0 -65 80 -106q64 41 64 106zM548 130q0 48 -31.5 78t-90.5 53q-33 -18 -53 -49.5t-20 -70.5q0 -50 26.5 -77t72.5 -27q39 0 67.5 25t28.5 68zM715 146q0 -84 -39.5 -141.5t-99.5 -82.5t-134 -25q-50 0 -95 14t-82 41
t-59 73t-22 104q0 61 33.5 117t84.5 92q-96 74 -96 182q0 103 72 156.5t175 53.5q94 0 162.5 -52t68.5 -149q0 -103 -98 -179q56 -34 92.5 -86.5t36.5 -117.5z" />
    <glyph glyph-name="uniFF19" unicode="&#xff19;" 
d="M358 449q-3 -66 21 -106.5t66 -42.5q36 -2 64.5 23.5t30.5 63.5q5 81 -15 137.5t-71 57.5q-42 1 -68 -36t-28 -97zM496 85q33 40 38 96q-41 -30 -99 -30q-101 -1 -171.5 73.5t-70.5 215.5t75 216.5t185 71.5q134 -5 193.5 -92.5t59.5 -252.5q0 -255 -59 -358
q-20 -34 -51 -61t-78 -46.5t-117 -17t-152 32.5l26 147q163 -62 221 5z" />
    <glyph glyph-name="uniFF1A" unicode="&#xff1a;" 
d="M450 231q46 0 71 -26.5t25 -75.5q0 -102 -96 -102q-97 0 -97 102q0 48 25.5 75t71.5 27zM450 606q46 0 71 -26.5t25 -75.5q0 -102 -96 -102q-97 0 -97 102q0 48 25.5 75t71.5 27z" />
    <glyph glyph-name="uniFF1B" unicode="&#xff1b;" 
d="M547 157q9 -60 -22.5 -127t-81.5 -106l-73 31q20 18 37 49.5t17 51.5q-29 3 -50.5 26.5t-22.5 59.5q-1 37 23 65.5t62 32.5q46 6 75.5 -19t35.5 -64zM451 606q46 0 71 -26.5t25 -75.5q0 -102 -96 -102q-97 0 -97 102q0 48 25.5 75t71.5 27z" />
    <glyph glyph-name="uniFF1C" unicode="&#xff1c;" 
d="M643 321v-24l227 -213v-187l-392 365v89l392 357v-182z" />
    <glyph glyph-name="uniFF1D" unicode="&#xff1d;" 
d="M245 359v130h409v-130h-409zM245 134v130h409v-130h-409z" />
    <glyph glyph-name="uniFF1E" unicode="&#xff1e;" 
d="M257 297v24l-227 205v182l392 -357v-89l-392 -365v187z" />
    <glyph glyph-name="uniFF1F" unicode="&#xff1f;" 
d="M461 747q103 2 169 -57t66 -152q0 -59 -32.5 -116t-79.5 -99q-31 -28 -47 -53.5t-16 -64.5v-87h-157v102q0 107 88 184q78 74 78 127q0 36 -23 55.5t-65 19.5q-28 0 -65.5 -27.5t-69.5 -70.5l-104 103q105 133 258 136zM437 62q99 0 99 -101t-99 -101q-101 0 -101 101
t101 101z" />
    <glyph glyph-name="uniFF20" unicode="&#xff20;" 
d="M819 388q0 -150 -76 -241h83q-36 -73 -86 -125.5t-103 -78.5t-98.5 -37t-87.5 -11q-179 0 -278.5 90.5t-99.5 263.5q0 114 52 215.5t149 165.5t217 64q154 0 241 -83.5t87 -222.5zM451 4q103 0 181 63q-37 -15 -67.5 -9t-48.5 18t-27 27q-40 -43 -105 -43
q-70 0 -108 46.5t-38 118.5q0 71 26 136.5t80 109.5t123 44q56 0 82 -26l9 27h103q-23 30 -68.5 52t-98.5 22q-124 0 -208 -104.5t-84 -239.5q0 -242 249 -242zM359 220q0 -45 30 -45q41 0 73.5 69.5t32.5 128.5q0 33 -24 33q-46 0 -79 -63t-33 -123zM694 390q0 56 -20 92
l-98 -282q-12 -33 8 -35q45 -3 77.5 61t32.5 164z" />
    <glyph glyph-name="uniFF21" unicode="&#xff21;" 
d="M624 -82l-48 174h-254l-48 -174h-182l242 800h231l242 -800h-183zM449 551l-90 -323h179z" />
    <glyph glyph-name="uniFF22" unicode="&#xff22;" 
d="M148 -82v798h336q101 0 164 -50t63 -151q0 -100 -66 -159q46 -30 76.5 -84t30.5 -117q0 -98 -62 -167.5t-185 -69.5h-357zM325 56h136q62 0 91 26.5t29 84.5q0 105 -164 105h-92v-216zM325 413h131q39 0 61.5 21.5t22.5 64.5q0 78 -89 78h-126v-164z" />
    <glyph glyph-name="uniFF23" unicode="&#xff23;" 
d="M673 143l84 -125q-107 -114 -260 -116q-168 -2 -261.5 103.5t-93.5 299.5q0 199 92.5 315t250.5 112q154 -3 257 -101l-82 -133q-89 83 -184 78q-70 -4 -112.5 -77t-42.5 -182q0 -119 43 -190t128 -72q99 -2 181 88z" />
    <glyph glyph-name="uniFF24" unicode="&#xff24;" 
d="M333 569v-507h42q96 0 147 69t51 193q0 134 -56 189.5t-184 55.5zM156 716h206q186 0 284 -102t98 -296q0 -190 -98.5 -295t-275.5 -105h-214v798z" />
    <glyph glyph-name="uniFF25" unicode="&#xff25;" 
d="M198 -82v798h491v-144h-310v-166h300v-142h-300v-205h323v-141h-504z" />
    <glyph glyph-name="uniFF26" unicode="&#xff26;" 
d="M206 -82v798h487v-145h-305v-171h297v-145h-297v-337h-182z" />
    <glyph glyph-name="uniFF27" unicode="&#xff27;" 
d="M451 226v139h310v-339q-91 -122 -281 -124q-163 -1 -252 111.5t-89 290.5q0 187 86 307t251 121q81 0 143.5 -26.5t119.5 -84.5l-86 -120q-81 77 -169 77q-79 0 -123 -74.5t-44 -186.5q0 -122 46 -195t137 -73q65 0 92 31v146h-141z" />
    <glyph glyph-name="uniFF28" unicode="&#xff28;" 
d="M555 404v312h177v-798h-177v342h-210v-342h-177v798h177v-312h210z" />
    <glyph glyph-name="uniFF29" unicode="&#xff29;" 
d="M360 -82v798h180v-798h-180z" />
    <glyph glyph-name="uniFF2A" unicode="&#xff2a;" 
d="M382 159v560h182v-563q0 -99 -40.5 -188.5t-113.5 -142.5q-11 -9 -20 -9.5t-26 10.5l-89 56q107 82 107 277z" />
    <glyph glyph-name="uniFF2B" unicode="&#xff2b;" 
d="M138 -82v798h176v-276l224 276h214l-271 -331l280 -467h-200l-207 343l-40 -53v-290h-176z" />
    <glyph glyph-name="uniFF2C" unicode="&#xff2c;" 
d="M207 -82v798h185v-653h301v-145h-486z" />
    <glyph glyph-name="uniFF2D" unicode="&#xff2d;" 
d="M798 -82h-168v368l-131 -364h-98l-131 364v-368h-168v798h153l196 -565l194 565h153v-798z" />
    <glyph glyph-name="uniFF2E" unicode="&#xff2e;" 
d="M740 -82h-150l-257 474v-474h-173v798h150l257 -483v483h173v-798z" />
    <glyph glyph-name="uniFF2F" unicode="&#xff2f;" 
d="M334 316q0 -51 2 -87t8.5 -74.5t18.5 -62t33.5 -38.5t51.5 -15q38 0 62.5 21t35.5 63t15 85t4 108t-4 108.5t-15 85.5t-35.5 63t-62.5 21q-37 0 -61 -21t-35 -63.5t-14.5 -85.5t-3.5 -108zM745 316q0 -213 -73.5 -314t-224.5 -101q-150 0 -221 100.5t-71 314.5t71 315
t221 101q151 0 224.5 -101.5t73.5 -314.5z" />
    <glyph glyph-name="uniFF30" unicode="&#xff30;" 
d="M172 -82v798h287q121 0 194.5 -67.5t73.5 -203.5q0 -134 -78.5 -208t-198.5 -74h-101v-245h-177zM430 574h-81v-271h81q59 0 93 36.5t34 105.5q0 129 -127 129z" />
    <glyph glyph-name="uniFF31" unicode="&#xff31;" 
d="M707 316q0 -141 -33 -233l109 -109l-105 -104l-88 86q-70 -55 -181 -55q-150 0 -221 100.5t-71 314.5t71 315t221 101q151 0 224.5 -101.5t73.5 -314.5zM296 316q0 -51 2 -87t8.5 -74.5t18.5 -62t33.5 -38.5t51.5 -15q38 0 62.5 21t35.5 63t15 85t4 108t-4 108.5
t-15 85.5t-35.5 63t-62.5 21q-37 0 -61 -21t-35 -63.5t-14.5 -85.5t-3.5 -108z" />
    <glyph glyph-name="uniFF32" unicode="&#xff32;" 
d="M156 -82v798h306q120 0 187.5 -55.5t67.5 -173.5q0 -60 -26.5 -110.5t-67.5 -76.5q48 -18 63 -92q4 -16 20.5 -121t37.5 -169h-180q-13 51 -27.5 141t-20.5 112q-18 66 -91 66h-92v-319h-177zM430 577h-97v-196h100q111 0 111 103q0 50 -28 71.5t-86 21.5z" />
    <glyph glyph-name="uniFF33" unicode="&#xff33;" 
d="M729 124q-14 -121 -99 -179.5t-220 -40.5q-56 8 -125 38.5t-117 77.5l86 140q102 -95 181 -102q54 -5 84 13t38 64q6 34 -18.5 63t-67.5 46q-24 10 -95 37q-85 35 -130.5 86t-46.5 138q-1 114 70 175.5t203 55.5q135 -7 251 -101l-77 -137q-105 77 -185 80q-75 3 -79 -63
q-2 -30 27.5 -57t59 -40t68.5 -26q95 -32 149.5 -99.5t42.5 -168.5z" />
    <glyph glyph-name="uniFF34" unicode="&#xff34;" 
d="M160 574v142h579v-142h-197v-656h-182v656h-200z" />
    <glyph glyph-name="uniFF35" unicode="&#xff35;" 
d="M546 202v514h176v-525q0 -136 -68.5 -213t-205.5 -77q-136 0 -203 77t-67 214v524h177v-514q0 -84 20 -121.5t73 -37.5q54 0 76 39t22 120z" />
    <glyph glyph-name="uniFF36" unicode="&#xff36;" 
d="M535 -82h-171l-247 798h191l142 -526l142 526h191z" />
    <glyph glyph-name="uniFF37" unicode="&#xff37;" 
d="M348 -82h-134l-162 798h177l79 -440l83 437h117l84 -436l78 439h177l-162 -798h-134l-102 431z" />
    <glyph glyph-name="uniFF38" unicode="&#xff38;" 
d="M141 -82l214 400l-214 398h191l117 -236l118 236h191l-215 -398l215 -400h-189l-120 238l-119 -238h-189z" />
    <glyph glyph-name="uniFF39" unicode="&#xff39;" 
d="M364 164l-243 552h192l137 -356l135 356h194l-243 -553v-245h-172v246z" />
    <glyph glyph-name="uniFF3A" unicode="&#xff3a;" 
d="M705 605l-308 -546h318v-141h-530v112l307 545h-296v141h509v-111z" />
    <glyph glyph-name="uniFF3B" unicode="&#xff3b;" horiz-adv-x="450" 
d="M147 -164v931h273v-113h-126v-705h126v-113h-273z" />
    <glyph glyph-name="uniFFE6" unicode="&#xffe6;" 
d="M695 -102h-161l-329 838h156z" />
    <glyph glyph-name="uniFF3D" unicode="&#xff3d;" horiz-adv-x="450" 
d="M303 767v-931h-273v113h126v705h-126v113h273z" />
    <glyph glyph-name="uniFF3E" unicode="&#xff3e;" 
d="M511 800l176 -391h-150l-87 214l-87 -214h-150l175 391h123z" />
    <glyph glyph-name="uniFF3F" unicode="&#xff3f;" 
d="M667 43v-125h-435v125h435z" />
    <glyph glyph-name="uniFF40" unicode="&#xff40;" 
d="M513 800l60 -290h-122l-124 290h186z" />
    <glyph glyph-name="uniFF41" unicode="&#xff41;" 
d="M358 87q0 -27 17.5 -44t40.5 -17q73 0 101 40t18 139q-41 0 -78.5 -10t-68 -38t-30.5 -70zM321 291q38 23 99 38t113 13q0 76 -83 76q-38 0 -84 -17.5t-82 -57.5l-84 92q93 119 262 119q101 0 169 -59t68 -161v-420h-141l-3 33q-55 -46 -153 -49q-82 -2 -140.5 47.5
t-57.5 149.5q1 125 117 196z" />
    <glyph glyph-name="uniFF42" unicode="&#xff42;" 
d="M452 395q-94 0 -94 -166q0 -184 96 -184q33 0 54 28t28.5 66.5t7.5 86.5q0 169 -92 169zM479 -94q-91 0 -140 49l-7 -37h-145v806h174v-216q46 28 115 30q63 1 110 -24.5t74 -71.5t40 -101.5t13 -119.5q0 -134 -59 -224.5t-175 -90.5z" />
    <glyph glyph-name="uniFF43" unicode="&#xff43;" 
d="M630 122l80 -110q-45 -60 -110.5 -87t-131.5 -27q-122 0 -200 86t-78 237q0 147 76 235.5t202 90.5q143 2 232 -94l-81 -118q-32 35 -71 52t-71 15q-53 -5 -84 -57t-31 -133q0 -68 32 -118t86 -49q87 2 150 77z" />
    <glyph glyph-name="uniFF44" unicode="&#xff44;" 
d="M448 395q-92 0 -92 -169q0 -48 7.5 -86.5t28.5 -66.5t54 -28q95 0 95 184q0 166 -93 166zM421 -94q-116 0 -175 90.5t-59 224.5q0 86 23.5 156t80 116.5t139.5 44.5q68 -2 108 -30v216h174v-806h-145l-7 37q-49 -49 -139 -49z" />
    <glyph glyph-name="uniFF45" unicode="&#xff45;" 
d="M458 409q-42 0 -66.5 -37.5t-23.5 -104.5h171q1 65 -20.5 103.5t-60.5 38.5zM678 133h-309q3 -42 31.5 -68.5t82.5 -26.5q35 0 81 16.5t77 48.5l61 -106q-37 -48 -106 -74t-132 -26q-131 0 -201 90.5t-70 218.5q0 153 65.5 246.5t201.5 93.5q74 0 126 -33t78 -90
t35.5 -122t5.5 -141q-1 -15 -6 -21t-21 -6z" />
    <glyph glyph-name="uniFF46" unicode="&#xff46;" 
d="M641 527v-143h-134v-466h-175v466h-98v143h98v61q0 89 45.5 132.5t120.5 40.5q100 -5 167 -39l-31 -123q-57 27 -99 25q-28 -2 -28 -52v-45h134z" />
    <glyph glyph-name="uniFF47" unicode="&#xff47;" 
d="M711 546v-492q0 -109 -52.5 -172t-157.5 -64q-51 -1 -79 0t-82.5 12t-111.5 34l35 128q136 -55 219 -41q33 8 47 23.5t14 46.5v36q-39 -30 -114 -30q-115 0 -178 72t-63 192q0 117 64.5 189.5t174.5 72.5q81 0 123 -34v27h161zM447 419q-91 0 -91 -124q0 -135 87 -135
q50 0 72.5 33.5t22.5 104.5q0 121 -91 121z" />
    <glyph glyph-name="uniFF48" unicode="&#xff48;" 
d="M196 -82v806h175v-225q48 31 117 36q108 9 161.5 -53t53.5 -169v-395h-171v373q0 54 -21 81t-60 21q-29 -3 -54.5 -22.5t-25.5 -55.5v-397h-175z" />
    <glyph glyph-name="uniFF49" unicode="&#xff49;" 
d="M362 -82v575h178v-575h-178zM450 757q46 0 74.5 -25t28.5 -76q0 -101 -103 -101q-104 0 -104 101q0 51 29 76t75 25z" />
    <glyph glyph-name="uniFF4A" unicode="&#xff4a;" 
d="M397 144v356h178v-350q0 -213 -121 -312q-15 -12 -23 -14.5t-28 5.5l-91 46q52 47 68.5 113.5t16.5 155.5zM485 759q46 0 74.5 -25t28.5 -75q0 -101 -103 -101t-103 101q0 50 28 75t75 25z" />
    <glyph glyph-name="uniFF4B" unicode="&#xff4b;" 
d="M158 -82v806h175v-388l181 194h226l-237 -241l239 -371h-199l-169 261l-41 -43v-218h-175z" />
    <glyph glyph-name="uniFF4C" unicode="&#xff4c;" 
d="M360 -82v806h179v-806h-179z" />
    <glyph glyph-name="uniFF4D" unicode="&#xff4d;" 
d="M369 -82v369q0 56 -11 78.5t-40 18.5q-45 -9 -45 -88v-378h-170v615h158v-38q33 33 89 40q97 13 141 -63q19 26 56 43.5t70 20.5q93 9 136.5 -50t43.5 -166v-402h-159v370q0 56 -10 78t-38 18q-50 -9 -50 -89v-377h-171z" />
    <glyph glyph-name="uniFF4E" unicode="&#xff4e;" 
d="M199 -82v615h169v-38q48 37 123 42q107 8 158.5 -53.5t51.5 -168.5v-397h-172v375q0 55 -18 81t-57 21q-29 -4 -55 -23.5t-26 -54.5v-399h-174z" />
    <glyph glyph-name="uniFF4F" unicode="&#xff4f;" 
d="M535 222q0 61 -6 99.5t-26 65.5t-55 27q-50 0 -67.5 -49.5t-17.5 -142.5q0 -94 17.5 -142.5t67.5 -48.5q51 0 69 49t18 142zM448 546q70 0 122 -26t80.5 -72.5t42 -102.5t13.5 -123t-13.5 -123t-42 -102.5t-80 -72.5t-122.5 -26q-70 0 -121 26t-79.5 72.5t-41.5 102
t-13 123.5q0 67 13 123t41.5 102.5t79.5 72.5t121 26z" />
    <glyph glyph-name="uniFF50" unicode="&#xff50;" 
d="M451 408q-91 0 -91 -150q0 -167 95 -167q44 0 65.5 46.5t21.5 117.5q0 153 -91 153zM188 -210v743h172v-32q25 19 60.5 31t62.5 12q80 0 133 -41.5t74.5 -105t21.5 -146.5q0 -129 -59 -213t-177 -84q-60 0 -116 27v-191h-172z" />
    <glyph glyph-name="uniFF51" unicode="&#xff51;" 
d="M449 408q-91 0 -91 -153q0 -71 21.5 -117.5t65.5 -46.5q95 0 95 167q0 150 -91 150zM712 533v-743h-172v191q-56 -27 -116 -27q-118 0 -177 84t-59 213q0 127 59.5 210t177.5 83q76 0 125 -43v32h162z" />
    <glyph glyph-name="uniFF52" unicode="&#xff52;" 
d="M264 -82v615h174v-49q27 33 87 50t111 5v-140q-82 2 -138.5 -35t-56.5 -88v-358h-177z" />
    <glyph glyph-name="uniFF53" unicode="&#xff53;" 
d="M689 106q0 -108 -61.5 -161t-176.5 -48q-61 2 -127 27t-114 69l68 128q93 -76 172 -76q76 0 76 50q0 21 -18.5 36t-40 21.5t-53 13.5t-42.5 11q-78 27 -114 75.5t-34 124.5q3 91 68 135.5t166 39.5q121 -6 221 -72l-61 -132q-88 49 -141 54q-70 5 -75 -29q-7 -46 57 -62
q3 -1 8 -2l59.5 -17.5t57 -24t55 -36.5t35 -51.5t15.5 -73.5z" />
    <glyph glyph-name="uniFF54" unicode="&#xff54;" 
d="M642 551v-143h-124v-309q0 -95 113 -33l25 -123q-30 -21 -77 -32.5t-85 -13.5q-72 -4 -111 43t-39 132v336h-101v143h101v175h174v-175h124z" />
    <glyph glyph-name="uniFF55" unicode="&#xff55;" 
d="M204 114v419h174v-405q0 -90 72 -90q33 0 52.5 30t19.5 84v381h174v-615h-144l-5 30q-40 -47 -129 -47q-96 0 -155 56.5t-59 156.5z" />
    <glyph glyph-name="uniFF56" unicode="&#xff56;" 
d="M519 -82h-139l-227 615h186l110 -358l111 358h186z" />
    <glyph glyph-name="uniFF57" unicode="&#xff57;" 
d="M370 -82h-137l-132 615h167l60 -334l65 331h111l66 -333l60 336h168l-134 -615h-137l-79 308z" />
    <glyph glyph-name="uniFF58" unicode="&#xff58;" 
d="M175 -82l179 301l-183 314h188l90 -175l92 175h188l-186 -314l178 -301h-189l-84 162l-84 -162h-189z" />
    <glyph glyph-name="uniFF59" unicode="&#xff59;" 
d="M346 533l102 -310l114 310h175l-280 -743h-175l81 224l-201 519h184z" />
    <glyph glyph-name="uniFF5A" unicode="&#xff5a;" 
d="M671 423l-241 -366h250v-139h-460v111l239 365h-232v139h444v-110z" />
    <glyph glyph-name="uniFF5B" unicode="&#xff5b;" horiz-adv-x="450" 
d="M302 563v-77q0 -27 -1.5 -42.5t-7.5 -36.5t-20.5 -39t-38.5 -35q24 -15 38.5 -34t20.5 -45.5t7.5 -47t1.5 -55.5v-116q0 -52 29.5 -74t88.5 -22v-109h-46q-103 0 -157 59.5t-54 167.5v82q0 32 -0.5 45.5t-5 34t-14 29.5t-27.5 18t-46 14v104q65 12 79 39t14 99v45
q0 91 53.5 149t160.5 58h43v-109q-60 0 -89 -20.5t-29 -81.5z" />
    <glyph glyph-name="uniFF5C" unicode="&#xff5c;" 
d="M379 746h141v-858h-141v858z" />
    <glyph glyph-name="uniFF5D" unicode="&#xff5d;" horiz-adv-x="450" 
d="M148 486v77q0 61 -29 81.5t-89 20.5v109h43q107 0 160.5 -58t53.5 -149v-45q0 -32 1 -46t5 -33t14 -28t27.5 -17.5t45.5 -13.5v-104q-28 -5 -46 -14t-27.5 -18t-14 -29.5t-5 -34t-0.5 -45.5v-82q0 -108 -54 -167.5t-157 -59.5h-46v109q59 0 88.5 22t29.5 74v116
q0 28 0.5 44.5t4.5 39.5t10.5 38t20 31.5t32.5 28.5q-45 32 -56.5 65.5t-11.5 87.5z" />
    <glyph glyph-name="uniFFE3" unicode="&#xffe3;" 
d="M45 672v128h809v-128h-809z" />
    <glyph glyph-name="uni3131" unicode="&#x3131;" 
d="M160 416v149h564q0 -212 -38 -520h-181q23 166 30 371h-375z" />
    <glyph glyph-name="uni3132" unicode="&#x3132;" 
d="M445 415v150h341q0 -241 -37 -511h-178q33 202 33 361h-159zM75 415v150h331q0 -264 -47 -511h-178q43 200 43 361h-149z" />
    <glyph glyph-name="uni3133" unicode="&#x3133;" 
d="M545 461v109h184v-106q0 -165 166 -315l-86 -76q-16 -13 -26.5 -13t-27.5 13q-60 49 -107 127q-23 -43 -54 -80.5t-57 -58.5q-18 -14 -30 -15t-31 13l-87 70q80 74 118 154t38 178zM18 415v150h401q0 -264 -47 -511h-178q43 200 43 361h-219z" />
    <glyph glyph-name="uni3134" unicode="&#x3134;" 
d="M169 53v512h192v-364h387v-148h-579z" />
    <glyph glyph-name="uni3135" unicode="&#x3135;" 
d="M435 418v147h421v-147h-114q1 -79 38 -147.5t115 -147.5l-82 -69q-18 -14 -28 -13.5t-26 14.5q-64 54 -100 121q-45 -83 -102 -136q-16 -14 -29 -15t-33 12l-76 56v-39h-390v511h182v-363h208v-91q131 137 136 307h-120z" />
    <glyph glyph-name="uni3136" unicode="&#x3136;" 
d="M29 54v511h182v-363h208v-148h-390zM440 207q0 87 57 134.5t150 47.5q94 0 151 -47.5t57 -134.5q0 -88 -57 -136t-151 -48q-93 0 -150 48t-57 136zM417 411v129h141q7 29 7 78h169q1 -38 -7 -78h142v-129h-452zM588 207q0 -33 17 -51.5t42 -18.5q24 0 41 19t17 51
t-16.5 50t-41.5 18t-42 -18t-17 -50z" />
    <glyph glyph-name="uni3137" unicode="&#x3137;" 
d="M168 51v514h560v-147h-370v-220h381v-147h-571z" />
    <glyph glyph-name="uni3138" unicode="&#x3138;" 
d="M448 50v42q-68 -27 -168 -39.5t-190 0.5v512h314v-147h-140v-222q106 3 184 36v333h352v-147h-178v-221h193v-147h-367z" />
    <glyph glyph-name="uni3139" unicode="&#x3139;" 
d="M167 37v343h367v59h-367v142h552v-343h-367v-59h391v-142h-576z" />
    <glyph glyph-name="uni313A" unicode="&#x313a;" 
d="M485 439v142h382v-544h-185v402h-197zM32 37v343h247v59h-247v142h422v-343h-247v-59h273v-142h-448z" />
    <glyph glyph-name="uni313B" unicode="&#x313b;" 
d="M472 37v544h395v-544h-395zM630 442v-266h80v266h-80zM32 37v343h225v59h-225v142h400v-343h-225v-59h241v-142h-416z" />
    <glyph glyph-name="uni313C" unicode="&#x313c;" 
d="M472 37v544h158v-142h80v142h157v-544h-395zM32 37v343h225v59h-225v142h400v-343h-225v-59h241v-142h-416zM630 172h80v133h-80v-133z" />
    <glyph glyph-name="uni313D" unicode="&#x313d;" 
d="M32 37v343h228v59h-228v142h403v-343h-228v-59h241v-19q108 134 108 295v126h186v-124q0 -177 155 -326l-82 -70q-15 -13 -26.5 -13.5t-27.5 13.5q-66 59 -102 126q-40 -79 -104 -138q-16 -15 -30 -15.5t-33 13.5l-44 33v-43h-416z" />
    <glyph glyph-name="uni313E" unicode="&#x313e;" 
d="M32 37v343h225v59h-225v142h400v-343h-225v-59h241v-142h-416zM472 37v544h392v-142h-218v-59h218v-142h-218v-59h224v-142h-398z" />
    <glyph glyph-name="uni313F" unicode="&#x313f;" 
d="M458 436v145h428v-145h-37v-126q0 -51 -8 -128h51v-145h-429v145h37v254h-42zM32 37v343h225v59h-225v142h400v-343h-225v-59h236v-142h-411zM691 182q4 65 4 122v132h-41v-254h37z" />
    <glyph glyph-name="uni3140" unicode="&#x3140;" 
d="M32 37v343h225v59h-225v142h400v-343h-225v-59h241v-142h-416zM472 203q0 88 54.5 136t147.5 48t148 -48t55 -136q0 -89 -55 -137.5t-148 -48.5q-92 0 -147 49t-55 137zM452 408v129h130q8 28 8 81h169q2 -43 -8 -81h133v-129h-432zM620 203q0 -33 15 -51.5t39 -18.5
t38.5 18.5t14.5 51.5t-14.5 50.5t-38.5 17.5q-25 0 -39.5 -17.5t-14.5 -50.5z" />
    <glyph glyph-name="uni3141" unicode="&#x3141;" 
d="M167 51v514h565v-514h-565zM345 426v-236h210v236h-210z" />
    <glyph glyph-name="uni3142" unicode="&#x3142;" 
d="M167 51v519h178v-135h210v135h177v-519h-565zM345 190h210v106h-210v-106z" />
    <glyph glyph-name="uni3143" unicode="&#x3143;" 
d="M127 50v520h163v-129h79v129h161v-129h80v129h163v-520h-646zM530 190h80v105h-80v-105zM290 295v-105h79v105h-79z" />
    <glyph glyph-name="uni3144" unicode="&#x3144;" 
d="M555 460v110h184v-108q0 -175 156 -317l-86 -74q-15 -13 -26.5 -13.5t-27.5 13.5q-22 20 -51 54.5t-46 67.5q-36 -74 -100 -134q-29 -28 -63 -2l-53 40v-46h-411v519h159v-134h92v134h160v-413q113 127 113 303zM190 183h92v122h-92v-122z" />
    <glyph glyph-name="uni3145" unicode="&#x3145;" 
d="M353 583h193v-83q0 -232 254 -328l-67 -84q-14 -19 -21.5 -25t-21 -6.5t-37.5 9.5q-51 22 -110 72t-94 107q-31 -61 -98 -115.5t-116 -73.5q-33 -10 -42.5 -6.5t-27.5 26.5l-69 86q126 48 191.5 135.5t65.5 202.5v83z" />
    <glyph glyph-name="uni3146" unicode="&#x3146;" 
d="M685 570v-121q0 -211 152 -314l-75 -79q-16 -15 -28 -15t-31 15q-28 22 -61.5 59t-47.5 64q-39 -64 -113 -117q-18 -12 -27 -12.5t-27 12.5q-76 54 -117 119q-15 -30 -46.5 -66t-60.5 -59q-19 -15 -31.5 -14.5t-27.5 14.5l-77 75q82 61 116.5 138t34.5 180v121h173v-123
q0 -88 11 -133.5t50 -80.5q39 34 49.5 79.5t10.5 134.5v123h173z" />
    <glyph glyph-name="uni3147" unicode="&#x3147;" 
d="M138 309q0 128 79 198t232 70t232.5 -70t79.5 -198t-79 -197.5t-233 -69.5q-153 0 -232 69.5t-79 197.5zM319 309q0 -124 130 -124q131 0 131 124q0 59 -30 91t-101 32q-70 0 -100 -32t-30 -91z" />
    <glyph glyph-name="uni3148" unicode="&#x3148;" 
d="M737 565v-144h-188q24 -184 241 -269l-67 -84q-14 -19 -21.5 -25t-21 -6.5t-37.5 9.5q-47 19 -102 65t-92 102q-33 -61 -94 -109.5t-110 -67.5q-33 -10 -42.5 -6.5t-27.5 26.5l-69 86q218 87 244 279h-188v144h575z" />
    <glyph glyph-name="uni3149" unicode="&#x3149;" 
d="M762 565v-144h-85q0 -100 34 -171.5t113 -125.5l-76 -77q-16 -15 -28 -15t-31 15q-28 21 -58 56t-44 62q-41 -67 -106 -112q-18 -12 -27 -12.5t-27 12.5q-69 49 -110 114q-34 -68 -100 -120q-19 -15 -31.5 -14.5t-27.5 14.5l-79 73q82 61 114.5 130.5t32.5 170.5h-89v144
h625zM452 215q33 35 43 78t10 127v1h-107v-1q0 -83 10.5 -126t43.5 -79z" />
    <glyph glyph-name="uni314A" unicode="&#x314a;" 
d="M353 636h193v-127h191v-144h-179q40 -148 232 -223l-67 -84q-14 -19 -21.5 -25t-21 -6.5t-37.5 9.5q-47 19 -102 65t-92 102q-33 -61 -94 -109.5t-110 -67.5q-33 -10 -42.5 -6.5t-27.5 26.5l-69 86q193 77 235 233h-179v144h191v127z" />
    <glyph glyph-name="uni314B" unicode="&#x314b;" 
d="M160 173v149h139q129 0 253 17q1 13 1.5 38.5t0.5 38.5h-394v149h578q0 -271 -33 -535h-176q11 80 17 162q-114 -19 -248 -19h-138z" />
    <glyph glyph-name="uni314C" unicode="&#x314c;" 
d="M167 37v544h564v-142h-380v-57h380v-142h-380v-61h396v-142h-580z" />
    <glyph glyph-name="uni314D" unicode="&#x314d;" 
d="M759 194v-146h-622v146h76v224h-69v147h616v-147h-69v-49q0 -95 -16 -175h84zM487 194q15 79 15 170v54h-100v-224h85z" />
    <glyph glyph-name="uni314E" unicode="&#x314e;" 
d="M167 191q0 92 71.5 143t210.5 51q138 0 210.5 -51t72.5 -143t-72.5 -144t-210.5 -52t-210 51.5t-72 144.5zM757 548v-144h-615v144h221q6 41 6 91h189q2 -47 -7 -91h206zM351 191q0 -33 25.5 -57t72.5 -24q46 0 72 24t26 57t-26 56t-72 23q-48 0 -73 -23t-25 -56z" />
    <glyph glyph-name="uni314F" unicode="&#x314f;" 
d="M500 747v-303h162v-150h-162v-446h-184v899h184z" />
    <glyph glyph-name="uni3150" unicode="&#x3150;" 
d="M664 747v-899h-164v441h-101v-426h-164v879h164v-293h101v298h164z" />
    <glyph glyph-name="uni3151" unicode="&#x3151;" 
d="M500 747v-149h154v-147h-154v-178h154v-147h-154v-278h-184v899h184z" />
    <glyph glyph-name="uni3152" unicode="&#x3152;" 
d="M664 747v-899h-164v307h-101v-292h-164v879h164v-144h101v149h164zM399 450v-147h101v147h-101z" />
    <glyph glyph-name="uni3153" unicode="&#x3153;" 
d="M206 289v155h172v303h185v-899h-185v441h-172z" />
    <glyph glyph-name="uni3154" unicode="&#x3154;" 
d="M128 289v155h185v298h164v-879h-164v426h-185zM690 747v-899h-164v899h164z" />
    <glyph glyph-name="uni3155" unicode="&#x3155;" 
d="M199 438v150h179v159h185v-899h-185v276h-179v150h179v164h-179z" />
    <glyph glyph-name="uni3156" unicode="&#x3156;" 
d="M157 429v155h160v158h164v-879h-164v246h-160v155h160v165h-160zM690 747v-899h-164v899h164z" />
    <glyph glyph-name="uni3157" unicode="&#x3157;" 
d="M857 61v-149h-815v149h312v287h191v-287h312z" />
    <glyph glyph-name="uni3158" unicode="&#x3158;" 
d="M601 -152v157q-89 -51 -243 -67.5t-333 7.5v150q92 -9 185 -11v273h182v-262q116 17 209 68v584h184v-289h112v-150h-112v-460h-184z" />
    <glyph glyph-name="uni3159" unicode="&#x3159;" 
d="M341 357v-257q84 17 150 45v597h164v-293h41v298h164v-899h-164v441h-41v-426h-164v131q-92 -41 -217.5 -55t-243.5 6v149q72 -12 147 -10v273h164z" />
    <glyph glyph-name="uni315A" unicode="&#x315a;" 
d="M55 -55v150q112 -11 192 -11v273h182v-261q131 19 224 72v579h185v-899h-185v161q-92 -52 -255.5 -69.5t-342.5 5.5z" />
    <glyph glyph-name="uni315B" unicode="&#x315b;" 
d="M680 342v-281h177v-149h-815v149h177v281h181v-281h99v281h181z" />
    <glyph glyph-name="uni315C" unicode="&#x315c;" 
d="M857 328v-149h-310v-316h-195v316h-310v149h815z" />
    <glyph glyph-name="uni315D" unicode="&#x315d;" 
d="M496 0v140h167v607h185v-899h-185v152h-167zM618 363v-152q-88 -28 -205 -37v-302h-184v297q-77 1 -184 13v145q377 -32 573 36z" />
    <glyph glyph-name="uni315E" unicode="&#x315e;" 
d="M374 11v136h127v595h164v-879h-164v148h-127zM857 747v-899h-164v899h164zM473 355v-144q-70 -17 -146 -23v-301h-161v298q-83 3 -141 11v140q282 -24 448 19z" />
    <glyph glyph-name="uni315F" unicode="&#x315f;" 
d="M45 185v145q398 -35 598 49v368h185v-899h-185v377q-77 -35 -216 -48v-305h-184v299q-111 3 -198 14z" />
    <glyph glyph-name="uni3160" unicode="&#x3160;" 
d="M857 318v-149h-157v-306h-185v306h-131v-306h-185v306h-157v149h815z" />
    <glyph glyph-name="uni3161" unicode="&#x3161;" 
d="M857 94v-152h-815v152h815z" />
    <glyph glyph-name="uni3162" unicode="&#x3162;" 
d="M653 -152v181q-92 -52 -255.5 -69.5t-342.5 5.5v150q396 -39 598 73v559h185v-899h-185z" />
    <glyph glyph-name="uni3163" unicode="&#x3163;" 
d="M542 747v-899h-185v899h185z" />
    <glyph glyph-name="uni3165" unicode="&#x3165;" 
d="M40 54v511h182v-363h216v-148h-398zM470 54v511h182v-363h208v-148h-390z" />
    <glyph glyph-name="uni3166" unicode="&#x3166;" 
d="M470 50v515h370v-147h-196v-221h216v-147h-390zM40 54v511h182v-363h216v-148h-398z" />
    <glyph glyph-name="uni3167" unicode="&#x3167;" 
d="M40 54v511h182v-363h196v-51q133 134 133 310v109h184v-106q0 -165 166 -315l-86 -76q-16 -13 -26.5 -13t-27.5 13q-60 49 -107 127q-23 -43 -54 -80.5t-57 -58.5q-18 -14 -30 -15t-31 13l-64 51v-56h-378z" />
    <glyph glyph-name="uni3168" unicode="&#x3168;" 
d="M716 182l-57 186l-57 -186h114zM720 580l178 -526h-471l171 526h122zM40 54v511h182v-363h196v-148h-378z" />
    <glyph glyph-name="uni3169" unicode="&#x3169;" 
d="M656 456v125h144v-123q0 -89 31.5 -187.5t83.5 -172.5l-69 -45q-29 -18 -47 7q-41 58 -68 121q-35 -84 -80 -133q-13 -14 -24 -14.5t-26 10.5l-42 29v-36h-148v402h-102v142h250v-458q97 142 97 333zM9 37v343h149v59h-149v142h279v-343h-149v-59h156v-142h-286z" />
    <glyph glyph-name="uni316A" unicode="&#x316a;" 
d="M484 37v544h378v-142h-204v-260h212v-142h-386zM32 37v343h225v59h-225v142h412v-343h-237v-59h253v-142h-428z" />
    <glyph glyph-name="uni316B" unicode="&#x316b;" 
d="M657 461v120h144v-118q0 -92 30.5 -193.5t83.5 -171.5l-69 -44q-1 -1 -3 -2q-13 -9 -18.5 -9.5t-18.5 11.5q-41 51 -69 124q-25 -70 -73 -120q-13 -14 -24 -14.5t-26 10.5l-19 14v-31h-292v544h124v-142h47v142h121v-409q62 123 62 289zM5 37v343h144v59h-144v142h270
v-343h-144v-59h156v-142h-282zM427 172h47v133h-47v-133z" />
    <glyph glyph-name="uni316C" unicode="&#x316c;" 
d="M32 37v343h225v59h-225v142h400v-343h-225v-59h231v-107l160 511h122l178 -546h-866zM716 165l-57 196l-57 -196h114z" />
    <glyph glyph-name="uni316D" unicode="&#x316d;" 
d="M462 442v139h415v-139h-415zM472 216q0 94 55 145.5t147 51.5q93 0 148 -51.5t55 -145.5t-55 -146.5t-148 -52.5q-92 0 -147 52.5t-55 146.5zM620 216q0 -36 15 -56.5t39 -20.5t38.5 21t14.5 56t-14.5 55.5t-38.5 20.5t-39 -20.5t-15 -55.5zM32 37v343h225v59h-225v142
h400v-343h-225v-59h241v-142h-416z" />
    <glyph glyph-name="uni316E" unicode="&#x316e;" 
d="M32 51v514h405v-514h-405zM468 51v519h159v-134h80v134h160v-519h-399zM195 426v-236h80v236h-80zM627 183h80v122h-80v-122z" />
    <glyph glyph-name="uni316F" unicode="&#x316f;" 
d="M32 51v514h405v-398q114 129 114 294v109h184v-106q0 -165 166 -315l-86 -76q-16 -13 -26.5 -13t-27.5 13q-60 49 -107 127q-24 -44 -55 -83.5t-56 -59.5q-18 -14 -30 -15t-31 13l-45 36v-40h-405zM195 426v-236h80v236h-80z" />
    <glyph glyph-name="uni3170" unicode="&#x3170;" 
d="M32 51v514h405v-483l161 495h122l178 -526h-866zM195 426v-236h80v236h-80zM716 179l-57 186l-57 -186h114z" />
    <glyph glyph-name="uni3171" unicode="&#x3171;" 
d="M141 341v399h618v-399h-618zM330 601v-121h240v121h-240zM128 100q0 101 80 156t241 55q162 0 242 -55t80 -156t-80 -155.5t-242 -54.5q-161 0 -241 54.5t-80 155.5zM313 100q0 -37 29 -57t107 -20t107.5 20t29.5 57q0 38 -29 57t-108 19q-78 0 -107 -19.5t-29 -56.5z
" />
    <glyph glyph-name="uni3172" unicode="&#x3172;" 
d="M32 51v519h164v-134h101v134h165v-519h-430zM499 423v142h368v-515h-185v373h-183zM196 183h101v122h-101v-122z" />
    <glyph glyph-name="uni3173" unicode="&#x3173;" 
d="M31 51v521h164v-134h91v134h165v-521h-420zM485 51v514h355v-147h-181v-220h201v-147h-375zM195 183h91v124h-91v-124z" />
    <glyph glyph-name="uni3174" unicode="&#x3174;" 
d="M421 452v120h155v-118q0 -175 123 -335l-73 -52q-15 -10 -20 -11t-20 11q-46 53 -76 124q-24 -67 -76 -125q-13 -15 -23.5 -15.5t-26.5 10.5l-40 30v-40h-332v521h137v-133h60v133h135v-421q77 122 77 301zM629 426v142h258v-516h-148v374h-110zM149 186h60v119h-60v-119
z" />
    <glyph glyph-name="uni3175" unicode="&#x3175;" 
d="M636 52v39l-35 -24q-1 -1 -3 -2q-13 -9 -18.5 -9.5t-18.5 11.5q-42 52 -68 120q-26 -72 -74 -122q-13 -14 -24 -14.5t-26 10.5l-31 23v-33h-326v521h135v-133h58v133h133v-416q72 121 72 296v120h148v-118q0 -155 78 -288v402h250v-142h-111v-232h117v-142h-256zM147 186
h58v119h-58v-119z" />
    <glyph glyph-name="uni3176" unicode="&#x3176;" 
d="M466 418v147h402v-147h-112q1 -80 35.5 -149t107.5 -142l-78 -69q-17 -13 -27.5 -12t-27.5 15q-20 17 -47 51t-45 66q-12 -29 -40.5 -69t-52.5 -63q-15 -15 -26 -16t-32 13l-86 61v-53h-405v519h161v-134h82v134h162v-464q61 59 94 142.5t37 169.5h-102zM193 183h82v122
h-82v-122z" />
    <glyph glyph-name="uni3177" unicode="&#x3177;" 
d="M32 51v519h164v-134h90v134h165v-519h-419zM486 50v518h368v-139h-194v-49h194v-142h-194v-49h200v-139h-374zM196 183h90v122h-90v-122z" />
    <glyph glyph-name="uni3178" unicode="&#x3178;" 
d="M141 339v411h189v-69h240v69h189v-411h-618zM128 100q0 101 80 156t241 55q162 0 242 -55t80 -156t-80 -155.5t-242 -54.5q-161 0 -241 54.5t-80 155.5zM313 100q0 -37 29 -57t107 -20t107.5 20t29.5 57q0 38 -29 57t-108 19q-78 0 -107 -19.5t-29 -56.5zM330 478h240v64
h-240v-64z" />
    <glyph glyph-name="uni3179" unicode="&#x3179;" 
d="M122 340v410h168v-80h76v80h167v-80h77v80h168v-410h-656zM128 100q0 101 80 156t241 55q162 0 242 -55t80 -156t-80 -155.5t-242 -54.5q-161 0 -241 54.5t-80 155.5zM313 100q0 -37 29 -57t107 -20t107.5 20t29.5 57q0 38 -29 57t-108 19q-78 0 -107 -19.5t-29 -56.5z
M533 475h77v62h-77v-62zM290 537v-62h76v62h-76z" />
    <glyph glyph-name="uni317A" unicode="&#x317a;" 
d="M455 423v142h382v-515h-185v373h-197zM156 452v118h186v-116q0 -176 168 -325l-84 -71q-15 -13 -26.5 -13.5t-28.5 13.5q-75 66 -110 129q-35 -73 -105 -138q-29 -28 -63 -2l-87 66q150 138 150 339z" />
    <glyph glyph-name="uni317B" unicode="&#x317b;" 
d="M146 452v118h186v-116q0 -172 153 -317v428h182v-363h193v-148h-375v74l-79 -68q-15 -13 -26.5 -13.5t-27.5 13.5q-58 52 -103 126q-39 -77 -103 -137q-29 -28 -63 -2l-87 66q150 138 150 339z" />
    <glyph glyph-name="uni317C" unicode="&#x317c;" 
d="M485 50v78l-79 -68q-15 -13 -26.5 -13.5t-27.5 13.5q-58 52 -103 126q-39 -77 -103 -137q-29 -28 -63 -2l-87 66q150 138 150 339v118h186v-116q0 -172 153 -317v428h355v-147h-181v-221h201v-147h-375z" />
    <glyph glyph-name="uni317D" unicode="&#x317d;" 
d="M146 452v118h186v-116q0 -167 146 -310v426h159v-134h70v134h160v-519h-389v71l-72 -62q-15 -13 -26.5 -13.5t-27.5 13.5q-58 52 -103 126q-39 -77 -103 -137q-29 -28 -63 -2l-87 66q150 138 150 339zM637 183h70v122h-70v-122z" />
    <glyph glyph-name="uni317E" unicode="&#x317e;" 
d="M466 418v147h402v-147h-112q1 -80 35.5 -149t107.5 -142l-78 -69q-17 -13 -27.5 -12t-27.5 15q-20 17 -47 51t-45 66q-12 -29 -40.5 -69t-52.5 -63q-15 -15 -26 -16t-32 13l-75 53l-42 -36q-15 -13 -26.5 -13.5t-27.5 13.5q-58 52 -103 126q-39 -77 -103 -137
q-29 -28 -63 -2l-87 66q150 138 150 339v118h186v-116q0 -166 142 -306q87 116 94 270h-102z" />
    <glyph glyph-name="uni317F" unicode="&#x317f;" 
d="M533 182l-87 226l-87 -226h174zM507 615l248 -561h-611l241 561h122z" />
    <glyph glyph-name="uni3180" unicode="&#x3180;" 
d="M16 310q0 125 55 193t153 68t153.5 -68t55.5 -193t-55.5 -193t-153.5 -68t-153 68t-55 193zM167 310q0 -129 57 -129t57 129q0 128 -57 128t-57 -128zM466 310q0 125 55 193t153 68t153.5 -68t55.5 -193t-55.5 -193t-153.5 -68t-153 68t-55 193zM617 310q0 -129 57 -129
t57 129q0 128 -57 128t-57 -128z" />
    <glyph glyph-name="uni3181" unicode="&#x3181;" 
d="M180 259q0 85 46 144t127 81v144h193v-144q81 -23 127 -81.5t46 -143.5q0 -109 -73.5 -174.5t-196.5 -65.5t-196 65t-73 175zM344 259q0 -50 29 -84t76 -34q46 0 75 34t29 84t-28.5 82.5t-75.5 32.5t-76 -32.5t-29 -82.5z" />
    <glyph glyph-name="uni3182" unicode="&#x3182;" 
d="M14 260q0 81 33.5 135t94.5 75v126h173v-129q122 -47 122 -207q0 -107 -57 -165t-155 -58t-154.5 58t-56.5 165zM551 461v109h184v-106q0 -165 166 -315l-86 -76q-16 -13 -26.5 -13t-27.5 13q-61 50 -107 126q-21 -41 -51 -82t-53 -60q-17 -15 -28 -15.5t-30 13.5l-87 67
q146 136 146 339zM165 260q0 -49 15.5 -77t44.5 -28t44.5 28t15.5 77t-15.5 76.5t-44.5 27.5t-44.5 -27.5t-15.5 -76.5z" />
    <glyph glyph-name="uni3183" unicode="&#x3183;" 
d="M14 260q0 81 33.5 135t94.5 75v126h173v-129q122 -47 122 -207q0 -107 -57 -165t-155 -58t-154.5 58t-56.5 165zM720 577l178 -526h-471l171 526h122zM165 260q0 -49 15.5 -77t44.5 -28t44.5 28t15.5 77t-15.5 76.5t-44.5 27.5t-44.5 -27.5t-15.5 -76.5zM716 179l-57 186
l-57 -186h114z" />
    <glyph glyph-name="uni3184" unicode="&#x3184;" 
d="M781 480v-141h-663v141h92v118h-84v142h646v-142h-78v-9q0 -59 -9 -109h96zM128 100q0 101 80 156t241 55q162 0 242 -55t80 -156t-80 -155.5t-242 -54.5q-161 0 -241 54.5t-80 155.5zM313 100q0 -37 29 -57t107 -20t107.5 20t29.5 57q0 38 -29 57t-108 19
q-78 0 -107 -19.5t-29 -56.5zM503 480q9 53 9 104v14h-120v-118h111z" />
    <glyph glyph-name="uni3185" unicode="&#x3185;" 
d="M464 442v139h413v-139h-413zM472 216q0 94 55 145.5t147 51.5q93 0 148 -51.5t55 -145.5t-55 -146.5t-148 -52.5q-92 0 -147 52.5t-55 146.5zM620 216q0 -36 15 -56.5t39 -20.5t38.5 21t14.5 56t-14.5 55.5t-38.5 20.5t-39 -20.5t-15 -55.5zM22 442v139h413v-139h-413z
M32 216q0 94 55 145.5t147 51.5q93 0 148 -51.5t55 -145.5t-55 -146.5t-148 -52.5q-92 0 -147 52.5t-55 146.5zM180 216q0 -36 15 -56.5t39 -20.5t38.5 21t14.5 56t-14.5 55.5t-38.5 20.5t-39 -20.5t-15 -55.5z" />
    <glyph glyph-name="uni3186" unicode="&#x3186;" 
d="M198 183q0 101 68 158.5t183 57.5q116 0 184 -57.5t68 -158.5t-68 -159.5t-184 -58.5q-115 0 -183 58.5t-68 159.5zM363 183q0 -41 24 -68t62 -27t62 27.5t24 67.5t-24 66t-62 26q-39 0 -62.5 -26t-23.5 -66zM738 595v-147h-576v147h576z" />
    <glyph glyph-name="uni3187" unicode="&#x3187;" 
d="M601 -152v157q-89 -51 -243 -67.5t-333 7.5v150q32 -3 92 -7v269h165v-272q38 2 56 4v268h165v-237q49 17 98 43v584h184v-159h112v-145h-112v-111h112v-145h-112v-339h-184z" />
    <glyph glyph-name="uni3188" unicode="&#x3188;" 
d="M443 357v-231q25 8 58 23v593h164v-145h41v150h164v-899h-164v339h-41v-324h-164v135q-92 -43 -220.5 -58t-250.5 5v149q38 -6 79 -9v272h144v-270l46 6v264h144zM665 452v-120h41v120h-41z" />
    <glyph glyph-name="uni3189" unicode="&#x3189;" 
d="M653 -152v161q-92 -52 -255.5 -69.5t-342.5 5.5v150q33 -4 101 -8v270h165v-271q40 2 60 4v267h165v-235q61 20 107 46v579h185v-899h-185z" />
    <glyph glyph-name="uni318A" unicode="&#x318a;" 
d="M618 433v-152q-58 -19 -126 -29v-380h-156v367q-18 -1 -54 -1v-366h-156v372q-27 2 -81 8v145q377 -32 573 36zM532 106v130h131v511h185v-899h-185v92h-131v130h131v36h-131z" />
    <glyph glyph-name="uni318B" unicode="&#x318b;" 
d="M411 107v126h90v509h164v-879h-164v82h-90v126h90v36h-90zM473 417v-144q-50 -12 -93 -17v-369h-131v360q-12 -1 -36 -1v-359h-131v365l-57 6v140q282 -24 448 19zM857 747v-899h-164v899h164z" />
    <glyph glyph-name="uni318C" unicode="&#x318c;" 
d="M45 211v145q398 -35 598 49v342h185v-899h-185v403q-46 -20 -101 -31v-348h-166v327q-40 -2 -59 -2v-325h-166v329q-37 2 -106 10z" />
    <glyph glyph-name="uni318D" unicode="&#x318d;" 
d="M450 404q40 0 66.5 -26t26.5 -73q0 -50 -26 -74.5t-67 -24.5q-42 0 -68 24.5t-26 74.5q0 46 26.5 72.5t67.5 26.5z" />
    <glyph glyph-name="uni318E" unicode="&#x318e;" 
d="M712 747v-899h-185v899h185zM290 404q40 0 66.5 -26t26.5 -73q0 -50 -26 -74.5t-67 -24.5q-42 0 -68 24.5t-26 74.5q0 46 26.5 72.5t67.5 26.5z" />
    <glyph glyph-name="uni2170" unicode="&#x2170;" 
d="M512 546h-124v132h124v-132zM512 -74h-124v547h124v-547z" />
    <glyph glyph-name="uni2171" unicode="&#x2171;" 
d="M675 546h-124v132h124v-132zM349 546h-124v132h124v-132zM675 -74h-124v547h124v-547zM349 -74h-124v547h124v-547z" />
    <glyph glyph-name="uni2172" unicode="&#x2172;" 
d="M723 546h-123v132h123v-132zM512 546h-123v132h123v-132zM723 -74h-123v547h123v-547zM300 546h-123v132h123v-132zM512 -74h-123v547h123v-547zM300 -74h-123v547h123v-547z" />
    <glyph glyph-name="uni2173" unicode="&#x2173;" 
d="M272 546h-124v131h124v-131zM772 471l-171 -537h-143l-171 537h135l108 -367l106 367h136zM272 -75h-124v546h124v-546z" />
    <glyph glyph-name="uni2174" unicode="&#x2174;" 
d="M692 470l-172 -537h-142l-171 537h135l107 -368l108 368h135z" />
    <glyph glyph-name="uni2175" unicode="&#x2175;" 
d="M752 546h-125v131h125v-131zM752 -75h-125v546h125v-546zM614 471l-172 -537h-143l-171 537h136l107 -367l107 367h136z" />
    <glyph glyph-name="uni2176" unicode="&#x2176;" 
d="M804 546h-114v131h114v-131zM655 546h-117v131h117v-131zM804 -75h-114v547h114v-547zM655 -75h-117v547h117v-547zM526 472l-150 -538h-143l-148 538h126l95 -362l94 362h126z" />
    <glyph glyph-name="uni2177" unicode="&#x2177;" 
d="M845 546h-106v131h106v-131zM704 546h-106v131h106v-131zM562 546h-106v131h106v-131zM845 -75h-106v547h106v-547zM704 -75h-106v547h106v-547zM562 -75h-106v547h106v-547zM434 472l-124 -538h-141l-123 538h117l76 -368l76 368h119z" />
    <glyph glyph-name="uni2178" unicode="&#x2178;" 
d="M273 544h-124v133h124v-133zM777 -76h-147l-91 152l-91 -152h-147l165 278l-157 267h146l84 -141l85 141h146l-156 -267zM273 -76h-124v546h124v-546z" />
    <glyph glyph-name="uni2179" unicode="&#x2179;" 
d="M703 -68h-146l-106 159l-106 -159h-146l178 274l-171 261h146l96 -147l97 147h146l-167 -261z" />
    <glyph glyph-name="uni2160" unicode="&#x2160;" 
d="M512 -76h-124v753h124v-753z" />
    <glyph glyph-name="uni2161" unicode="&#x2161;" 
d="M676 -76h-124v753h124v-753zM350 -76h-125v753h125v-753z" />
    <glyph glyph-name="uni2162" unicode="&#x2162;" 
d="M715 -76h-124v753h124v-753zM512 -76h-123v753h123v-753zM310 -76h-124v753h124v-753z" />
    <glyph glyph-name="uni2163" unicode="&#x2163;" 
d="M802 677l-188 -752h-145l-189 752h133l128 -544l128 544h133zM261 -75h-125v752h125v-752z" />
    <glyph glyph-name="uni2164" unicode="&#x2164;" 
d="M775 678l-251 -752h-143l-251 752h138l185 -583l184 583h138z" />
    <glyph glyph-name="uni2165" unicode="&#x2165;" 
d="M777 -75h-125v752h125v-752zM632 677l-188 -752h-145l-188 752h133l128 -544l127 544h133z" />
    <glyph glyph-name="uni2166" unicode="&#x2166;" 
d="M822 -75h-116v752h116v-752zM670 -75h-114v752h114v-752zM535 677l-162 -752h-144l-162 752h133l102 -534l100 534h133z" />
    <glyph glyph-name="uni2167" unicode="&#x2167;" 
d="M866 -75h-107v752h107v-752zM725 -75h-105v752h105v-752zM582 -75h-104v752h104v-752zM451 677l-135 -752h-142l-136 752h114l92 -539l93 539h114z" />
    <glyph glyph-name="uni2168" unicode="&#x2168;" 
d="M811 -84h-140l-139 257q1 1 -69 -128l-71 -129h-139l208 385l-208 383h139q140 -255 140 -256l138 256h139l-207 -383zM217 -84h-126v768h126v-768z" />
    <glyph glyph-name="uni2169" unicode="&#x2169;" 
d="M784 -84h-139l-186 289l-184 -289h-139l253 399l-236 369h140l166 -260l166 260h139l-235 -369z" />
    <glyph glyph-name="Alpha" unicode="&#x391;" 
d="M723 -6q12 0 15 -8.5t-4 -17t-19 -8.5h-196q-20 0 -16 17t24 17q48 0 58.5 8.5t7.5 37.5l-13 141h-248l-82 -136q-22 -34 -16 -42.5t56 -8.5q13 0 16.5 -8.5t-4 -17t-21.5 -8.5h-166q-19 0 -15.5 17t23.5 17q38 0 54 11t45 58l350 572q5 8 11 11.5t10.5 0.5t5.5 -12
l66 -604q3 -25 12.5 -31t45.5 -6zM575 218l-34 304l-186 -304h220z" />
    <glyph glyph-name="Beta" unicode="&#x392;" 
d="M731 471q-17 -68 -70.5 -110.5t-123.5 -51.5q75 -7 119 -48t25 -118q-14 -56 -47.5 -94.5t-81.5 -56.5t-94 -25t-102 -7h-236q-21 0 -16 17t25 17q38 0 54 4t22.5 12.5t12.5 32.5l126 505q10 32 0.5 40.5t-64.5 8.5q-19 0 -15 16t23 16h274q38 0 70 -7.5t60 -24t39 -49
t0 -77.5zM659 460q6 25 6.5 45t-6 34t-14 24.5t-23.5 16.5t-28 10t-34 5t-34.5 1.5t-36.5 0.5h-8q-42 0 -53 -7.5t-19 -40.5l-56 -228h49q98 0 140 18q41 16 73.5 48t43.5 73zM610 136q7 29 7 52.5t-6 39.5t-19.5 27t-29 17.5t-38.5 10.5t-44 5t-50 1h-86l-62 -246
q-9 -35 -2.5 -42t50.5 -7q31 0 49 0.5t48 3t49 8t43 15.5t40 25t30 38t21 52z" />
    <glyph glyph-name="Gamma" unicode="&#x393;" 
d="M763 614l-42 -206q-2 -10 -9.5 -15t-14 -1.5t-5.5 14.5q5 49 6 78.5t-7.5 52.5t-19.5 33.5t-42 17.5t-61 8t-90 1q-46 0 -59.5 -9t-21.5 -45l-120 -482q-12 -45 -2.5 -56t67.5 -11q12 0 15 -8.5t-4 -17t-20 -8.5h-222q-21 0 -16.5 17t24.5 17q55 0 69 10.5t26 56.5
l122 486q10 33 0.5 41.5t-64.5 8.5q-13 0 -16.5 8t4 16t20.5 8h469q9 0 12.5 -3t1.5 -12z" />
    <glyph glyph-name="Delta" unicode="&#x394;" 
d="M665 31q4 -41 -1.5 -56t-28.5 -15h-421q-29 0 -32.5 14t20.5 56l370 605q5 8 11 11.5t10.5 0.5t5.5 -12zM593 40l-52 482l-291 -477q-22 -34 -16 -42.5t56 -8.5h237q42 0 56 9.5t10 36.5z" />
    <glyph glyph-name="Epsilon" unicode="&#x395;" 
d="M753 614l-41 -206q-2 -10 -10 -15t-14 -1.5t-6 14.5q3 30 4 51.5t-1.5 41t-4 32.5t-10.5 24t-15 17.5t-23.5 11.5t-29 7.5t-38.5 4t-46 1.5h-57q-42 0 -53 -7.5t-19 -40.5l-57 -229q36 0 52 0.5t37.5 2t31 7l21.5 12.5t19.5 21l15.5 30t18 43q5 12 13 17t13 0t2 -17
l-66 -263q-4 -13 -11.5 -18t-13 0t-4.5 17q4 30 5 47.5t-5 31.5t-11.5 19.5t-27 9.5t-39.5 4.5t-59 0.5l-60 -242q-9 -35 -2.5 -42t49.5 -7q64 0 96.5 1t69 8t53.5 17t38.5 33.5t35.5 52.5t33 78q5 11 13 15t13.5 -1t3.5 -16l-62 -205q-5 -17 -23 -17h-481q-20 0 -15.5 17
t23.5 17q39 0 55 4t22 12.5t12 32.5l127 505q10 32 0.5 40.5t-63.5 8.5q-13 0 -16 8t4 16t20 8h470q10 0 13 -3t1 -12z" />
    <glyph glyph-name="Zeta" unicode="&#x396;" 
d="M769 605l-538 -611h136q50 0 74.5 1t54.5 7.5t44.5 17t33.5 33t33 53t33 78.5q7 18 20 16.5t9 -18.5l-63 -205q-5 -17 -23 -17h-432q-25 0 -2 25l536 612h-112q-35 0 -54 -0.5t-43 -3.5t-36.5 -7.5t-29 -14.5t-26.5 -23t-23.5 -34t-25 -46.5t-25.5 -61.5q-8 -18 -21 -16
t-8 18l63 206q5 15 22 15h401q23 0 2 -24z" />
    <glyph glyph-name="Eta" unicode="&#x397;" 
d="M838 629q13 0 16.5 -8t-4.5 -16t-21 -8q-55 0 -68.5 -10.5t-25.5 -57.5l-118 -468q-13 -45 -4 -56t64 -11q13 0 17 -8.5t-3.5 -17t-20.5 -8.5h-224q-21 0 -16.5 17t24.5 17q42 0 59 5t24 16.5t15 45.5l57 225h-321l-57 -225q-12 -45 -2.5 -56t67.5 -11q12 0 15 -8.5
t-4 -17t-20 -8.5h-223q-21 0 -16.5 17t25.5 17q55 0 68.5 10.5t25.5 56.5l118 468q13 46 4 57t-64 11q-13 0 -17 8t3.5 16t20.5 8h224q13 0 16 -8t-4 -16t-20 -8q-42 0 -59 -5t-24 -17t-15 -46l-51 -206h320l51 206q13 46 3.5 57t-67.5 11q-12 0 -15.5 8t3.5 16t20 8h224z
" />
    <glyph glyph-name="Theta" unicode="&#x398;" 
d="M371 -54q-71 0 -120.5 30t-72.5 79t-26.5 112t12.5 128t51 128t82.5 112t112.5 79t136 30t120.5 -30t72.5 -79t26.5 -112t-13 -128t-51 -128t-82 -112t-112.5 -79t-136 -30zM537 608q-71 0 -135 -46.5t-105 -116t-62 -151t-15 -151t47 -116t113 -46.5q71 0 135 46.5
t105 116t61.5 151t14.5 151t-46.5 116t-112.5 46.5zM611 355l-27 -109q-3 -14 -5 -21t-6.5 -13t-11.5 -6q-10 0 -12 10t0 22.5t-2.5 22.5t-18.5 10h-147q-14 0 -24 -10t-14 -22t-11 -22t-17 -10q-5 0 -7 2t-1.5 8.5t1.5 11.5t4 17l27 109q8 38 22 38q14 -2 10 -16.5
t-0.5 -31t24.5 -16.5h147q16 0 26.5 10t14.5 22.5t10.5 22.5t15.5 10q12 0 2 -39z" />
    <glyph glyph-name="Iota" unicode="&#x399;" 
d="M654 629q12 0 15 -8t-4.5 -16t-19.5 -8q-58 0 -72.5 -10.5t-26.5 -57.5l-116 -468q-13 -45 -4 -56t67 -11q21 0 16.5 -17t-24.5 -17h-223q-14 0 -17.5 8.5t4.5 17t21 8.5q56 0 69.5 10.5t25.5 56.5l117 468q13 46 4 57t-64 11q-13 0 -16.5 8t4 16t21.5 8h223z" />
    <glyph glyph-name="Kappa" unicode="&#x39a;" 
d="M824 629q12 0 15.5 -8t-3.5 -16t-20 -8q-42 0 -62 -6.5t-48 -30.5l-242 -213l155 -316q12 -23 26 -30t52 -7q18 0 14 -17t-23 -17h-240q-19 0 -15 17t23 17q61 0 75.5 7t3.5 32l-128 264l-137 -121l-29 -115q-14 -45 -4 -56t68 -11q20 0 16 -17t-24 -17h-223
q-14 0 -17.5 8.5t4 17t21.5 8.5q55 0 68.5 10.5t25.5 56.5l118 468q13 46 4 57t-65 11q-13 0 -16.5 8t4 16t21.5 8h223q13 0 16 -8t-4.5 -16t-20.5 -8q-58 0 -71.5 -10.5t-25.5 -57.5l-74 -294l358 315q18 16 24 25t-2 14t-25.5 6.5t-54.5 1.5q-19 0 -14.5 16t22.5 16h231z
" />
    <glyph glyph-name="Lambda" unicode="&#x39b;" 
d="M723 -6q12 0 15 -8.5t-4 -17t-19 -8.5h-196q-20 0 -16 17t24 17q48 0 59 8.5t7 37.5l-52 482l-291 -477q-22 -34 -16 -42.5t56 -8.5q13 0 16.5 -8.5t-4 -17t-21.5 -8.5h-166q-19 0 -15.5 17t23.5 17q38 0 54 11t45 58l350 572q5 8 11 11.5t10.5 0.5t5.5 -12l66 -604
q3 -25 12.5 -31t45.5 -6z" />
    <glyph glyph-name="Mu" unicode="&#x39c;" 
d="M877 629q12 0 15 -8t-4 -16t-19 -8q-56 0 -70.5 -10.5t-26.5 -57.5l-114 -468q-13 -45 -4 -56t66 -11q20 0 16 -17t-23 -17h-220q-21 0 -16.5 17t24.5 17q55 0 68 10.5t24 56.5l130 524l-349 -622q-5 -8 -10.5 -11t-10 0t-5.5 11l-56 624l-129 -526q-13 -45 -4 -56
t62 -11q12 0 15.5 -8.5t-3.5 -17t-20 -8.5h-187q-21 0 -17 17t25 17q50 0 62 10.5t24 56.5l116 468q12 47 4 57.5t-57 10.5q-13 0 -16 8t4 16t20 8h159q7 0 8.5 -3t2.5 -13l46 -518l291 519q11 15 19 15h160z" />
    <glyph glyph-name="Nu" unicode="&#x39d;" 
d="M838 629q13 0 16.5 -8t-4.5 -16t-21 -8q-51 0 -63.5 -10.5t-24.5 -57.5l-144 -571q-4 -13 -14 -13t-16 13l-246 580l-119 -477q-13 -45 -4 -56t64 -11q12 0 15 -8.5t-4 -17t-19 -8.5h-192q-21 0 -16.5 17t25.5 17q50 0 63 10.5t25 56.5l117 468q12 47 4 57.5t-57 10.5
q-13 0 -16 8t4 16t20 8h123q10 0 15 -12l220 -518l109 430q13 46 4 57t-64 11q-12 0 -15 8t4 16t20 8h191z" />
    <glyph glyph-name="Xi" unicode="&#x39e;" 
d="M767 614l-42 -206q-2 -10 -10 -15t-14.5 -1.5t-5.5 14.5q3 28 4 50t1.5 39t-5 29t-8 20.5t-13.5 14l-16 8t-21.5 4t-23.5 1.5h-29h-117h-7q-24 0 -34.5 -0.5t-28.5 -3.5t-27 -9t-23 -17.5t-24.5 -29.5t-23 -44.5t-25.5 -61.5q-7 -18 -21 -16t-9 18l63 206q5 15 21 15h425
q9 0 12.5 -3t1.5 -12zM625 346l-28 -111q-10 -38 -23 -38q-10 0 -12 10t-0.5 22t-3 22t-18.5 10h-187q-14 0 -24 -10t-14.5 -21.5t-11.5 -21.5t-17 -10q-7 0 -8.5 5t0 11.5t5.5 20.5l28 111q8 37 21 37q14 -2 10.5 -16.5t-0.5 -31t24 -16.5h191q16 0 26 10t13.5 22.5
t10.5 22.5t16 10q10 0 2 -38zM695 182l-61 -205q-6 -17 -22 -17h-479q-9 0 -12 3.5t-2 13.5l42 205q2 10 10 15.5t14.5 1.5t5.5 -15q-4 -31 -5.5 -54.5t1 -41t4.5 -29.5t11 -19.5t15 -12t21 -6t24 -2t30 -0.5h9h171h26t22.5 1t22 3t18.5 5.5t19 9.5t16.5 15t18 21t16 28
t18 36.5l18.5 45.5q4 11 12 15t13.5 -1.5t2.5 -15.5z" />
    <glyph glyph-name="Omicron" unicode="&#x39f;" 
d="M348 -54q-71 0 -120.5 30t-72.5 79t-26.5 112t13 128t51.5 128t82.5 112t112.5 79t136 30q70 0 119.5 -30t72.5 -79t26.5 -112t-12.5 -128t-51 -128t-82.5 -112t-112.5 -79t-136 -30zM515 608q-71 0 -135 -46.5t-105.5 -116t-62 -151t-15 -151t46.5 -116t113 -46.5
q71 0 135 46.5t105.5 116t62 151t14.5 151t-46.5 116t-112.5 46.5z" />
    <glyph glyph-name="Pi" unicode="&#x3a0;" 
d="M806 629q13 0 16 -8t-4 -16t-20 -8q-42 0 -59 -5t-24 -17t-15 -46l-118 -468q-12 -45 -2.5 -56t67.5 -11q12 0 15 -8.5t-4.5 -17t-20.5 -8.5h-223q-21 0 -16 17t25 17q55 0 69 10.5t26 56.5l117 468q12 51 -4.5 59.5t-108.5 8.5q-97 0 -115 -7.5t-31 -60.5l-117 -468
q-13 -45 -4 -56t67 -11q21 0 16.5 -17t-24.5 -17h-223q-14 0 -17 8.5t4.5 17t20.5 8.5q56 0 69.5 10.5t25.5 56.5l117 468q13 46 4 57t-64 11q-13 0 -16.5 8t4 16t21.5 8h546z" />
    <glyph glyph-name="Rho" unicode="&#x3a1;" 
d="M475 261q-105 -1 -152 0l-49 -199q-13 -45 -3.5 -56t67.5 -11q13 0 16 -9t-5 -17.5t-22 -8.5h-221q-14 0 -17 8.5t5 17.5t21 9q55 0 68.5 10.5t25.5 56.5l122 486q10 32 0.5 40.5t-64.5 8.5q-12 0 -15 8t4 16t19 8h280q74 0 119.5 -27.5t57.5 -68t-1 -88.5t-46.5 -88.5
t-89.5 -68t-120 -27.5zM546 597h-88q-34 0 -44 -7.5t-17 -40.5l-65 -255h99q63 0 113.5 22.5t77.5 56t37.5 73t1.5 73t-39 56t-76 22.5z" />
    <glyph glyph-name="Sigma" unicode="&#x3a3;" 
d="M765 614l-41 -206q-2 -10 -9.5 -15t-14 -1.5t-5.5 14.5q3 33 4.5 51.5t0 40.5t-2 32.5t-10 24t-15.5 18t-26.5 11t-34 8t-47.5 3.5t-59 2h-75q-48 0 -55 -7.5t6 -40.5l88 -221q5 -10 2.5 -18.5t-17.5 -24.5l-245 -262q-28 -29 19 -29q67 0 104.5 0.5t81 3.5t65 7.5t48 15
t39.5 23t29.5 34t28 45.5t25.5 61q5 11 13 15t13 -1t2 -16l-61 -205q-5 -17 -22 -17h-438q-12 0 -17.5 1t-9 4.5t1.5 13t19 24.5l260 290l-114 299q-9 26 -5 31.5t24 5.5h437q9 0 12 -3t1 -12z" />
    <glyph glyph-name="Tau" unicode="&#x3a4;" 
d="M746 614l-42 -206q-2 -10 -10.5 -15t-15 -1.5t-5.5 14.5q7 55 7 91.5t-5.5 57.5t-21.5 31.5t-33.5 13t-48.5 2.5q-36 0 -46 -6t-17 -32l-126 -503q-14 -45 -4 -56t68 -11q20 0 16 -17t-24 -17h-223q-14 0 -17.5 8.5t4.5 17t21 8.5q40 0 56 5t23 16.5t15 45.5l127 503
q6 26 -1 32t-43 6q-39 0 -60.5 -4.5t-47 -24t-47 -59t-47.5 -108.5q-7 -18 -20 -16t-8 18l61 206q5 15 23 15h478q10 0 13 -3t1 -12z" />
    <glyph glyph-name="Upsilon" unicode="&#x3a5;" 
d="M747 559q-9 -34 -36 -48.5t-47.5 -3t-14.5 40.5q6 26 30 46q-67 -1 -145 -92t-101 -185l-65 -257q-12 -49 -5 -59.5t49 -10.5q13 0 16.5 -8t-4 -16t-20.5 -8h-181q-13 0 -16.5 8t4 16t20.5 8q42 0 53 9.5t23 56.5l63 254q16 64 20.5 111t-4 86t-37.5 59.5t-78 23.5
q-18 1 -22.5 7.5t5 13t24.5 7.5q55 4 93 -10.5t55.5 -42.5t23 -58.5t2.5 -68.5q49 82 115.5 137t128.5 55q30 0 44.5 -20.5t6.5 -50.5z" />
    <glyph glyph-name="Phi" unicode="&#x3a6;" 
d="M423 34q-4 -27 8 -33.5t62 -6.5q21 0 17 -17t-24 -17h-223q-14 0 -17.5 8.5t4 17t20.5 8.5q48 0 63.5 6.5t24.5 32.5q-83 8 -134.5 48t-65.5 95t2.5 118.5t58.5 118.5t113.5 95t157.5 48q4 27 -8 34t-60 7q-13 0 -16.5 8t4 16t21.5 8h223q12 0 15 -8t-4 -16t-19 -8
q-50 0 -66 -7.5t-25 -34.5q81 -8 132 -48t64.5 -95t-2.5 -118t-57 -118t-112 -94.5t-157 -47.5zM546 524l-115 -460q62 7 115 42.5t85 83.5t46.5 104t7 104t-43.5 83.5t-95 42.5zM482 524q-62 -6 -115.5 -41.5t-86.5 -84t-47.5 -104.5t-7 -104.5t43.5 -84t97 -41.5z" />
    <glyph glyph-name="Chi" unicode="&#x3a7;" 
d="M799 629q20 0 15.5 -16t-23.5 -16q-49 0 -64 -6.5t-43 -39.5l-195 -232l92 -258q17 -47 30 -57t60 -10q20 0 16.5 -17t-23.5 -17h-234q-20 0 -16 17t24 17q62 0 72 9.5t-7 57.5l-70 194l-164 -194q-41 -48 -36.5 -57.5t66.5 -9.5q19 0 14.5 -17t-23.5 -17h-207
q-21 0 -17 17t25 17q50 0 69 10t59 57l199 236l-91 254q-11 32 -23.5 39t-60.5 7q-19 0 -14.5 16t23.5 16h224q12 0 15 -8t-4 -16t-20 -8q-54 0 -63.5 -6.5t0.5 -39.5l69 -189l160 189q27 31 21 38.5t-60 7.5q-19 0 -15 16t23 16h197z" />
    <glyph glyph-name="Psi" unicode="&#x3a8;" 
d="M812 562q-22 -19 -35.5 -16t-18 14l-9.5 24t-11 13q-17 1 -27.5 -25.5t-17.5 -69.5l-15 -89.5t-25 -93.5t-42 -74q-67 -73 -203 -83l-26 -101q-14 -45 -4 -56t68 -11q20 0 16 -17t-24 -17h-223q-14 0 -17.5 8.5t4.5 17t21 8.5q40 0 56 5t23 16.5t15 45.5l26 101
q-133 10 -162 83q-9 25 -6 60.5t14.5 75t24.5 78.5l22.5 70t9.5 50t-15 18q-5 0 -16 -13l-21 -24.5t-25.5 -14.5t-29.5 17q-15 18 10.5 45.5t92.5 17.5q26 -4 40 -22.5t17 -41.5q5 -38 -31 -160t-27 -149q17 -53 108 -66l86 343q13 46 4 57t-64 11q-13 0 -16.5 8t4 16
t20.5 8h223q12 0 15.5 -8t-3.5 -16t-20 -8q-58 0 -72 -10.5t-26 -57.5l-87 -343q99 14 143 66q21 26 46 148.5t50 160.5q35 56 90 64q48 7 68.5 -6t17.5 -30t-16 -27z" />
    <glyph glyph-name="Omega" unicode="&#x3a9;" 
d="M480 87l-19 -72h25q32 0 43.5 0.5t34.5 3.5t33.5 10.5t26 21t27.5 35.5t24 54q5 11 12 15.5t11 -0.5t1 -15l-51 -163q-6 -17 -22 -17h-214l36 150q67 8 124 49t90.5 96.5t47 118t3 115.5t-51.5 87.5t-108 34.5t-126 -34.5t-96 -86.5t-55 -114.5t-12.5 -118t41.5 -97
t98 -50.5l-36 -150h-220q-9 0 -12 3.5t-2 13.5l32 163q2 10 8.5 15.5t11 2t3.5 -14.5q-7 -94 32 -116q21 -12 94 -12h31l17 72q-73 9 -116.5 54t-52 106.5t12.5 131.5t66 128.5t121.5 97.5t167.5 39q88 0 144 -38t73.5 -95.5t5.5 -126t-50.5 -130t-105.5 -108.5t-148 -59z
" />
    <glyph glyph-name="alpha" unicode="&#x3b1;" horiz-adv-x="450" 
d="M430 392q12 -7 14 -20t-7 -33.5t-18 -37t-26 -43.5t-25 -41q-11 -19 -22 -40t-19.5 -39.5t-12 -40t-1.5 -41.5q3 -23 18.5 -35t31 -13.5t24.5 -7.5t1 -19q-18 -27 -52.5 -23t-56.5 26q-15 18 -24 50q-5 -9 -23.5 -26t-48 -35t-62.5 -20t-68 18q-33 22 -47 62t-8 84
t23.5 92t48 87t64.5 67.5t73 34t75 -12.5q28 -16 41 -50.5t12 -61.5l-1 -27q37 71 51 103q18 59 45 43zM260 359q-30 12 -67 -15.5t-66 -77t-48.5 -103.5t-17 -100t31.5 -61q36 -19 76 7t68 77.5t46 108.5t12.5 104.5t-35.5 59.5z" />
    <glyph glyph-name="beta" unicode="&#x3b2;" horiz-adv-x="450" 
d="M444 408q-10 -36 -37 -62.5t-49 -34.5l-22 -8q7 -7 17.5 -20t26.5 -53.5t13 -81.5q-5 -69 -33.5 -117.5t-68 -66t-80.5 -15.5t-75 30t-46 74q-12 -64 -21 -132q-7 -59 -17.5 -81.5t-32.5 -15.5q-14 4 -17.5 18.5t1 32.5t7.5 36q1 4 15.5 72.5l30 136t44 174t59.5 202.5
q14 44 36.5 74t48 42.5t54 15.5t53.5 -8.5t47 -30t35.5 -47.5t17.5 -61.5t-7 -72.5zM391 460q5 58 -17.5 94.5t-56 40.5t-70.5 -26.5t-57 -92.5q-33 -105 -63 -233.5t-25 -154.5t24 -47.5t44.5 -33t53.5 -8.5t52 20.5t41 59.5t19 103q1 34 -15 72l-17 38q-32 -2 -53 2
q-23 5 -37.5 17.5t-11.5 24.5q3 13 11 18.5t19.5 4t22 -4.5t24 -8.5t19.5 -6.5q24 -7 55.5 29.5t37.5 91.5z" />
    <glyph glyph-name="gamma" unicode="&#x3b3;" horiz-adv-x="450" 
d="M437 397q8 -7 8.5 -18.5t-3.5 -23t-16.5 -30t-22.5 -31.5l-28.5 -36l-28.5 -36q-54 -69 -70.5 -96.5t-44.5 -88.5q-10 -22 -17 -44t-14.5 -48.5l-11.5 -40.5q-15 -47 -37.5 -68t-48.5 -8q-16 10 -13 41t20 61q77 135 75 143q3 0 7 62.5t-12 133t-60 85.5
q-24 8 -44.5 -3.5t-31 -29.5t-20.5 -31.5t-16 -8.5q-10 9 0.5 41t42.5 60.5t74 24.5q36 -3 60 -32t32.5 -68t11.5 -78t2 -65l-2 -27q32 45 73 112l22 39l20.5 38l18 33t18 27t18 16.5t19 5t20.5 -10.5z" />
    <glyph glyph-name="delta" unicode="&#x3b4;" horiz-adv-x="450" 
d="M428 417q-12 -9 -22.5 -9t-18.5 7t-17.5 21t-17 29t-20 36t-25.5 37q-28 37 -59 45t-44 -18q-6 -11 -6 -24.5t5.5 -28.5t14.5 -31t21 -32.5l25.5 -34.5t28.5 -35l29 -34q34 -33 49 -80t10 -94t-23.5 -93.5t-52 -77.5t-75 -46t-92.5 0q-54 16 -87.5 57.5t-42 92.5
t2.5 105.5t38.5 98t73.5 68t100 17.5q-14 17 -44 60q-48 77 -6 138q23 35 61 37t73 -18.5t63 -52.5q37 -42 58.5 -83t-0.5 -57zM241 356q-56 16 -102 -32.5t-63.5 -118.5t-1 -137.5t70.5 -83.5t99.5 33.5t63 119.5t2 137t-68.5 82z" />
    <glyph glyph-name="epsilon" unicode="&#x3b5;" horiz-adv-x="450" 
d="M407 52q-9 -38 -40.5 -64.5t-72 -37t-85.5 -8t-82 18t-61.5 45.5t-24.5 70q0 47 36.5 79.5t97.5 39.5q-53 6 -86 33.5t-33 73.5q0 51 48.5 82t109 34.5t115.5 -20t66 -69.5q5 -22 -11.5 -35t-36 -4t-21.5 39q-2 26 -33.5 42t-68.5 15.5t-67.5 -23t-30.5 -63.5
q0 -48 40.5 -70t88.5 -20q45 2 45 -16q0 -12 -17 -15.5t-34 -0.5l-18 2q-55 -1 -88 -29.5t-33 -72.5q0 -37 24.5 -63.5t58.5 -34.5t68 -5t56.5 24t20.5 53t18.5 44t39 -2t11.5 -42z" />
    <glyph glyph-name="zeta" unicode="&#x3b6;" horiz-adv-x="450" 
d="M414 546q19 -34 -77 -95q-29 -17 -84 -29l-55 -13q-9 -12 -23.5 -33t-44 -69.5t-43.5 -99.5t-2 -88q9 -31 33.5 -47t53.5 -21.5l58 -11.5t52 -26.5t30 -57.5q10 -57 -38.5 -94t-108.5 -37q-94 0 -94 35q0 17 12.5 24t46.5 4q4 0 20.5 -3.5t32.5 -5t33.5 -0.5t30.5 10
t17 26q4 18 -9.5 29.5t-32 15.5t-47.5 8t-42 8q-52 14 -76.5 54.5t-24.5 88.5q0 49 20.5 105.5t45 97t45.5 67.5l20 27q-4 1 -11.5 5t-23 14.5t-25.5 30t-10 43.5q1 31 26 64t53 48.5t38 3.5q18 -22 -29 -58q-35 -27 -41.5 -61.5t22.5 -38t98 43.5q17 12 38 24t45 21
t43.5 7.5t27.5 -16.5z" />
    <glyph glyph-name="eta" unicode="&#x3b7;" horiz-adv-x="450" 
d="M380 109q-43 -117 -68 -200q-3 -8 -4.5 -13.5t-5.5 -15.5t-7.5 -17t-8.5 -16t-10.5 -14t-11.5 -9t-12.5 -3.5t-13.5 4.5q-18 11 -19.5 28.5t8 37.5l20.5 45q16 34 52.5 127t53.5 148q16 54 11 86.5t-21 53t-42 19.5t-52 -14t-50.5 -47.5t-38.5 -81.5q-5 -16 -14.5 -57.5
t-18.5 -73.5t-21 -65.5t-26.5 -49t-30.5 -9.5q-15 6 -17 24t6.5 42l21 57l25.5 66.5t20.5 73t5.5 73.5q-2 28 -17 41.5t-31 13.5t-25.5 4t-1.5 17q18 27 53 22.5t56 -26.5q17 -18 26 -53q18 35 58 58.5t81.5 23.5t73.5 -27.5t33.5 -94.5t-37.5 -178z" />
    <glyph glyph-name="theta" unicode="&#x3b8;" horiz-adv-x="450" 
d="M136 -46q-58 16 -88 78.5t-30.5 143t21.5 168t60 157t93 107.5t113 21q58 -16 88 -78t30 -142.5t-22 -168t-60 -157.5t-92.5 -107.5t-112.5 -21.5zM336 286h-234q-27 -116 -16.5 -200t58.5 -98q36 -10 70.5 23t59 89.5t40 103.5t22.5 82zM343 318q22 108 11 185.5
t-57 90.5q-31 9 -61.5 -13t-51.5 -59t-38.5 -82t-26 -75.5t-11.5 -46.5h235z" />
    <glyph glyph-name="iota" unicode="&#x3b9;" horiz-adv-x="450" 
d="M317 25q7 -20 -34 -53t-75 -25q-36 7 -55 32t-18.5 48t0.5 39q7 53 62 243q1 4 3 11q6 28 10 40.5t11.5 27.5t18 18.5t25.5 -0.5q45 -10 10 -97q-31 -77 -68 -185q-7 -15 -12 -33.5t-7.5 -34.5t7 -28.5t31.5 -16.5q15 -2 29 1.5t23.5 9l17 10t13 3.5t8.5 -10z" />
    <glyph glyph-name="kappa" unicode="&#x3ba;" horiz-adv-x="450" 
d="M389 301q-15 0 -33.5 11t-33.5 6q-9 -4 -27 -40t-23 -43q-8 -11 -17.5 -20t-17 -13.5l-12.5 -7.5l-5 -3l10 -9q9 -9 19 -26.5t10 -37.5q0 -54 7.5 -74.5t27.5 -22.5q15 -2 28 10.5t20.5 27t17.5 23t20 1.5q14 -9 0 -46.5t-36 -56.5q-48 -43 -97 -27q-33 11 -43 43.5
t-10 83.5q0 31 -10 58.5t-32 27.5h-27q-21 -72 -34 -134q-2 -10 -4.5 -20t-5 -18.5t-5.5 -15.5t-7 -12t-9 -8t-12.5 -2.5t-16.5 3.5q-24 10 -10.5 59.5t45.5 142.5q1 5 10 34l18.5 62.5t15.5 61.5q1 24 12 55t36 28q28 -4 31.5 -23t-12.5 -59q-40 -100 -38 -100h33
q30 0 49.5 21t45.5 72q51 101 118 89q32 -6 44.5 -30.5t0.5 -47t-41 -23.5z" />
    <glyph glyph-name="lambda" unicode="&#x3bb;" horiz-adv-x="450" 
d="M401 -41q-26 -25 -48 8.5t-41 104.5q-16 56 -18 156l-2 100q-125 -200 -155 -297q-13 -44 -35 -68.5t-46 -15.5q-15 5 -16.5 23.5t8 44t20.5 47t24 42.5q26 45 75 115l85 119l36 49q2 3 3 24.5t-5.5 52t-23.5 47.5q-18 18 -44 29.5t-33 16.5q-12 10 -13.5 28.5t9.5 31.5
q10 10 27 12.5t37 -3.5t40 -29.5t32 -61.5q10 -30 14 -60t3.5 -45.5t-2.5 -35.5l-2 -21q-10 -171 27 -256q8 -19 20.5 -44.5t18.5 -39.5t11 -29.5t3.5 -26t-9.5 -18.5z" />
    <glyph glyph-name="mu" unicode="&#x3bc;" horiz-adv-x="450" 
d="M441 19q1 -28 -27 -47.5t-55 -12.5q-18 5 -32 23t-18 33q-49 -56 -105 -60t-107 51q-17 -59 -25 -122q-6 -38 -21.5 -54t-28.5 -7q-32 18 -7 91q10 30 35.5 73t30.5 68l5 28l8.5 58t12.5 69t16 65q3 10 9.5 25.5l21 48t33 47t35.5 2.5q10 -7 10.5 -26t-6.5 -42.5
t-17.5 -50.5t-21.5 -49.5t-18 -40.5q-25 -54 -39 -98l-15 -44q12 -20 34.5 -34t49 -17t54 18t44.5 66q8 19 26.5 96.5t26.5 102.5q7 28 17 54t28 47t36 13q45 -21 -45 -217q-55 -115 -39 -141q11 -19 33.5 -20.5t39.5 14.5q19 18 21 -10z" />
    <glyph glyph-name="nu" unicode="&#x3bd;" horiz-adv-x="450" 
d="M389 399q10 -3 10.5 -35t-7.5 -76t-27.5 -95t-45.5 -86q-25 -34 -60 -64.5t-67.5 -49t-64 -32t-50 -13.5t-25.5 7q-4 9 2 24.5l21.5 54.5t26.5 83q20 78 22.5 121.5t-6.5 67.5q-6 20 -7 24.5t-4 21.5t-1.5 23.5t6.5 15t15 11.5q26 9 42 -30t14 -95q-1 -22 -7.5 -55
t-15 -63.5t-17 -58l-13.5 -43.5l-6 -17q-1 -3 25.5 8.5t67.5 40t71 65.5q27 33 45 72t24.5 69t10.5 55.5t8.5 38t12.5 10.5z" />
    <glyph glyph-name="xi" unicode="&#x3be;" horiz-adv-x="450" 
d="M411 477q-5 -21 -34 -23t-78.5 5.5t-70.5 7.5q-43 -1 -70.5 -22.5t-23.5 -62.5q2 -26 19.5 -38.5t33.5 -13.5t48.5 1.5t39.5 2.5q115 0 110 -51q-1 -12 -10.5 -18.5t-27.5 -6t-32 2t-39.5 6.5t-35.5 6q-71 10 -118 -41.5t-38 -121.5q4 -31 26.5 -48.5t52.5 -25l60.5 -15
t53 -26.5t25.5 -52q3 -34 -18 -61.5t-49 -39t-53.5 -10.5t-29.5 18q-3 13 11.5 19.5t33 9t35 12t16.5 27.5q0 20 -16 29t-51.5 15.5t-49.5 11.5q-95 34 -93 145q2 113 110 180q-37 24 -47 58.5t1.5 63t30.5 49.5t35 23l2 17q1 17 5 35.5t21 40t45 32.5q19 8 38.5 11t35 -3.5
t14.5 -25.5q-1 -13 -20.5 -18t-42.5 -5.5t-41.5 -10.5t-17.5 -31q1 -18 31 -17t85 6q40 0 67.5 -11t20.5 -36z" />
    <glyph glyph-name="omicron" unicode="&#x3bf;" horiz-adv-x="450" 
d="M165 -47q-60 17 -95.5 62.5t-42.5 101t7.5 113.5t47 102t84.5 64.5t112 3.5q59 -17 94.5 -63t43 -101t-7.5 -113t-47 -102t-84 -64.5t-112 -3.5zM270 371q-57 16 -105 -35t-66.5 -124t-1 -143t75.5 -87q57 -17 104.5 34.5t66 124.5t1 143.5t-74.5 86.5z" />
    <glyph glyph-name="pi" unicode="&#x3c0;" horiz-adv-x="450" 
d="M445 371q-3 -30 -18 -40t-40 -9q-71 3 -73 -6q-11 -36 -27 -138t-9 -128q6 -22 20 -29.5t27 -4t21.5 0.5t6.5 -18q-4 -25 -31 -36t-49 -5q-26 9 -38 28.5t-10.5 38t0.5 34.5q1 24 20.5 134t18.5 125q0 8 -46 7.5t-48 -6.5q-6 -16 -26.5 -115.5t-34.5 -146.5
q-15 -51 -42.5 -82t-51.5 -10q-5 4 -9 12.5t-1 27.5t18 41q25 37 51 105t39 118l13 50q-47 7 -70 -5q-10 -6 -20 -18t-13 -14t-14 2q-10 8 -1 35t41 51t77 21q123 -4 189 -2q21 0 45.5 4t38 6.5t26 2.5t17 -7t3.5 -24z" />
    <glyph glyph-name="rho" unicode="&#x3c1;" horiz-adv-x="450" 
d="M203 -29q-91 26 -123 126q0 -14 -4 -79t-3 -108q0 -27 0.5 -54.5t-8.5 -46.5t-29 -17q-22 3 -27.5 33t-1 67t18.5 116q28 164 56 252q26 76 92 117.5t135 21.5q58 -16 92.5 -60t41.5 -97t-7.5 -108.5t-45.5 -97.5t-80.5 -61.5t-106.5 -3.5zM301 370q-54 16 -98.5 -29.5
t-63.5 -121.5q-20 -72 -2 -137t74 -81q36 -11 69.5 8.5t56 56.5t34.5 84.5t10 92t-22.5 80.5t-57.5 47z" />
    <glyph glyph-name="sigma" unicode="&#x3c3;" horiz-adv-x="450" 
d="M395 401q25 -11 20.5 -31t-31.5 -16q-114 24 -145 -3q3 2 28 1t46 -11q50 -27 73.5 -75t18 -98t-28 -100.5t-63 -82t-87 -41.5t-101.5 21q-58 33 -80 87t-9.5 110t42.5 108t72 89q33 30 88.5 42t97.5 9.5t59 -9.5zM301 311q-50 28 -102 -6t-81.5 -93.5t-27 -124.5
t49.5 -92q35 -20 67 -8t62 40.5t49 70.5t27.5 83t-2.5 77t-42 53z" />
    <glyph glyph-name="tau" unicode="&#x3c4;" horiz-adv-x="450" 
d="M428 371q-3 -30 -17.5 -40t-40.5 -9q-121 5 -124 -4q-6 -15 -35 -98t-33 -100q-25 -89 20 -103q12 -3 38 1t42 3.5t15 -15.5q-1 -29 -38 -44.5t-68 -14.5q-51 3 -68.5 35.5t-8.5 72.5q6 26 45 140t35 125q-2 8 -51 5.5t-65 -11.5q-10 -6 -20 -18t-13 -14t-14 2
q-4 5 -4.5 17.5t9 28.5t23 30.5t37 23.5t51.5 7q113 -4 165 -2q21 0 44 4t36 6.5t23.5 2.5t14 -7t2.5 -24z" />
    <glyph glyph-name="upsilon" unicode="&#x3c5;" horiz-adv-x="450" 
d="M418 266q-10 -49 -41 -111.5t-77 -119.5t-100 -78t-110 13q-15 10 -26 21t-18 23t-11 25.5t-5 27.5t0 29.5t4.5 31.5l7.5 33.5t9.5 35.5t10.5 37q8 26 12 74t11.5 72t29.5 23q21 -1 31.5 -14t10 -33.5t-5 -39.5t-11.5 -39q-5 -15 -22 -56t-25.5 -65.5t-15.5 -58t0 -58
t27 -39.5q43 -32 101.5 4t94.5 108q31 64 42.5 122.5t8.5 88t1 46t24 14.5q22 -2 37 -38t5 -79z" />
    <glyph glyph-name="phi" unicode="&#x3c6;" horiz-adv-x="450" 
d="M193 -27l-17 -94q-6 -38 -19 -51t-32 -5q-14 6 -17 15.5t1 25t11 38.5l9.5 37l12.5 47q-47 17 -75.5 57.5t-36 88.5t3 99.5t36.5 92t70.5 64.5t98.5 19q14 -1 18 -8.5t-4 -14.5t-22 -8q-63 -6 -103.5 -78.5t-36 -157t58.5 -120.5l61 246q15 62 51 96.5t74 8.5
q40 -28 61 -72.5t21.5 -91.5t-15.5 -93.5t-45 -81t-72.5 -51.5t-92.5 -8zM316 346q-8 6 -15.5 6t-14 -4t-12.5 -13.5t-10.5 -19.5t-9 -24.5t-7.5 -25.5t-6.5 -26t-5 -23.5l-3.5 -19.5l-34 -193q49 0 87 39.5t53.5 93.5t10.5 113t-33 97z" />
    <glyph glyph-name="chi" unicode="&#x3c7;" horiz-adv-x="450" 
d="M416 391q33 -37 -48 -93q-22 -16 -63.5 -58t-61.5 -70q26 -137 59 -151q14 -7 30.5 2.5t29 17.5t17.5 1q10 -13 -14 -51t-50 -42q-19 -3 -35 5t-25.5 20.5t-18.5 35t-13 38.5l-10 41t-8 34l-44.5 -57t-37.5 -49q-19 -34 -45.5 -56.5t-44.5 1.5q-12 16 -7 31.5t21.5 29
t35.5 31.5l112 121l-9.5 47.5t-11 52.5t-12.5 39t-17 24q-17 8 -29.5 1l-24 -14t-15.5 -1q-12 17 16 52.5t61 34.5q24 -1 39.5 -14.5t22.5 -38.5t10.5 -47.5t6 -53t4.5 -43.5q17 23 88 129l25.5 34t21 22t23.5 9t22 -15z" />
    <glyph glyph-name="psi" unicode="&#x3c8;" horiz-adv-x="450" 
d="M426 407q16 1 17.5 -4.5t-6.5 -13t-21 -15.5q-22 -13 -34 -71t-28.5 -129.5t-48.5 -109.5q-62 -71 -159 -79q-4 -21 -12 -73q-5 -39 -23 -66t-40 -20q-19 6 -22 23.5t4 36t21 46.5q13 26 22 56q-32 9 -52.5 25t-33.5 51q-10 30 -2.5 82t21.5 95.5t19.5 84.5t-8.5 48
q-16 10 -14.5 23t25.5 10q41 -4 50 -64q4 -37 -18.5 -137t-14.5 -132q9 -41 39 -58q46 123 67 275q0 2 1 7q3 21 5 32.5t7 30.5t10.5 28.5t15.5 15t23 0.5q20 -7 22.5 -30.5t-4 -44t-20.5 -57.5q-53 -139 -83 -263q44 0 98 63q27 31 45.5 132.5t41.5 137.5q40 60 90 64z" />
    <glyph glyph-name="omega" unicode="&#x3c9;" horiz-adv-x="450" 
d="M435 126q-24 -86 -63.5 -133t-90.5 -48q-34 0 -59 26.5t-29 49.5q-7 -15 -29.5 -32.5t-53.5 -26.5t-60 16q-31 27 -41 86t-0.5 120t30.5 109q16 35 61.5 83.5t70.5 25.5q12 -12 -4 -40t-45.5 -72.5t-38.5 -81.5q-12 -47 -14 -97t11 -84t41 -27q35 8 49 45t19.5 101.5
t13.5 91.5q11 37 31.5 63.5t37.5 21.5q21 -6 23 -39.5t-6 -67t-19 -55.5q-64 -134 -24 -165q37 -27 78 27t50 122q7 49 4.5 98t-8 73t-6.5 49.5t8 27.5q20 16 42 -27.5t28.5 -108.5t-7.5 -131z" />
    <glyph glyph-name="SF100000" unicode="&#x2500;" 
d="M900 281h-899v38h899v-38z" />
    <glyph glyph-name="SF110000" unicode="&#x2502;" 
d="M469 -180h-37v960h37v-960z" />
    <glyph glyph-name="SF010000" unicode="&#x250c;" 
d="M900 281h-431v-461h-37v499h468v-38z" />
    <glyph glyph-name="SF030000" unicode="&#x2510;" 
d="M469 -180h-37v461h-431v38h468v-499z" />
    <glyph glyph-name="SF040000" unicode="&#x2518;" 
d="M469 281h-468v38h431v461h37v-499z" />
    <glyph glyph-name="SF020000" unicode="&#x2514;" 
d="M900 281h-468v499h37v-461h431v-38z" />
    <glyph glyph-name="SF080000" unicode="&#x251c;" 
d="M900 281h-431v-461h-37v960h37v-461h431v-38z" />
    <glyph glyph-name="SF060000" unicode="&#x252c;" 
d="M900 281h-431v-461h-37v461h-431v38h899v-38z" />
    <glyph glyph-name="SF090000" unicode="&#x2524;" 
d="M469 -179h-37v460h-431v38h431v461h37v-959z" />
    <glyph glyph-name="SF070000" unicode="&#x2534;" 
d="M900 281h-899v38h431v460h37v-460h431v-38z" />
    <glyph glyph-name="SF050000" unicode="&#x253c;" 
d="M900 281h-431v-461h-37v461h-431v38h431v461h37v-461h431v-38z" />
    <glyph glyph-name="uni2501" unicode="&#x2501;" 
d="M900 261h-899v78h899v-78z" />
    <glyph glyph-name="uni2503" unicode="&#x2503;" 
d="M489 -180h-77v960h77v-960z" />
    <glyph glyph-name="uni250F" unicode="&#x250f;" 
d="M900 261h-411v-441h-77v519h488v-78z" />
    <glyph glyph-name="uni2513" unicode="&#x2513;" 
d="M489 -180h-77v441h-411v78h488v-519z" />
    <glyph glyph-name="uni251B" unicode="&#x251b;" 
d="M489 261h-488v78h411v441h77v-519z" />
    <glyph glyph-name="uni2517" unicode="&#x2517;" 
d="M900 261h-488v519h77v-441h411v-78z" />
    <glyph glyph-name="uni2523" unicode="&#x2523;" 
d="M900 261h-411v-441h-77v960h77v-441h411v-78z" />
    <glyph glyph-name="uni2533" unicode="&#x2533;" 
d="M900 261h-411v-441h-77v441h-411v78h899v-78z" />
    <glyph glyph-name="uni252B" unicode="&#x252b;" 
d="M489 -180h-77v441h-411v78h411v441h77v-960z" />
    <glyph glyph-name="uni253B" unicode="&#x253b;" 
d="M900 261h-899v78h411v441h77v-441h411v-78z" />
    <glyph glyph-name="uni254B" unicode="&#x254b;" 
d="M900 261h-411v-441h-77v441h-411v78h411v441h77v-441h411v-78z" />
    <glyph glyph-name="uni2520" unicode="&#x2520;" 
d="M900 281h-411v-461h-77v960h77v-461h411v-38z" />
    <glyph glyph-name="uni252F" unicode="&#x252f;" 
d="M900 261h-431v-441h-37v441h-431v78h899v-78z" />
    <glyph glyph-name="uni2528" unicode="&#x2528;" 
d="M489 -180h-77v461h-411v38h411v461h77v-960z" />
    <glyph glyph-name="uni2537" unicode="&#x2537;" 
d="M900 261h-899v78h431v441h37v-441h431v-78z" />
    <glyph glyph-name="uni253F" unicode="&#x253f;" 
d="M900 261h-431v-441h-37v441h-431v78h431v441h37v-441h431v-78z" />
    <glyph glyph-name="uni251D" unicode="&#x251d;" 
d="M900 261h-431v-441h-37v960h37v-441h431v-78z" />
    <glyph glyph-name="uni2530" unicode="&#x2530;" 
d="M900 281h-411v-461h-77v461h-411v38h899v-38z" />
    <glyph glyph-name="uni2525" unicode="&#x2525;" 
d="M469 -179h-37v440h-431v78h431v441h37v-959z" />
    <glyph glyph-name="uni2538" unicode="&#x2538;" 
d="M900 281h-899v38h411v461h77v-461h411v-38z" />
    <glyph glyph-name="uni2542" unicode="&#x2542;" 
d="M900 281h-411v-461h-77v461h-411v38h411v461h77v-461h411v-38z" />
    <glyph glyph-name="uni2512" unicode="&#x2512;" 
d="M489 -180h-77v461h-411v38h488v-499z" />
    <glyph glyph-name="uni2511" unicode="&#x2511;" 
d="M469 -180h-37v441h-431v78h468v-519z" />
    <glyph glyph-name="uni251A" unicode="&#x251a;" 
d="M489 281h-488v38h411v461h77v-499z" />
    <glyph glyph-name="uni2519" unicode="&#x2519;" 
d="M469 261h-468v78h431v441h37v-519z" />
    <glyph glyph-name="uni2516" unicode="&#x2516;" 
d="M900 281h-488v499h77v-461h411v-38z" />
    <glyph glyph-name="uni2515" unicode="&#x2515;" 
d="M900 261h-468v519h37v-441h431v-78z" />
    <glyph glyph-name="uni250E" unicode="&#x250e;" 
d="M900 281h-411v-461h-77v499h488v-38z" />
    <glyph glyph-name="uni250D" unicode="&#x250d;" 
d="M900 261h-431v-441h-37v519h468v-78z" />
    <glyph glyph-name="uni251E" unicode="&#x251e;" 
d="M900 281h-432l1 -461h-37v480h-20v480h77v-461h411v-38z" />
    <glyph glyph-name="uni251F" unicode="&#x251f;" 
d="M900 281h-411v-461h-77v480h20v480h37v-461h431v-38z" />
    <glyph glyph-name="uni2521" unicode="&#x2521;" 
d="M900 261h-431v-441h-37v480h-20v480h77v-441h411v-78z" />
    <glyph glyph-name="uni2522" unicode="&#x2522;" 
d="M900 261h-411v-441h-77v480h20v480h37v-441h431v-78z" />
    <glyph glyph-name="uni2526" unicode="&#x2526;" 
d="M489 300h-20v-480h-37v461h-431v38h411v461h77v-480z" />
    <glyph glyph-name="uni2527" unicode="&#x2527;" 
d="M489 -180h-77v461h-411v38h431v461h37v-480h20v-480z" />
    <glyph glyph-name="uni2529" unicode="&#x2529;" 
d="M489 300h-20v-479h-37v440h-431v78h411v441h77v-480z" />
    <glyph glyph-name="uni252A" unicode="&#x252a;" 
d="M489 -180h-77v441h-411v78h431v441h37v-480h20v-480z" />
    <glyph glyph-name="uni252D" unicode="&#x252d;" 
d="M900 281h-431v-461h-37v441h-431v78h449v-20h450v-38z" />
    <glyph glyph-name="uni252E" unicode="&#x252e;" 
d="M900 261h-431v-441h-37v461h-431v38h449v20h450v-78z" />
    <glyph glyph-name="uni2531" unicode="&#x2531;" 
d="M900 281h-411v-461h-77v441h-411v78h449v-20h450v-38z" />
    <glyph glyph-name="uni2532" unicode="&#x2532;" 
d="M900 261h-411v-441h-77v461h-411v38h449v20h450v-78z" />
    <glyph glyph-name="uni2535" unicode="&#x2535;" 
d="M900 281h-450v-20h-449v78h431v440h37v-460h431v-38z" />
    <glyph glyph-name="uni2536" unicode="&#x2536;" 
d="M900 261h-450v20h-449v38h431v460h37v-440h431v-78z" />
    <glyph glyph-name="uni2539" unicode="&#x2539;" 
d="M900 281h-450v-20h-449v78h411v441h77v-461h411v-38z" />
    <glyph glyph-name="uni253A" unicode="&#x253a;" 
d="M900 261h-450v20h-449v38h411v461h77v-441h411v-78z" />
    <glyph glyph-name="uni253D" unicode="&#x253d;" 
d="M900 281h-431v-461h-37v441h-431v81h431v438h37v-461h431v-38z" />
    <glyph glyph-name="uni253E" unicode="&#x253e;" 
d="M900 261h-431v-441h-37v461h-431v38h431v461h37v-441h431v-78z" />
    <glyph glyph-name="uni2540" unicode="&#x2540;" 
d="M900 281h-431v-461h-37v461h-431v38h411v461h77v-461h411v-38z" />
    <glyph glyph-name="uni2541" unicode="&#x2541;" 
d="M900 281h-411v-461h-77v461h-411v38h431v461h37v-461h431v-38z" />
    <glyph glyph-name="uni2543" unicode="&#x2543;" 
d="M900 281h-431v-461h-37v441h-431v78h411v441h77v-461h411v-38z" />
    <glyph glyph-name="uni2544" unicode="&#x2544;" 
d="M900 261h-431v-441h-37v461h-431v38h411v461h77v-441h411v-78z" />
    <glyph glyph-name="uni2545" unicode="&#x2545;" 
d="M900 281h-411v-461h-77v441h-411v78h431v441h37v-461h431v-38z" />
    <glyph glyph-name="uni2546" unicode="&#x2546;" 
d="M900 261h-411v-441h-77v461h-411v38h431v461h37v-441h431v-78z" />
    <glyph glyph-name="uni2547" unicode="&#x2547;" 
d="M900 261h-431v-441h-37v441h-431v78h411v441h77v-441h411v-78z" />
    <glyph glyph-name="uni2548" unicode="&#x2548;" 
d="M900 261h-411v-441h-77v441h-411v78h431v441h37v-441h431v-78z" />
    <glyph glyph-name="uni2549" unicode="&#x2549;" 
d="M900 281h-411v-461h-77v441h-411v78h411v441h77v-461h411v-38z" />
    <glyph glyph-name="uni254A" unicode="&#x254a;" 
d="M900 261h-411v-441h-77v461h-411v38h411v461h77v-441h411v-78z" />
    <glyph glyph-name="uni3395" unicode="&#x3395;" 
d="M842 15q-18 -42 -47 -70t-63 -39.5t-74 5.5t-77 64q-37 -16 -80 -16l-27 109q6 0 17 -0.5t21.5 0.5t25.5 4q-29 80 -36 185t15 211.5t73 169.5q34 43 69 54t62.5 -6.5t48 -56.5t28.5 -92q13 -112 7.5 -196.5t-30 -150.5t-50 -104t-51.5 -58q53 -64 91 59zM478 10l-19 -91
q-73 -7 -111.5 7.5t-36.5 50.5q-15 -28 -41.5 -44t-54 -11t-42.5 38l-19 -111h-101l88 585h104l-36 -248q-3 -20 -6.5 -39.5t-3.5 -37.5t2.5 -31.5t13 -21.5t27.5 -8q26 0 45 14t29 41t14.5 45t8.5 47l38 242l101 -3l-63 -412q-2 -13 18.5 -14t44.5 2zM699 536
q-10 43 -19.5 49t-21.5 -18q-34 -54 -47.5 -141t-8 -166.5t23.5 -131.5q48 45 73 171.5t0 236.5z" />
    <glyph glyph-name="uni3396" unicode="&#x3396;" 
d="M858 19q-26 -57 -66 -89t-92.5 -23t-100.5 70q-36 -15 -81 -15l-27 108q12 1 19 0.5t18.5 0t26.5 3.5q-29 80 -36.5 185t14.5 211.5t73 170.5q46 57 90.5 58t75 -43t41.5 -116q13 -113 7.5 -197.5t-29.5 -150.5t-48.5 -104t-50.5 -58q50 -67 90 60zM486 -76h-95v320
q0 39 -6.5 64.5t-15.5 31t-18.5 -1t-16 -32t-6.5 -62.5v-320h-96v320q0 39 -6.5 65t-15 31t-17.5 -1.5t-15.5 -32.5t-6.5 -62v-320h-95v509h82v-31q16 35 44.5 43t53.5 -11.5t33 -57.5q16 46 49.5 64t66 6t57 -57t24.5 -112v-353zM715 539q-10 43 -19 48.5t-23 -18.5
q-33 -54 -46 -141t-7 -166t24 -131q47 44 71.5 171.5t-0.5 236.5z" />
    <glyph glyph-name="uni3397" unicode="&#x3397;" 
d="M817 19q-18 -42 -46.5 -70.5t-62.5 -39.5t-74 5.5t-76 62.5q-38 -15 -80 -15l-28 109q7 0 17.5 -0.5t21.5 0.5t26 4q-30 80 -37.5 185t15 211.5t73.5 169.5q71 83 130 47.5t76 -148.5q13 -113 7.5 -197.5t-29 -150.5t-48.5 -104t-51 -58q50 -63 90 60zM427 -68h-94v62
q-30 -71 -102 -71q-55 -1 -95 38t-57.5 99t-16.5 130t21 130.5t62.5 101t100.5 41.5t87 -50v229h94v-710zM673 539q-9 43 -17.5 48.5t-21.5 -17.5q-33 -54 -46.5 -141t-8 -166.5t23.5 -131.5q47 44 71 168.5t-1 239.5zM252 362q-40 1 -62.5 -52t-23.5 -116.5t19.5 -116
t57.5 -50.5q32 1 53 36t25.5 83.5t0 97.5t-23.5 83t-46 35z" />
    <glyph glyph-name="afii61289" unicode="&#x2113;" 
d="M485 20q-19 -42 -52.5 -71t-73 -40t-84.5 5.5t-82 62.5q-43 -15 -91 -15l-28 111h33q32 -1 41 3q-30 80 -36.5 185t16.5 210.5t75 168.5q77 86 140.5 51t79.5 -151q11 -110 4 -194.5t-31.5 -150.5t-50.5 -105.5t-52 -59.5q30 -34 62.5 -15.5t50.5 75.5zM317 539
q-9 42 -19 46.5t-23 -19.5q-36 -56 -50 -142.5t-8 -163.5t25 -131q48 44 73.5 172t1.5 238z" />
    <glyph glyph-name="uni3398" unicode="&#x3398;" 
d="M830 19q-18 -42 -47 -70.5t-63 -39.5t-74 5.5t-76 62.5q-40 -15 -80 -15l-28 109q7 0 17.5 -0.5t21.5 0.5t26 4q-29 80 -36.5 185t15 211.5t73.5 169.5q71 83 130 47.5t76 -148.5q13 -113 7.5 -197.5t-29.5 -150.5t-49 -104t-51 -58q51 -63 91 60zM507 -75h-125l-159 228
l-28 -31v-197h-96v736h96v-393l156 183h125l-181 -218zM686 539q-10 43 -18.5 48.5t-21.5 -17.5q-33 -54 -46.5 -141t-8 -166.5t23.5 -131.5q47 44 71.5 171.5t-0.5 236.5z" />
    <glyph glyph-name="uni33C4" unicode="&#x33c4;" 
d="M874 98q-6 -87 -58 -139.5t-143 -52.5q-66 0 -116 41t-73 102t-22.5 132.5t23.5 132.5t75.5 102t125.5 41q89 0 138 -61.5t44 -141.5h-98q-8 99 -87 99q-44 0 -73.5 -35.5t-35.5 -86.5t1.5 -102.5t36.5 -87t70 -35.5q37 0 59.5 23.5t26.5 65.5zM457 98q-6 -87 -58 -139.5
t-142 -52.5q-67 0 -117 41t-73 102t-23 132.5t23.5 132.5t76.5 102t126 41q89 0 137.5 -61.5t43.5 -141.5h-97q-1 14 -4.5 27t-12 31.5t-27 29.5t-44.5 11q-44 0 -73.5 -35.5t-35 -86.5t1.5 -102.5t36 -87t70 -35.5q37 0 60 23.5t28 65.5z" />
    <glyph glyph-name="uni33A3" unicode="&#x33a3;" 
d="M891 449q0 -47 -32.5 -74.5t-71 -28t-71 30t-32.5 85.5h67q0 -29 18 -41t35.5 -1.5t17.5 35.5q0 13 -6.5 20t-16.5 9t-20.5 2.5t-19.5 -0.5v60q12 1 24 -0.5t20 6.5t7 27q1 19 -13.5 28.5t-29 -0.5t-14.5 -38h-62q-3 38 15.5 65t46.5 34.5t56.5 3.5t48.5 -27.5t20 -58.5
q0 -46 -32 -65q45 -24 45 -72zM699 -72h-82v319q2 56 0.5 76t-16.5 20q-12 0 -16 -9t-3.5 -30.5t0.5 -56.5v-319h-81v319v59t-3.5 28.5t-12.5 7.5q-17 1 -19 -22t0 -73v-319h-81v510h64v-24q14 36 43 36q46 0 55 -65q18 66 66 67q47 1 66.5 -47.5t19.5 -123.5v-353zM354 -72
h-82v319q0 36 0.5 57.5t-3 30t-14.5 8.5q-16 0 -17.5 -21.5t0.5 -74.5v-319h-83v319v59.5t-3 29t-13 7.5q-12 0 -16 -10t-3.5 -31.5t0.5 -54.5v-319h-81v510h67v-23q15 35 40 35q45 0 56 -65q4 19 9.5 31t19.5 24t35 12q34 0 54.5 -26t27 -61.5t6.5 -83.5v-353z" />
    <glyph glyph-name="uni33A4" unicode="&#x33a4;" 
d="M699 -74h-84v319q0 60 -3.5 78.5t-19.5 18.5q-12 0 -16 -9.5t-4 -31v-56.5v-319h-85v319q0 61 -3 78t-17 18q-6 0 -10.5 -2.5t-7 -7.5t-4 -13t-2 -19t-0.5 -24.5v-29.5v-319h-85v508h71v-25q17 39 45 39q50 0 59 -68q22 69 73 70q50 0 71.5 -48.5t21.5 -122.5v-353z
M343 104q-6 -190 -150 -190q-58 0 -100 40t-60.5 100.5t-17.5 131t20.5 131t62.5 100.5t100 40q43 0 73.5 -19t45.5 -50.5t21 -64.5t5 -68h-92q-2 17 -1.5 39.5t-12.5 42t-39 19.5q-32 1 -55 -34.5t-28.5 -86.5t-1 -101.5t26 -85.5t53.5 -34q33 1 43.5 23.5t12.5 66.5h94z
M888 449q0 -47 -32 -74.5t-71 -28t-71 30t-32 85.5h67q0 -29 18 -41t35.5 -1.5t17.5 35.5q0 13 -6.5 20t-16.5 9t-20.5 2.5t-19.5 -0.5v60q12 1 24 -0.5t20 6.5t7 27q1 19 -13.5 28.5t-29 -0.5t-14.5 -38h-63q-3 38 16 65t47 34.5t56.5 3.5t48.5 -27.5t20 -58.5
q0 -45 -33 -65q45 -23 45 -72z" />
    <glyph glyph-name="uni33A5" unicode="&#x33a5;" 
d="M590 -76h-98v319q0 54 -10 75t-34 21q-45 0 -45 -96v-319h-98v319q0 54 -12 75t-35 21q-44 0 -44 -96v-319h-97v507h82v-31q23 45 63 46q74 3 97 -73q32 74 97 75q61 1 97.5 -51t36.5 -121v-352zM817 450q0 -47 -32 -74.5t-70.5 -28t-70.5 29.5t-32 85h66q0 -28 18 -40
t35.5 -2t17.5 36q0 16 -11 24t-24.5 7t-26.5 -1v60q12 1 23.5 -0.5t19.5 7t7 27.5q1 19 -13.5 28.5t-29 -0.5t-14.5 -38h-62q-3 47 25.5 75.5t64.5 30.5t66 -21.5t30 -67.5q0 -47 -32 -65q45 -22 45 -72z" />
    <glyph glyph-name="uni33A6" unicode="&#x33a6;" 
d="M699 -71h-84v317q2 56 0.5 76t-16.5 20q-6 0 -9.5 -2.5t-5.5 -6t-3 -13.5t-1 -17t0.5 -25.5t0.5 -31.5v-317h-83v317v59t-3.5 29t-12.5 8q-12 0 -16.5 -10t-4 -31.5t0.5 -54.5v-317h-180l-110 226l-26 -37v-189h-95v717h95v-377l114 168h107l-131 -197l143 -298v495h64
v-23q14 35 44 35q20 0 33 -11t17 -23t7 -31q16 66 66 67q49 1 69 -47t20 -124v-351zM891 449q0 -47 -32.5 -74.5t-71 -28t-71 30t-32.5 85.5h67q0 -29 18 -41t35.5 -1.5t17.5 35.5q0 13 -6.5 20t-16.5 9t-20.5 2.5t-19.5 -0.5v60q12 1 24 -0.5t20 6.5t7 27q1 19 -13.5 28.5
t-29 -0.5t-14.5 -38h-62q-3 38 15.5 65t46.5 34.5t56.5 3.5t48.5 -27.5t20 -58.5q0 -46 -32 -65q45 -24 45 -72z" />
    <glyph glyph-name="uni3399" unicode="&#x3399;" 
d="M791 -72h-99v319q0 62 -4.5 79.5t-27.5 17.5q-21 0 -26.5 -20t-5.5 -77v-319h-99v319q0 62 -5 79.5t-26 17.5t-26 -20t-5 -77v-319h-101v510h85v-31q21 43 56 43q22 0 36.5 -6.5t22 -18.5t11 -22t5.5 -25q30 73 93 74q59 1 87.5 -49t28.5 -121v-354zM331 354h-57v-427
h-106v427h-64v99h64v61q0 72 13.5 98t49.5 27.5t97 -0.5v-97h-17.5t-15 -1t-11.5 -4t-7.5 -9t-2.5 -16v-59h57v-99z" />
    <glyph glyph-name="uni339A" unicode="&#x339a;" 
d="M825 -76h-95v319q0 39 -6.5 65t-15.5 32t-18.5 -0.5t-16 -32.5t-6.5 -64v-319h-96v319q0 66 -15 90.5t-30.5 -3t-15.5 -87.5v-319h-95v508h76v-30q16 34 45 42.5t55.5 -10.5t34.5 -56q16 45 49.5 62t66.5 5t58 -56.5t25 -111.5v-353zM367 -77h-97v320q0 53 -15 79
t-32.5 21.5t-32.5 -32t-15 -68.5v-320h-98v509h93v-47q16 33 41.5 49t52 11.5t50 -22.5t38.5 -55.5t15 -86.5v-358z" />
    <glyph glyph-name="uni339B" unicode="&#x339b;" 
d="M841 -77h-92v315q0 40 -6 66t-14 31.5t-16.5 -1.5t-14.5 -33t-6 -63v-315h-91v314q0 39 -6 65.5t-14.5 32t-17 -1.5t-14.5 -33t-6 -63v-314h-93v505h76v-26q14 32 42 41t53 -9.5t31 -58.5q12 36 35 55.5t49 17t50 -20t39.5 -58.5t15.5 -96v-350zM424 434l-62 -412
q-2 -12 15 -13t41 2l-17 -92q-61 -9 -100.5 5.5t-39.5 49.5q-21 -41 -58 -50t-59 31l-16 -106h-98l89 585h101l-40 -260q-5 -24 -8 -48.5t-3 -44t10 -31.5t30 -12q18 0 31.5 13.5t22.5 40t13.5 44.5t9.5 47l41 251h97z" />
    <glyph glyph-name="uni339C" unicode="&#x339c;" 
d="M832 -76h-86v321q0 37 -5 63t-12 32t-14 0t-12 -31.5t-5 -63.5v-321h-87v321q0 37 -5 62.5t-12 31t-14 -0.5t-12 -31.5t-5 -61.5v-321h-89v509h71v-22q24 49 63 35.5t51 -68.5q14 40 36.5 59.5t45.5 14.5t44 -25t34 -60t13 -89v-354zM426 -76h-87v321q0 38 -5 63.5
t-11.5 31.5t-13.5 0t-12 -32t-5 -63v-321h-87v321q0 38 -5 63t-12 30.5t-14.5 -0.5t-12.5 -31t-5 -62v-321h-88v509h71v-24q23 51 61.5 38t52.5 -69q13 39 35.5 58.5t45.5 15t44 -24t34.5 -59.5t13.5 -90v-354z" />
    <glyph glyph-name="uni339D" unicode="&#x339d;" 
d="M845 -76h-91v314q0 40 -6 66.5t-15 32.5t-18 -0.5t-15 -33.5t-6 -65v-314h-92v313q0 41 -6 67.5t-14 31.5t-16 -2.5t-14 -33.5t-6 -63v-313h-93v505h78v-24q13 32 38.5 39.5t50 -12t34.5 -59.5q15 48 47 66.5t64 6.5t56 -58t24 -114v-350zM435 99q-4 -62 -34 -109
t-72.5 -69t-91.5 -18t-90 32.5t-68.5 94t-27.5 157.5q0 77 21.5 136.5t56 89t76 43.5t82.5 3t74.5 -35.5t53 -71t16.5 -102.5h-99q-3 45 -22.5 74.5t-45 33t-50.5 -10t-42.5 -56t-17.5 -103.5q0 -64 16.5 -108t40 -58.5t48.5 -12t44.5 27.5t24.5 62h107z" />
    <glyph glyph-name="uni339E" unicode="&#x339e;" 
d="M843 -76h-91v317q0 39 -6 65t-15 32t-18 -0.5t-15 -33t-6 -63.5v-317h-91v316q0 40 -6 66t-14 31t-16.5 -2.5t-14.5 -33t-6 -61.5v-316h-93v507h76v-23q13 32 39 40.5t51 -11t35 -62.5q12 38 35.5 59t49.5 18t50.5 -21t40 -59.5t15.5 -96.5v-351zM443 -76h-118l-138 225
l-24 -31v-194h-98v737h98v-391l140 178h120l-166 -216z" />
    <glyph glyph-name="uni339F" unicode="&#x339f;" 
d="M880 376h-183q-1 40 10 70t28 47t34.5 29.5t29.5 26t13 29.5q0 20 -14 31t-28 -2t-12 -50h-64q-2 53 25.5 84.5t62 34t63 -23.5t26.5 -75q-1 -27 -17 -49.5t-34 -34.5t-35 -28t-20 -32h115v-57zM693 -72h-81v318q0 95 -16 101q-11 5 -16 -54q-2 -21 -2 -47v-318h-82v318
q0 102 -18 99.5t-18 -99.5v-318h-81v509h66v-21q11 28 32.5 34t40.5 -12t24 -53q8 32 26 51t39 18t40.5 -17t32.5 -57t13 -99v-353zM354 -72h-83v318q0 94 -16 100q-4 2 -8 -8q-10 -26 -10 -92v-318h-83v318q0 105 -17.5 100.5t-17.5 -100.5v-318h-80v509h66v-23
q18 44 53 35t43 -61q8 32 26.5 50t40 16t41 -19t32.5 -58t13 -96v-353z" />
    <glyph glyph-name="uni33A0" unicode="&#x33a0;" 
d="M880 375h-183q-1 40 10 70t28 47t34.5 29.5t29.5 26t13 29.5q0 20 -14 31t-28 -2t-12 -50h-64q-2 53 25.5 85t62 34t63 -24t26.5 -75q-1 -27 -17 -49.5t-34 -34.5t-35 -28t-20 -32h115v-57zM695 -76h-83v318q0 38 -4.5 63.5t-10.5 32t-12.5 0.5t-11 -32t-4.5 -64v-318
h-85v318q0 39 -4.5 65t-10.5 31t-12.5 -1.5t-11 -32t-4.5 -62.5v-318h-86v507h70v-20q11 27 34 34t44.5 -10.5t27.5 -56.5q11 37 31.5 56t43 15.5t43 -21.5t33.5 -58.5t13 -93.5v-352zM342 97q-2 -64 -27 -112t-60.5 -69t-76.5 -16.5t-76 33.5t-58 93.5t-23 153.5
q0 88 24.5 151.5t61 91.5t78.5 31t78 -20t58.5 -72.5t20.5 -114.5h-92q-1 42 -15 71.5t-33 35t-37.5 -6.5t-32.5 -56.5t-16 -110.5t10.5 -111t31.5 -58t38.5 -9.5t34.5 30.5t16 65h95z" />
    <glyph glyph-name="uni33A1" unicode="&#x33a1;" 
d="M811 376h-183q-1 40 10.5 70t28.5 47t34.5 29.5t29.5 26t13 29.5q0 20 -14.5 31t-28.5 -2t-12 -50h-63q-2 53 25.5 84.5t62 34t62.5 -23.5t27 -75q-1 -27 -17 -49.5t-34 -34.5t-35 -28t-20 -32h114v-57zM592 -76h-97v319q0 48 -14 74t-31 25t-31 -27.5t-14 -71.5v-319
h-97v319q0 47 -14 73t-31.5 26t-31.5 -26.5t-14 -72.5v-319h-98v507h83v-31q19 37 52.5 45.5t64 -12t42.5 -60.5q31 69 87 76t100 -43.5t44 -129.5v-352z" />
    <glyph glyph-name="uni33A2" unicode="&#x33a2;" 
d="M699 -71h-84v317q0 94 -16 100q-12 4 -16 -55q-2 -20 -2 -45v-317h-83v317q0 94 -17 99q-13 3 -18 -61q-1 -17 -1 -38v-317h-180l-110 226l-26 -37v-189h-95v717h95v-377l114 168h107l-131 -197l143 -298v495h64v-23q12 28 34 35t42 -10.5t25 -54.5q9 34 27.5 53t40 17.5
t41.5 -18.5t33 -58t13 -98v-351zM880 376h-183q-1 40 10 70t28 47t34.5 29.5t29.5 26t13 29.5q0 20 -14 31t-28 -2t-12 -50h-64q-2 53 25.5 84.5t62 34t63 -23.5t26.5 -75q-1 -27 -17 -49.5t-34 -34.5t-35 -28t-20 -32h115v-57z" />
    <glyph glyph-name="uni33CA" unicode="&#x33ca;" 
d="M850 -35l-76 -56q-38 51 -46 80q-40 -76 -130 -72q-54 2 -90.5 43t-49 101.5t-6.5 131t28.5 130t64.5 99.5t94 40q67 0 94 -57l3 35l80 -2q-5 -34 -8 -105l-4 -72l-1 -203q0 -20 12 -43t24 -37zM437 -76h-103v298q0 37 -9.5 64.5t-24 40t-31.5 12.5t-31.5 -12.5
t-24 -40.5t-9.5 -66v-296h-102v727h102v-264q20 37 59 49.5t77.5 -1t67.5 -60.5t29 -117v-334zM630 363q-46 0 -69 -85.5t-9 -171t56 -86.5q36 0 58 53.5t24 118t-14 118t-46 53.5z" />
    <glyph glyph-name="uni338D" unicode="&#x338d;" 
d="M804 6q0 -64 -25 -113.5t-62.5 -74t-82 -29.5t-83 12t-66 59t-30.5 103h103q4 -44 29 -66t53.5 -18t51.5 31.5t23 70.5v24q-26 -47 -90 -48q-59 -1 -100.5 37t-59.5 96t-16.5 125.5t21 125.5t60 97t94.5 39q65 0 91 -57v40h89v-454zM448 6l-16 -91q-152 -14 -149 56
q-24 -43 -62.5 -52t-62.5 37l-17 -112h-99l89 586h100l-36 -249q-4 -34 -10 -64t2.5 -51.5t35.5 -21.5q66 0 88 146l38 242l99 -2l-60 -412q-2 -13 17 -14t43 2zM624 383q-29 0 -49.5 -33.5t-26 -81.5t-1.5 -96.5t25.5 -82t54.5 -33.5q31 0 52 33.5t25 82t-1.5 96.5
t-27 81.5t-51.5 33.5z" />
    <glyph glyph-name="uni338E" unicode="&#x338e;" 
d="M807 8q0 -65 -24 -114.5t-60 -74t-79 -28.5t-80.5 13t-64 59t-30.5 102h101q4 -46 28 -67.5t51 -17t48.5 32.5t21.5 70v24q-11 -23 -29 -34t-58 -14q-56 -3 -96 34.5t-57.5 95t-17 126t19 127t58 98t92.5 39.5q63 0 88 -57v40h88v-454zM437 -80h-86v320q0 38 -5 63.5
t-12 31.5t-14.5 0t-12.5 -32t-5 -63v-320h-88v320q0 38 -4.5 63.5t-11.5 31t-14 -1t-11.5 -32t-4.5 -61.5v-320h-89v510h72v-29q13 32 37 41.5t46 -9.5t29 -60q13 39 35.5 58.5t46 16t44.5 -22t34.5 -59t13.5 -92.5v-354zM631 389q-27 0 -47 -34.5t-25 -83.5t-1.5 -98
t24 -83.5t51.5 -34.5q37 0 58 52t20.5 115t-22 115t-58.5 52z" />
    <glyph glyph-name="uni338F" unicode="&#x338f;" 
d="M807 9q0 -78 -30.5 -131.5t-75.5 -71t-92 -13t-86 39t-52 87.5h-108l-137 226l-26 -31v-195h-99v736h99v-392l144 180h121l-171 -216l173 -290q0 11 -2 27h101q3 -42 27.5 -64.5t52 -20t50 30t22.5 73.5v23q-12 -23 -30 -34t-57 -13q-58 -3 -100 33.5t-60 94.5t-17.5 126
t20 126.5t60.5 98t96 39.5q64 0 88 -55v39h89v-453zM633 385q-29 0 -49.5 -33.5t-26 -81.5t-1.5 -96.5t25 -82t53 -33.5q30 0 50.5 33.5t25 82t-0.5 96.5t-25.5 81.5t-50.5 33.5z" />
    <glyph glyph-name="uni33CF" unicode="&#x33cf;" 
d="M760 -74q-64 -2 -102 -3.5t-52.5 21t-14.5 90.5v338h-60v90h60v139h102v-139h59v-90h-59v-317q0 -23 9.5 -32t24.5 -7.5t33 1.5v-91zM544 -74h-125l-149 225l-26 -30v-195h-99v737h99v-386l141 173h123l-165 -216z" />
    <glyph glyph-name="uni3388" unicode="&#x3388;" 
d="M897 5q-20 -49 -53 -76t-75.5 -18t-79.5 64q-29 -14 -65 -14l-28 107q43 2 53 4q-26 76 -30.5 180t16.5 210t66 171q62 86 112.5 50.5t57.5 -149.5q10 -189 -24.5 -322t-78.5 -180q13 -26 32 -14.5t28 54.5zM577 48q-1 -27 16 -54.5t27 -35.5l-57 -57q-44 53 -54 84
q-19 -41 -38.5 -57.5t-49.5 -17.5q-44 -1 -73.5 39t-40 101t-6 131.5t23.5 130.5t54 99.5t80 38.5q46 -1 65 -43l2 25h73l-18 -182zM300 99q-2 -63 -22.5 -109.5t-51 -67t-65 -16.5t-64.5 32t-49.5 89.5t-19.5 145.5t21 148t52 95t67 36.5t66 -15t49 -71.5t17 -123h-83
q-2 76 -17 99t-32 2t-31 -69.5t-15 -101.5q-1 -50 5.5 -87t16.5 -55t22 -23t22.5 4t17.5 32t7 55h87zM451 355q-28 1 -45.5 -84t-12.5 -170.5t32 -85.5q29 -1 45.5 84t10.5 170.5t-30 85.5zM782 531q-5 42 -9.5 42t-16.5 -24q-27 -52 -39 -133t-8.5 -156t17.5 -126
q28 52 48 173t8 224zM622 -44v2h-2z" />
    <glyph glyph-name="uni3389" unicode="&#x3389;" 
d="M454 244h-74q2 23 0.5 62t-16.5 40q-24 1 -36 -83.5t-4 -169.5t31 -84q13 1 17 22t5 67h74q-4 81 8.5 161t43.5 136t73 55q31 -1 44 -32l1 14h58l-12 -178q-1 -13 -1 -193q25 -2 40 2q-21 76 -25.5 181t12 211.5t52.5 172.5q51 86 90 51.5t45 -150.5q8 -189 -18.5 -323
t-61.5 -181q9 -27 23.5 -18t21.5 51l50 -67q-10 -34 -27 -56t-37 -30t-45 7.5t-48 55.5q-9 -5 -37 -7q1 0 -25 -31l-26 -30q-5 5 -20.5 32t-21.5 50q-15 -41 -27.5 -56t-37.5 -16q-38 0 -61 48t-29 125q-4 -79 -24 -124.5t-72 -46.5q-48 -1 -79.5 54.5t-37 134.5t3.5 158.5
t41 135t76 55.5q98 0 93 -206zM278 -76h-84l-77 221l-17 -31v-190h-81v718h78v-375l86 163h87l-103 -198zM569 355q-12 1 -22 -33.5t-15 -84.5t-6 -100.5t4.5 -86t16.5 -35.5q19 0 30.5 84.5t9 170t-17.5 85.5zM804 528q-2 34 -3 34q-2 0 -8 -16q-31 -80 -37 -213t12 -204
q20 53 32.5 173.5t3.5 225.5z" />
    <glyph glyph-name="uni33C8" unicode="&#x33c8;" 
d="M648 -74h-173v727h180q64 0 109 -39.5t58.5 -93.5t-5.5 -112.5t-71 -93.5q45 -22 73 -68.5t29.5 -100.5t-16 -103.5t-66.5 -82.5t-118 -33zM422 -66h-96v62q-31 -70 -102 -71q-56 -1 -96.5 38t-58 98t-16.5 128.5t20.5 129t62 100.5t100.5 42q61 1 90 -48v239h96v-718z
M631 564h-60v-212h57q46 0 73.5 33t29 73t-25 73t-74.5 33zM632 253h-61v-232h61q56 0 86.5 36.5t29.5 80t-32 79.5t-84 36zM244 364q-31 1 -53 -34t-27 -84.5t-1 -99.5t24 -84t49 -33q31 1 52 36t25.5 83.5t0 97.5t-23.5 83t-46 35z" />
    <glyph glyph-name="uni33A7" unicode="&#x33a7;" 
d="M825 36q-2 -48 -35.5 -81.5t-79.5 -41t-91.5 2t-77 47.5t-31.5 95h92q0 -34 21 -51t46 -15.5t46.5 14.5t21.5 32q1 19 -20 31t-51 20.5t-60.5 19.5t-52 35.5t-22.5 61.5q-1 44 28 77t70.5 42t83.5 2t71.5 -43.5t29.5 -94.5h-82q0 30 -17 46.5t-38 17t-38.5 -11
t-18.5 -30.5q-1 -17 20.5 -29.5t52.5 -22t61.5 -22.5t51.5 -38.5t19 -62.5zM861 634l-709 -764l-59 54l713 763zM411 277h-83v194q0 40 -4.5 66t-11 31.5t-13 -1.5t-11 -33t-4.5 -63v-194h-85v194q0 41 -4.5 67t-11 31t-13 -2.5t-11 -33.5t-4.5 -62v-194h-83v388h65v-29
q14 35 37.5 42t44 -13t28.5 -56q10 36 30 55.5t42.5 17.5t43.5 -19.5t34.5 -59t13.5 -98.5v-228z" />
    <glyph glyph-name="uni33A8" unicode="&#x33a8;" 
d="M873 223h-148q-1 35 12.5 60t30 35t31 22t15.5 26q1 13 -10.5 20.5t-22.5 -2t-10 -35.5h-50q-2 44 21.5 68.5t51.5 24.5t51 -20.5t21 -56.5q-1 -23 -19 -42t-39 -32.5t-24 -20.5h89v-47zM835 642l-709 -764l-55 52l713 762zM403 295h-82v185q0 40 -4.5 66t-11 31.5
t-13.5 -1.5t-11.5 -33t-4.5 -63v-185h-84v185q0 41 -4.5 67t-11 31t-13.5 -2.5t-11.5 -33.5t-4.5 -62v-185h-83v378h66v-27q23 53 60.5 41t49.5 -68q10 36 30 55.5t42.5 17.5t43 -19.5t34 -59t13.5 -98.5v-220zM737 16q-3 -34 -25.5 -59.5t-54.5 -37.5t-68.5 -11t-68 14.5
t-52 45t-20.5 75.5h85q0 -42 29.5 -56t60 -3t33.5 32t-15.5 33.5t-47 19.5t-57 16.5t-49 34t-20.5 62.5q0 41 26.5 70.5t64 37t74.5 0.5t63.5 -40t26.5 -84h-75q-1 29 -16.5 45t-34.5 17t-35.5 -10t-18.5 -30q-2 -18 18.5 -29t50.5 -20t60 -21t49.5 -37.5t16.5 -64.5z" />
    <glyph glyph-name="uni33B0" unicode="&#x33b0;" 
d="M841 76q0 -44 -28 -78.5t-70 -52.5t-91.5 -18.5t-92.5 16.5t-72 59.5t-31 104.5h110q1 -43 26.5 -66t56.5 -23t58 15.5t30 41.5q4 30 -22.5 48t-67.5 29.5t-81.5 26t-69 48t-27.5 84.5q2 47 29 83.5t67 54t86 17t85 -18.5t65 -60.5t26 -103.5h-96q-1 42 -24.5 64.5
t-52.5 22.5t-54 -14.5t-28 -38.5q-3 -27 24.5 -43.5t68 -27.5t81.5 -26t69 -51.5t26 -92.5zM455 199q0 -81 -23.5 -140t-58.5 -85t-72.5 -34t-69.5 6t-46 42v-193h-94v656h94v-58q17 37 44 56t56.5 19t60 -18.5t54.5 -51t39.5 -85t15.5 -114.5zM351 198q0 51 -11.5 89.5
t-28.5 57t-37 19t-37 -16.5t-28.5 -56t-11.5 -93q0 -53 11.5 -91t28.5 -55.5t37 -17t37 18t28.5 55.5t11.5 90z" />
    <glyph glyph-name="uni33B1" unicode="&#x33b1;" 
d="M821 66q0 -44 -28 -79t-70 -53t-91.5 -18.5t-92 17t-71.5 60.5t-31 105h109q0 -43 26 -66t57 -23.5t58 15.5t30 41q3 26 -15 43.5t-48.5 25.5t-66.5 20.5t-67 27t-51 45.5t-19 75q1 47 28.5 83t67 53.5t85.5 17.5t85 -18.5t65 -61t26 -102.5h-95q-1 34 -17 55.5t-38.5 27
t-45.5 2t-40 -18t-19 -33.5q-3 -28 24.5 -44.5t68 -27t81.5 -26t69 -51.5t26 -92zM411 -77h-99v320q0 49 -17.5 75t-38.5 24.5t-38.5 -29t-17.5 -71.5v-319h-99v509h95v-45q29 55 81 58.5t93 -43.5t41 -122v-357z" />
    <glyph glyph-name="uni33B2" unicode="&#x33b2;" 
d="M457 10l-16 -91q-74 -7 -110 6t-35 49q-14 -25 -38 -40.5t-49 -10.5t-37 36l-19 -110h-97l89 585h98l-34 -249q-4 -34 -10.5 -64.5t1.5 -52t35 -21.5q23 0 39.5 14t26 40.5t14 46t8.5 47.5l37 239h97l-60 -413q-2 -13 17.5 -13.5t42.5 2.5zM835 66q0 -44 -28 -79
t-70.5 -52.5t-92 -18t-92 16.5t-72 60.5t-30.5 105.5h109q1 -43 26.5 -66.5t57 -23.5t58.5 15.5t30 41.5q4 30 -22.5 48.5t-67 29.5t-81.5 25.5t-69.5 48t-26.5 85.5q1 47 28.5 83t67 53.5t85.5 17.5t85 -18.5t65 -61t26 -102.5h-96q-1 42 -25 64.5t-53 22.5t-53.5 -15
t-27.5 -39q-3 -28 24.5 -44.5t68 -27t81.5 -26t69 -52t26 -92.5z" />
    <glyph glyph-name="uni33B3" unicode="&#x33b3;" 
d="M456 -76h-90v320q0 38 -5.5 64t-13.5 31.5t-16 -0.5t-13.5 -32t-5.5 -63v-320h-90v320q0 36 -5.5 61.5t-13 32t-15.5 1.5t-13.5 -30.5t-5.5 -64.5v-320h-93v509h73v-30q11 25 30 36t37 7.5t34 -21.5t21 -47q15 44 46.5 62t62 7.5t53.5 -55.5t23 -114v-181h108
q1 -43 26.5 -66t56.5 -23.5t58 15.5t31 41q4 30 -22.5 48.5t-67.5 29.5t-81.5 25.5t-69 48t-27.5 85.5q2 47 29 83t67 53.5t86 17.5t85 -18.5t65 -61t26 -102.5h-97q-1 42 -24.5 64.5t-52.5 22.5t-54 -15t-28 -39q-3 -28 24.5 -44.5t68.5 -27t82 -26t68.5 -51.5t25.5 -92
q0 -44 -27 -78.5t-68 -52.5t-89.5 -19.5t-91 14.5t-73 56t-34.5 99v-160z" />
    <glyph glyph-name="uni33B4" unicode="&#x33b4;" 
d="M835 652l-213 -727h-91l-214 727h102l156 -554l157 554h103zM256 -39q-57 1 -82 59v-186h-86v585h86v-29q31 56 90 56q56 0 93 -50t45 -122t-2.5 -143.5t-49 -121t-94.5 -48.5zM253 352q-26 0 -44 -30.5t-22.5 -73.5t-1 -86.5t20.5 -74t42 -30.5q26 0 44.5 30.5t23.5 74
t1.5 86.5t-21 73.5t-43.5 30.5z" />
    <glyph glyph-name="uni33B5" unicode="&#x33b5;" 
d="M838 658l-216 -737h-98l-216 737h107l156 -567l158 563zM390 -79h-104v296q0 41 -9 65.5t-21.5 27.5t-24.5 -5.5t-21 -33t-9 -55.5v-295h-105v490h104v-35q24 35 57 43t62.5 -9t50 -58.5t20.5 -97.5v-333z" />
    <glyph glyph-name="uni33B6" unicode="&#x33b6;" 
d="M848 650l-205 -727h-91l-205 727h98l151 -574l153 574h99zM418 15l-17 -92q-58 -10 -94.5 4.5t-35.5 50.5q-18 -41 -54.5 -50.5t-57.5 29.5l-16 -118h-88l78 553h92l-31 -215q-4 -33 -9 -63t3.5 -50.5t33.5 -20.5q54 0 76 143l29 206h89l-52 -367q-2 -12 15 -12.5t39 2.5
z" />
    <glyph glyph-name="uni33B7" unicode="&#x33b7;" 
d="M844 652l-206 -728h-91l-204 728h98l150 -574l154 574h99zM421 -76h-82v285q0 39 -5.5 65t-13 31.5t-15 -1t-13 -32.5t-5.5 -63v-285h-81v285q0 39 -5 65t-12 31.5t-14.5 -1t-12.5 -32.5t-5 -63v-285h-81v475h64v-25q24 50 61 37t47 -68q13 38 35 57.5t45 16t44.5 -21.5
t35 -58.5t13.5 -92.5v-320z" />
    <glyph glyph-name="uni33B8" unicode="&#x33b8;" 
d="M846 653l-201 -727h-91l-199 727h100l144 -567l148 567h99zM429 -74h-104l-112 237l-27 -39v-198h-92v727h92v-375l113 174h104l-128 -203z" />
    <glyph glyph-name="uni33B9" unicode="&#x33b9;" 
d="M882 653l-142 -727h-91l-142 727h94l93 -516l96 516h92zM499 -74h-91v454l-94 -454h-90l-90 450v-450h-86v727h104l118 -541l120 541h109v-727z" />
    <glyph glyph-name="uni3380" unicode="&#x3380;" 
d="M865 -77h-102l-58 203h-207l-58 -203h-100l221 727h81zM237 -41q-55 1 -79 56v-184h-85v585h85v-27q30 53 84 53q48 0 82 -36t48.5 -90t13.5 -116.5t-17.5 -116.5t-51 -89.5t-80.5 -34.5zM675 227l-73 263l-74 -263h147zM230 346q-24 0 -40.5 -29.5t-20.5 -72t-0.5 -85
t20 -72t40.5 -29.5q26 0 44 29.5t23 72t1 85t-22 72t-45 29.5z" />
    <glyph glyph-name="uni3381" unicode="&#x3381;" 
d="M864 -77h-99l-55 203h-197l-55 -203h-100l211 727h83zM355 -77h-92v290q0 52 -14 78.5t-31 23t-31 -31.5t-14 -71v-289h-93v480h93v-45q16 36 47 49t60.5 1.5t52 -53t22.5 -104.5v-328zM679 227l-68 252l-68 -252h136z" />
    <glyph glyph-name="uni3382" unicode="&#x3382;" 
d="M865 -79h-99l-55 203h-197l-55 -203h-92q-56 0 -84.5 12t-27.5 44q-19 -40 -54 -50.5t-58 29.5l-15 -118h-88l78 552h91l-31 -214q-5 -24 -7.5 -48.5t-2.5 -43.5t9.5 -31t29.5 -12q52 0 74 144l31 205h88l-52 -366q-2 -11 10 -12.5t28 1.5l184 635h83zM680 225l-67 252
l-69 -252h136z" />
    <glyph glyph-name="uni3383" unicode="&#x3383;" 
d="M875 -77h-99l-53 203h-181l-53 -203h-157v285q0 38 -5.5 63.5t-13 31.5t-15 0t-13 -32t-5.5 -63v-285h-83v285q0 38 -5 64t-12 31t-14.5 -1.5t-12.5 -32t-5 -61.5v-285h-83v475h66v-23q9 22 25 31.5t32.5 5.5t31.5 -22.5t20 -46.5q13 36 34.5 55.5t45 17t45 -20.5
t35 -58.5t13.5 -94.5v-226l173 635h85zM694 227l-65 245l-59 -245h124z" />
    <glyph glyph-name="uni3384" unicode="&#x3384;" 
d="M857 -76h-98l-55 202h-192l-54 -202h-146l-108 238l-28 -40v-198h-89v728h89v-376l111 174h102l-124 -203l116 -249l186 654h81zM674 228l-65 251l-68 -251h133z" />
    <glyph glyph-name="uni33BA" unicode="&#x33ba;" 
d="M866 663l-111 -738h-84l-86 527l-85 -527h-83l-113 738h92l62 -465l77 465h102l75 -478l65 478h89zM220 -39q-53 1 -75 56v-183h-82v585h82v-28q29 54 79 54q51 0 85.5 -50t42 -121.5t-1.5 -143t-44.5 -121t-85.5 -48.5zM213 349q-28 0 -44 -45t-16.5 -99t15.5 -99
t44 -45q35 0 50.5 72t2 144t-51.5 72z" />
    <glyph glyph-name="uni33BB" unicode="&#x33bb;" 
d="M862 663l-111 -737h-82l-88 525l-85 -525h-83l-113 737h91l63 -465l77 465h103l74 -478l64 478h90zM335 -74h-88v291q0 42 -9 68t-21 30t-24.5 -4t-21.5 -34t-9 -61v-290h-89v480h87v-43q24 51 66 55.5t75.5 -40.5t33.5 -123v-329z" />
    <glyph glyph-name="uni33BC" unicode="&#x33bc;" 
d="M877 660l-108 -737h-83l-84 526l-83 -526h-81l-110 737h90l61 -462l74 462h100l72 -477l63 477h89zM366 17l-15 -92q-124 -10 -125 51q-9 -22 -27 -36.5t-38 -12t-29 28.5l-15 -114h-86l76 552h87l-30 -215q-2 -11 -5.5 -32t-5 -32.5t-2 -27t2 -23.5t10 -14t20.5 -6
q9 0 17.5 5t14 14t11 21t8.5 25l6.5 27t5.5 27l4 25l29 206h84l-50 -365q-1 -6 1 -9.5t8.5 -4.5t10.5 -1t15.5 1.5t16.5 1.5z" />
    <glyph glyph-name="uni33BD" unicode="&#x33bd;" 
d="M872 662l-110 -737h-82l-77 523l-74 -523h-82l-111 737h91l62 -461l65 461h101l63 -476l65 476h89zM376 -75h-81v285q0 39 -4.5 64.5t-11 30.5t-13.5 -1.5t-11.5 -32t-4.5 -61.5v-285h-81v285q0 38 -4.5 63.5t-10.5 31.5t-12.5 -0.5t-11 -32t-4.5 -62.5v-285h-79v475h61
v-23q10 22 25.5 31.5t30.5 5t27.5 -22.5t17.5 -45q12 35 31.5 54.5t41 17t41.5 -20t33 -58t14 -95.5z" />
    <glyph glyph-name="uni33BE" unicode="&#x33be;" 
d="M862 664l-107 -737h-84l-83 524l-83 -524h-82l-74 496l-101 -172l143 -324h-99l-104 235l-24 -38v-197h-85v727h85v-375l105 173h76l-31 212h89l62 -464l73 464h100l73 -478l62 478h89z" />
    <glyph glyph-name="uni33BF" unicode="&#x33bf;" 
d="M883 448l-89 -525h-88l-54 312l-50 -312h-89l-88 525h86l45 -308l45 308h98l48 -315l51 315h85zM420 -77h-81v275l-70 -275h-84l-70 275v-275h-82v525h104l89 -362l92 362h102v-525z" />
    <glyph glyph-name="uni3390" unicode="&#x3390;" 
d="M834 -75h-325v86l201 339h-190v89h296v-85l-201 -341h219v-88zM477 -75h-100v332h-193v-332h-99v727h99v-295h193v295h100v-727z" />
    <glyph glyph-name="uni3391" unicode="&#x3391;" 
d="M867 -78h-208v69l112 179h-106v76h189v-72l-106 -179h119v-73zM643 -78h-89v226h-103v-226h-86v523h86v-215h103v215h89v-523zM360 -78h-98l-117 210l-19 -30v-180h-87v524h87v-201l136 200h96l-156 -235z" />
    <glyph glyph-name="uni3392" unicode="&#x3392;" 
d="M872 -79h-194v69l98 179h-93v77h176l-1 -73l-94 -178h108v-74zM661 -79h-84v226h-76v-226h-83v524h83v-216h76v216h84v-524zM390 -79h-79v266l-51 -266h-84l-51 266v-266h-79v525h99l73 -368l75 368h97v-525z" />
    <glyph glyph-name="uni3393" unicode="&#x3393;" 
d="M866 -79h-199v70l101 179h-98v76h182l-1 -72l-97 -179h112v-74zM647 -79h-87v225h-88v-225h-84v524h84v-216h88v216h87v-524zM366 281h-90q0 94 -66 94q-35 0 -58.5 -39.5t-29 -95t-0.5 -111t27.5 -93t55.5 -34.5q30 2 46.5 23t19.5 43t3 57h-81v85h169v-289h-81v55
q-24 -64 -85 -63q-56 1 -96 42t-57 102t-15 132.5t22 132.5t62.5 101.5t99.5 40.5q154 0 154 -183z" />
    <glyph glyph-name="uni3394" unicode="&#x3394;" 
d="M867 -77h-210v69l109 179h-104v75h192l-1 -72l-106 -178h120v-73zM639 -77h-89v226h-102v-226h-87v523h87v-215h102v215h89v-523zM345 359h-102v-436h-98v436h-111v87h311v-87z" />
    <glyph glyph-name="uni2126" unicode="&#x2126;" 
d="M579 57v-52h86v-90h-149q-13 0 -21.5 5.5t-12 13.5t-6 17.5t-1.5 18t0 15.5v83q0 23 6.5 38.5t13.5 19.5l6 4q55 19 89.5 71t39 114t-10.5 121t-60 98t-108 39q-60 0 -104.5 -38.5t-61 -96.5t-13.5 -119t37 -113.5t91 -73.5q3 -1 7.5 -4t12.5 -19t8 -40v-82v-12.5
t-0.5 -15.5t-3 -15.5t-6.5 -14t-11.5 -10.5t-17.5 -4h-147v90h86v48q-64 33 -104.5 93t-52 128.5t1 141t47 130t95 94.5t135.5 37q78 0 139 -36.5t94.5 -94t45.5 -129t-0.5 -140t-51 -128.5t-98.5 -92z" />
    <glyph glyph-name="uni33C0" unicode="&#x33c0;" 
d="M744 28v-34h62v-76h-115q-20 0 -28 6.5t-6 15.5t1 19v85q0 19 9 35l8 15q48 23 69.5 71.5t15.5 95.5t-38 82.5t-81 35.5q-42 0 -72 -24t-39.5 -60.5t-6.5 -76t26 -74t60 -50.5q18 -16 18 -50v-86v-10.5t-1.5 -11t-4 -9.5t-9 -6.5t-16.5 -2.5h-113v76h57v31
q-39 21 -66.5 57t-37.5 77t-9.5 85.5t17 85t42 73t66.5 52t89 19.5q60 0 105.5 -27.5t69.5 -70t32 -94.5t-1.5 -101.5t-36 -91t-66.5 -61.5zM461 -79h-106l-144 229l-32 -41v-188h-99v524h99v-199l137 199h109l-156 -222z" />
    <glyph glyph-name="uni33C1" unicode="&#x33c1;" 
d="M780 37v-37h54v-78h-103q-18 0 -26 7t-6.5 16.5t0.5 18.5v90q0 19 8 34l8 15q55 31 71.5 104t-11.5 134.5t-86 61.5q-46 0 -74.5 -39.5t-32 -90t16 -100.5t59.5 -69q18 -18 18 -50v-91q0 -12 -0.5 -18.5t-7.5 -14.5t-21 -8h-102v78h52v34q-48 29 -75 86.5t-26 121.5
t20 123t65.5 97.5t108.5 38.5q64 0 109 -40t61 -100t14 -124t-27.5 -120t-66.5 -80zM484 -79h-89v428l-84 -428h-89l-80 418v-418h-84v727h103l107 -534l109 534h107v-727z" />
    <glyph glyph-name="uni338A" unicode="&#x338a;" 
d="M827 556h-266v-227h234v-96h-234v-308h-100v728h366v-97zM277 -39q-54 1 -82 59v-186h-85v585h85v-29q32 57 90 57q47 0 81 -36t48.5 -90.5t13.5 -117.5t-17.5 -117t-51.5 -90t-82 -35zM274 352q-42 0 -60.5 -73.5t-2 -147t58.5 -73.5q43 0 62 73.5t2 147t-60 73.5z" />
    <glyph glyph-name="uni338B" unicode="&#x338b;" 
d="M828 557h-259v-228h227v-96h-227v-308h-101v728h360v-96zM402 -75h-95v292q0 53 -15 78.5t-32.5 21t-32.5 -32t-15 -68.5v-291h-96v481h96v-47q19 40 52 52t63 -2t52.5 -55.5t22.5 -99.5v-329z" />
    <glyph glyph-name="uni338C" unicode="&#x338c;" 
d="M837 554h-267v-228h234v-96h-234v-307h-100v727h367v-96zM429 16l-18 -93q-57 -9 -93.5 5.5t-35.5 50.5q-18 -41 -54 -51.5t-58 30.5l-16 -118h-88l77 552h92l-30 -215q-4 -33 -9 -63t3 -50.5t33 -20.5q53 0 77 143l29 206h89l-52 -366q-2 -13 15 -13.5t39 3.5z" />
    <glyph glyph-name="uni33D6" unicode="&#x33d6;" 
d="M884 6q-19 -49 -51.5 -76t-74 -18t-77.5 64q-32 -16 -80 -16q-1 5 -2 13l-3 25t-3 28l-2 11q-32 -123 -115 -123q-44 0 -76 41t-46 102t-14 133t15 133t48 102t77 41q43 0 71.5 -31t40 -75.5t14.5 -102.5t0.5 -103t-8.5 -86q21 0 46 5q-25 75 -29 179.5t17 210t65 170.5
q30 44 59.5 57t51.5 -3.5t36.5 -56.5t17.5 -96q9 -186 -25.5 -319.5t-77.5 -182.5q13 -26 30 -14t26 55zM332 -76h-80v319q0 37 0.5 58.5t-3 30t-14.5 8.5q-15 0 -16 -22t1 -75v-319h-82v319v59.5t-3 29.5t-12 8q-16 -1 -17.5 -24.5t1.5 -72.5v-319h-79v508h65v-21
q13 34 39 34q44 0 52 -63q13 67 62 67q47 1 66.5 -47.5t19.5 -124.5v-353zM776 536q-6 40 -11.5 39.5t-15.5 -23.5q-40 -76 -46.5 -212.5t15.5 -205.5q27 54 47.5 174.5t10.5 227.5zM478 372q-33 0 -47.5 -91t-0.5 -181.5t49 -89.5q29 1 42.5 91.5t1 180.5t-44.5 90z" />
    <glyph glyph-name="uni33C5" unicode="&#x33c5;" 
d="M808 -68h-93v63q-29 -72 -100 -72q-54 -1 -93.5 37.5t-57 97.5t-16.5 128t20 129t60.5 100.5t98.5 41.5q59 1 88 -46v239h93v-718zM444 107q-5 -87 -54.5 -139.5t-135.5 -52.5q-64 0 -110.5 41t-67.5 102t-19.5 133t24.5 133t73 102t119 41q85 0 127.5 -62t37.5 -143h-94
q-1 15 -2 22t-5.5 24.5t-11.5 27.5t-21.5 18.5t-34.5 8.5q-42 0 -70 -35t-34 -85.5t1 -101t34 -85.5t65 -35q67 0 78 86h101zM633 360q-31 1 -52.5 -33.5t-26.5 -84.5t-1 -99.5t23.5 -83.5t48.5 -33q30 1 50 36t25 83.5t1 97t-22.5 82.5t-45.5 35z" />
    <glyph glyph-name="uni33AD" unicode="&#x33ad;" 
d="M856 -68h-82v55q-23 -61 -74 -63q-53 -2 -89 52t-44 132t1.5 156.5t47 134t91.5 55.5q43 0 67 -42v238h82v-718zM583 -43l-58 -58q-44 53 -54 84q-19 -41 -38.5 -57t-49.5 -17q-56 -1 -86.5 48.5t-33.5 121t4 139t22 113.5v3q-68 -3 -105 -45.5t-37 -114.5v-250h-97v513
h97v-73q24 38 63.5 61t82.5 23v-103q37 107 128 104q44 -1 67 -43l1 27h74l-17 -182l-8 -202q0 -20 11 -43t23 -36zM714 359q-22 1 -37.5 -33.5t-19 -83.5t-0.5 -98t17 -83t35 -33q37 1 51.5 83.5t0 164.5t-46.5 83zM413 356q-17 1 -31.5 -33.5t-21 -84.5t-7.5 -100
t8.5 -85.5t26.5 -36.5q29 -1 45.5 83.5t11 170t-31.5 86.5z" />
    <glyph glyph-name="uni33AE" unicode="&#x33ae;" 
d="M588 340h-53v36q-22 -40 -56 -40q-44 0 -69 38l-49 -42q-25 17 -34 50q-11 -23 -27 -34.5t-47 -11.5q-30 0 -48 25t-23 61t-2.5 72t11.5 60q-42 -5 -61 -23t-19 -61v-130h-63v282h63v-37q21 37 89 41v-51q30 53 91 45q29 -3 41 -31l2 30l55 -1l-11 -104l-2 -76
q-1 -27 9.5 -41.5t21.5 -18.5q-23 38 -23.5 96t26 104.5t76.5 46.5q29 0 49 -29v142h53v-398zM826 1q-3 -35 -30.5 -61t-64.5 -33.5t-73.5 -1t-62 38.5t-25.5 83h77q0 -40 24.5 -53t49.5 -2t28 29q3 23 -22.5 35.5t-58 18t-59.5 29t-27 66.5q0 45 36 74t79.5 31t79.5 -30
t36 -94h-69q-1 28 -14 43t-29.5 15.5t-30.5 -9t-16 -24.5q-3 -18 24.5 -30.5t62 -21t61.5 -35t24 -68.5zM885 560l-663 -713l-46 42l668 714zM489 564q-23 0 -33.5 -41.5t-2.5 -82.5t31 -40q24 1 33 42t0.5 81.5t-28.5 40.5zM282 562q-22 2 -34 -38.5t-6.5 -82t25.5 -41.5
q26 0 38.5 39.5t5 80t-28.5 42.5z" />
    <glyph glyph-name="uni33AF" unicode="&#x33af;" 
d="M859 168h-123q-1 28 9.5 47.5t24 28t25.5 18.5t13 21t-7.5 17t-17.5 -1.5t-9 -28.5h-42q-3 47 28.5 66.5t63 2.5t28.5 -57q-2 -26 -32.5 -48t-32.5 -27h72v-39zM589 340h-54v35q-19 -39 -55 -39q-42 0 -69 37l-49 -41q-25 16 -34 49q-12 -24 -27.5 -35t-46.5 -10
q-39 1 -58 42.5t-17.5 90.5t13.5 84q-43 -6 -61.5 -22.5t-18.5 -61.5v-129h-64v281h64v-37q21 37 89 41v-52q30 55 91 46q29 -3 41 -32l3 31l54 -1l-11 -104l-2 -75q-2 -48 33 -62q-23 37 -24 95.5t25.5 105.5t75.5 47q32 0 48 -28v142h54v-398zM884 556l-664 -713l-46 43
l667 714zM759 -21q-3 -42 -40 -66.5t-80.5 -24.5t-79 29t-35.5 83h70q0 -33 23.5 -44.5t48 -2t26.5 25.5q3 19 -20.5 30t-53 16.5t-54.5 27.5t-25 60q0 33 21.5 57t52.5 30t62 0.5t52.5 -33t21.5 -68.5h-64q-1 30 -20.5 42.5t-39.5 4.5t-23 -28q-2 -17 23 -28.5t56.5 -19
t56 -30.5t21.5 -61zM490 563q-23 0 -33.5 -41t-2.5 -82t31 -40q24 1 33 41.5t0.5 81t-28.5 40.5zM283 561q-22 2 -33.5 -38.5t-6.5 -81.5t25 -41q26 0 38.5 39.5t5 79.5t-28.5 42z" />
    <glyph glyph-name="uni33DB" unicode="&#x33db;" 
d="M796 323q-38 -2 -69.5 -11t-60 -27t-44.5 -50t-16 -75v-235h-100v501h100v-82q58 82 190 88v-109zM75 96h110q0 -43 26 -65t57 -21t58 16.5t30 39.5q3 26 -16 44t-49.5 26.5t-66 21t-66.5 27t-50.5 45t-18.5 74.5q2 47 29 83.5t67 53.5t86 16.5t85 -18.5t65 -60.5
t26 -102.5h-96q-1 41 -25.5 63.5t-54.5 23.5t-55.5 -14t-28.5 -39q-2 -28 25 -44.5t67.5 -27t81 -25.5t68.5 -51.5t27 -93.5q-1 -44 -29 -79t-69.5 -53t-90.5 -19t-91 15.5t-70.5 59t-30.5 104.5z" />
    <glyph glyph-name="uni33A9" unicode="&#x33a9;" 
d="M851 -32l-74 -57q-37 41 -47 80q-40 -76 -131 -72q-54 2 -90 43t-48.5 101.5t-6.5 130.5t28 130t64 100t94 40q67 0 95 -57l2 35l80 -2l-12 -176l-1 -204q0 -20 12 -43t24 -36zM285 201h-88v-276h-105v728h196q62 0 106.5 -33.5t64 -83.5t19 -109t-21.5 -109t-66 -83.5
t-105 -33.5zM632 365q-28 0 -49 -35t-28 -85.5t-5 -100.5t18 -85.5t42 -36.5q36 -1 57.5 52.5t23.5 118t-13.5 118.5t-45.5 54zM261 549h-64v-245h64q35 0 61 18t38.5 45.5t13.5 59t-10.5 59t-38.5 45.5t-64 18z" />
    <glyph glyph-name="uni33AA" unicode="&#x33aa;" 
d="M467 87h-33v-170h-184l-95 212l-22 -44v-168h-88v524h88v-195l95 195h94l-106 -218l131 -297v518h119q53 0 90.5 -26.5t52.5 -66t13.5 -86t-19 -86t-53.5 -66t-83 -26.5zM891 -25l-50 -52q-29 19 -44 61q-28 -62 -95 -58q-35 2 -58.5 34.5t-32.5 79t-5 100t20.5 98.5
t47.5 73t72 24t57 -41l1 26h68l-12 -148l-9 -122q-1 -17 9 -35.5t21 -29.5zM742 256q-23 5 -39.5 -32.5t-20 -84.5t4.5 -87.5t28 -41.5q31 -2 47 57.5t9.5 122t-29.5 66.5zM459 359h-25v-176h23q37 0 58.5 27.5t22 60.5t-20.5 60.5t-58 27.5z" />
    <glyph glyph-name="uni33AB" unicode="&#x33ab;" 
d="M889 -24l-45 -54q-24 18 -40 61q-24 -61 -84 -57q-37 3 -60 47t-25.5 105t8 121t42 99.5t75.5 35.5q38 -4 50 -37v22h63l-12 -148l-7 -121q-1 -17 7.5 -35.5t18.5 -28.5zM509 93h-26v-170h-80v524h104q47 0 81 -26t48 -65.5t13 -85.5t-16.5 -85.5t-48 -65.5t-75.5 -26z
M378 -78h-79v259l-46 -259h-83l-48 259v-259h-79v525h99l69 -357l70 357h97v-525zM757 256q-26 5 -40.5 -56t-10 -125t25.5 -65q28 -2 42 58t8.5 122t-25.5 66zM501 358h-18v-176h17q33 0 51.5 27.5t19 60.5t-18 60.5t-51.5 27.5z" />
    <glyph glyph-name="uni33AC" unicode="&#x33ac;" 
d="M878 -24l-49 -54q-26 20 -40 62q-13 -30 -32.5 -45t-55.5 -13q-34 2 -57 34.5t-30.5 79t-3 99.5t20 98t45 73t66.5 24t53 -40v25h65l-11 -148l-8 -121q-1 -17 8.5 -35.5t19.5 -28.5zM478 93h-30v-170h-82v524h111q49 0 83.5 -26t49.5 -65.5t14 -85.5t-17.5 -85.5
t-50 -65.5t-78.5 -26zM346 281h-88q0 32 -10.5 55.5t-26 33t-33.5 3t-33.5 -27t-26 -64t-10.5 -102.5q0 -53 10 -93t25.5 -59.5t33.5 -23.5t33.5 8t26 42t10.5 73h-74v85h161v-289h-84v52q-11 -35 -38 -52t-59 -10t-62.5 32.5t-50.5 81.5t-21 131q-1 74 12 134t35.5 96
t51 58t58.5 25.5t58.5 -7.5t51 -35t36.5 -62.5t14 -84.5zM738 255q-25 3 -40.5 -57.5t-11 -122.5t28.5 -63q17 -1 29.5 23t16.5 59.5t4 71t-7.5 61.5t-19.5 28zM469 358h-21v-176h20q35 0 55 27.5t20.5 60.5t-19.5 60.5t-55 27.5z" />
    <glyph glyph-name="uni33DD" unicode="&#x33dd;" 
d="M695 -77q-62 1 -88 66v-57h-87v719h87v-248q31 55 82 54q53 -1 91.5 -41t56 -100t17.5 -129t-16.5 -128t-54 -98t-88.5 -38zM509 449l-83 -525h-93l-53 307l-52 -307h-96l-81 525h90l41 -299l43 299h102l46 -309l48 309h88zM682 362q-25 -1 -42.5 -35t-21.5 -83
t0.5 -97.5t23.5 -83.5t47 -36q27 -1 45.5 33t22 83.5t-1.5 99.5t-24.5 85t-48.5 34z" />
    <glyph glyph-name="uni33D0" unicode="&#x33d0;" 
d="M844 -76h-95v320q0 39 -6.5 64.5t-15.5 31t-18.5 -1t-16 -32t-6.5 -62.5v-320h-95v320q0 39 -6.5 65t-15.5 31t-18 -1.5t-15.5 -32.5t-6.5 -62v-320h-95v509h80v-29q16 34 44.5 41t53.5 -12.5t32 -55.5q15 37 40 56.5t52 16.5t51.5 -21.5t40.5 -58.5t16 -93v-353zM425 17
q-19 -40 -46.5 -67.5t-61 -39t-72.5 4.5t-75 62q-37 -15 -81 -15l-27 108q12 1 19 0.5t19 0t27 3.5q-30 80 -36.5 185t16.5 211t74 170q34 43 68.5 54t61.5 -6t47 -55.5t28 -92.5q13 -113 7.5 -197t-30.5 -150.5t-50 -104.5t-50 -58q28 -33 51 -16t41 75zM287 539
q-10 43 -18 47.5t-21 -18.5q-33 -54 -47 -140.5t-9 -165.5t23 -131q47 44 71.5 171.5t0.5 236.5z" />
    <glyph glyph-name="uni33D3" unicode="&#x33d3;" 
d="M861 -77h-123l-110 180l-110 -180h-117l166 263l-150 253h117l94 -169l96 169h116l-151 -253zM428 16q-19 -40 -46.5 -67.5t-61 -39t-72.5 4.5t-75 62q-42 -15 -81 -15l-28 109q7 0 17.5 -0.5t21.5 0t27 4.5q-30 80 -36.5 185t16 211t73.5 169q45 57 89.5 58t74.5 -42.5
t42 -115.5q13 -112 7 -196.5t-30.5 -150.5t-49.5 -104t-51 -58q51 -66 92 51zM289 538q-9 43 -17 48t-21 -18q-33 -54 -47 -140.5t-9.5 -166.5t23.5 -131q46 45 71 172.5t0 235.5z" />
    <glyph glyph-name="uni33C3" unicode="&#x33c3;" 
d="M820 -202h-90v190q-30 -47 -91 -46q-58 1 -99 40.5t-57.5 98t-15 126t21 125.5t59.5 96.5t91 38.5q64 0 91 -65v51h90v-655zM257 -76h-165v727h172q65 0 109.5 -39.5t58 -93t-5.5 -112.5t-71 -95q31 -14 55 -42t35 -63t13 -74.5t-11 -76t-35.5 -66t-63 -47.5t-91.5 -18z
M650 365q-30 1 -51.5 -32t-27.5 -81t-2 -95.5t24.5 -81t52.5 -32.5q28 0 48 33t25 79.5t1 93.5t-22.5 81t-47.5 35zM240 562h-52v-211h48q46 0 74 33t29.5 72.5t-25 72.5t-74.5 33zM241 251h-53v-232h54q55 0 85.5 36.5t29 80t-32 79.5t-83.5 36z" />
    <glyph glyph-name="uni33C9" unicode="&#x33c9;" 
d="M854 455l-170 -567q-10 -34 -25.5 -52.5t-34.5 -23.5t-43.5 -5.5t-53.5 0.5v91h18q35 0 43 6t19 40l16 48l-128 463h99l79 -297l85 297h96zM493 428h-98q-2 15 -2.5 34.5t-6.5 41t-15 39.5t-28 30t-45 12q-47 1 -81.5 -42t-49.5 -107.5t-15.5 -139.5t13.5 -140t46 -108
t75 -43q27 0 46.5 9t31 29t18 36t9 48t3 45.5t0.5 45.5h-111v99h206v-396h-91v63q-35 -79 -115 -81q-76 -3 -131.5 54t-80 144t-23.5 189t27 190t84.5 146.5t137.5 58.5q55 0 95 -24t61 -64t30.5 -82t9.5 -87z" />
    <glyph glyph-name="uni33DC" unicode="&#x33dc;" 
d="M854 455l-173 -566q-19 -47 -38.5 -64.5t-47.5 -17.5t-73 1v91h19q34 -1 41.5 5t18.5 43l16 48l-126 460h98l80 -297l84 297h101zM504 119q-2 -49 -22.5 -90.5t-53 -69.5t-73 -43.5t-82.5 -16.5t-81.5 15.5t-70.5 48t-49 86t-17 124.5h109q0 -58 16.5 -98t41.5 -56.5
t54.5 -17.5t55.5 12.5t45 40t22 59.5q3 40 -12.5 67t-43.5 42t-62.5 27t-69.5 28t-64 38t-47.5 63.5t-18.5 99.5q0 66 31 115.5t77.5 72t100 21.5t99 -26.5t74 -82.5t24.5 -135h-100q1 67 -31 105.5t-71 40t-71.5 -28.5t-32.5 -83q0 -34 18.5 -59.5t47.5 -42t64 -31t70 -32
t63.5 -40.5t45 -62t14.5 -91z" />
    <glyph glyph-name="uni33C6" unicode="&#x33c6;" 
d="M787 699l-714 -769l-46 44l720 768zM377 451q-2 -58 -34.5 -107t-97.5 -50q-60 -1 -99.5 40t-48.5 100t1 118t49.5 100.5t96.5 41.5q69 0 102 -52t30 -113h-81q-2 85 -53 86q-26 1 -44.5 -24t-23.5 -60.5t-1.5 -71t22 -60.5t46.5 -25q22 0 36 21.5t15 55.5h85zM836 -41
q0 -46 -31.5 -76t-71 -34.5t-75.5 16.5t-45 65h-67l-59 95l-9 -11v-84h-72v346h72v-161l57 62h90l-90 -99l83 -128h47q-42 23 -52.5 84.5t17.5 115t84 53.5q36 0 57 -30v26h65v-240zM721 135q-23 0 -33 -32.5t0 -64.5t34 -31q17 1 27 21t10 44t-10 43.5t-28 19.5zM771 -40v8
q-23 -29 -55 -30q-13 -1 -35 3q6 -24 28 -30.5t42 8t20 41.5z" />
    <glyph glyph-name="AE" unicode="&#xc6;" 
d="M838 -68h-301l-53 162h-264l-55 -162h-127l246 732h545v-127h-368l56 -167h296v-127h-252l63 -185h214v-126zM442 222l-90 270l-91 -270h181z" />
    <glyph glyph-name="Eth" unicode="&#xd0;" 
d="M487 -66h-262v259h-138v92h138v380h259q74 0 134.5 -31.5t98 -83t58 -117t21.5 -134t-19 -134t-56.5 -117t-97.5 -83t-136 -31.5zM470 538h-113v-253h191v-92h-191v-134h113q61 0 106 35.5t65.5 88.5t20.5 115.5t-20.5 115.5t-65.5 88.5t-106 35.5z" />
    <glyph glyph-name="ordfeminine" unicode="&#xaa;" 
d="M686 111h-121q-14 25 -18 52q-34 -30 -90 -48.5t-111 -19.5t-97 31t-47 95t28.5 108t91.5 66q4 1 71 15t110.5 34t43.5 48q0 27 -34 44.5t-74.5 18t-74 -25t-32.5 -73.5h-112q-4 61 27 106.5t81 66.5t109 23t110 -15t85 -55.5t34 -91.5v-285q0 -27 10 -60zM737 -66h-560
v96h560v-96zM548 326v28q-29 -18 -93.5 -33.5t-87.5 -25.5q-24 -10 -36 -27.5t-6 -37.5q7 -20 43 -20t76 15t72 43.5t32 57.5z" />
    <glyph glyph-name="Hbar" unicode="&#x126;" 
d="M809 474h-112v-536h-128v321h-237v-321h-128v536h-112v94h112v102h128v-102h237v102h128v-102h112v-94zM569 385v89h-237v-89h237z" />
    <glyph glyph-name="IJ" unicode="&#x132;" 
d="M731 125q0 -66 -29.5 -115t-73.5 -71t-96 -22.5t-96 20.5t-73.5 68.5t-29.5 111.5v77h128v-56q0 -47 22.5 -73t49 -26t49 26.5t22.5 72.5v514h127v-527zM298 -76h-128v728h128v-728z" />
    <glyph glyph-name="Ldot" unicode="&#x13f;" 
d="M694 237q0 -35 -23 -55t-50 -20t-50 20t-23 55q0 36 23 57t50 21t50 -20.5t23 -57.5zM681 -67h-458v727h127v-601h331v-126z" />
    <glyph glyph-name="Lslash" unicode="&#x141;" 
d="M674 -65h-458v301l-66 -58l-56 70l122 107v308h128v-191l35 30l56 -69l-91 -82v-289h330v-127z" />
    <glyph glyph-name="Oslash" unicode="&#xd8;" 
d="M774 709l-96 -148q39 -53 59.5 -121.5t21 -138t-20.5 -137.5t-58 -120t-97 -84t-133 -32q-90 0 -158 45l-88 -137l-71 52l94 145q-48 63 -69.5 148t-11 169.5t45 157.5t102.5 118.5t156 45.5q93 0 164 -49l90 138zM543 516q-38 32 -93 32q-63 0 -105.5 -42.5t-56.5 -105
t-9.5 -130t26.5 -118.5zM599 440l-237 -360q37 -28 88 -28q63 0 105 41.5t57 102.5t11.5 127t-24.5 117z" />
    <glyph glyph-name="OE" unicode="&#x152;" 
d="M838 -73l-499 1q-89 0 -154 55.5t-94 138t-28.5 179t29.5 179t94 137.5t153 55l490 1v-129h-274q43 -74 55 -171h201v-129h-199q-9 -104 -57 -188h283v-129zM339 548q-50 0 -87 -36.5t-53.5 -92t-16.5 -119.5t17 -119.5t53.5 -92t86.5 -36.5t86.5 36.5t53.5 92t17 119.5
t-16.5 119.5t-53.5 92t-87 36.5z" />
    <glyph glyph-name="ordmasculine" unicode="&#xba;" 
d="M450 98q-76 0 -131.5 41t-80.5 102.5t-25 133t25 133t81 102.5t132 41t131.5 -41t80.5 -102.5t25 -133t-25 -133t-81 -102.5t-132 -41zM736 -68h-561v97h561v-97zM449 548q-48 0 -81.5 -35.5t-41 -86t0.5 -101.5t41 -86.5t82 -35.5q41 0 71.5 25.5t44 64t13 83t-14 83
t-44 64t-71.5 25.5z" />
    <glyph glyph-name="Thorn" unicode="&#xde;" 
d="M467 -18q-81 0 -117 43v-90h-130v728h130v-156q41 45 117 45q73 0 127 -42t78 -105.5t24.5 -137.5t-24 -137.5t-78 -105.5t-127.5 -42zM455 421q-43 0 -72.5 -32t-36 -77.5t0.5 -91t36.5 -77.5t71.5 -32t71 32t36 77.5t0 91t-36 77.5t-71 32z" />
    <glyph glyph-name="Tbar" unicode="&#x166;" 
d="M723 290h-209v-350h-127v350h-209v91h209v159h-209v127h545v-127h-209v-159h209v-91z" />
    <glyph glyph-name="Eng" unicode="&#x14a;" 
d="M445 -85l-1 125q46 4 75.5 37t35.5 77.5t-2 88.5t-37.5 74.5t-70.5 30.5q-52 0 -81.5 -42.5t-29.5 -111.5v-195h-123v664h123v-222q45 46 124 46q71 0 125 -41t79.5 -103t26 -135t-24 -136.5t-82 -108t-137.5 -48.5z" />
    <glyph glyph-name="uni3260" unicode="&#x3260;" 
d="M203 348v150h481q0 -92 -9.5 -245.5t-23.5 -226.5h-183q9 46 17.5 148.5t8.5 173.5h-291zM450 671q-163 0 -258 -105.5t-96 -269.5q-1 -163 94.5 -269.5t259.5 -106.5t259 106.5t95 269.5q0 164 -95 269.5t-259 105.5zM450 -164q-140 0 -241.5 64t-150.5 166.5t-49 229.5
t49 229.5t150.5 166.5t241.5 64q105 0 190 -37t138.5 -100.5t82.5 -146t29 -176.5t-28.5 -176.5t-82.5 -146t-139 -100.5t-190 -37z" />
    <glyph glyph-name="uni3261" unicode="&#x3261;" 
d="M713 258v-148q-98 -34 -223.5 -43.5t-261.5 13.5v448h185v-311q143 -12 300 41zM450 671q-163 0 -258 -105.5t-96 -269.5q-1 -163 94.5 -269.5t259.5 -106.5t259 106.5t95 269.5q0 164 -95 269.5t-259 105.5zM450 -164q-140 0 -241.5 64t-150.5 166.5t-49 229.5t49 229.5
t150.5 166.5t241.5 64q105 0 190 -37t138.5 -100.5t82.5 -146t29 -176.5t-28.5 -176.5t-82.5 -146t-139 -100.5t-190 -37z" />
    <glyph glyph-name="uni3262" unicode="&#x3262;" 
d="M450 -164q-140 0 -241.5 64t-150.5 166.5t-49 229.5t49 229.5t150.5 166.5t241.5 64q105 0 190 -37t138.5 -100.5t82.5 -146t29 -176.5t-28.5 -176.5t-82.5 -146t-139 -100.5t-190 -37zM450 671q-163 0 -258 -105.5t-96 -269.5q-1 -163 94.5 -269.5t259.5 -106.5
t259 106.5t95 269.5q0 164 -95 269.5t-259 105.5zM707 251v-145q-95 -33 -233 -41.5t-257 18.5v455h449v-134h-272v-189q71 -6 158 3.5t155 32.5z" />
    <glyph glyph-name="uni3263" unicode="&#x3263;" 
d="M450 -164q-140 0 -241.5 64t-150.5 166.5t-49 229.5t49 229.5t150.5 166.5t241.5 64q105 0 190 -37t138.5 -100.5t82.5 -146t29 -176.5t-28.5 -176.5t-82.5 -146t-139 -100.5t-190 -37zM450 671q-163 0 -258 -105.5t-96 -269.5q-1 -163 94.5 -269.5t259.5 -106.5
t259 106.5t95 269.5q0 164 -95 269.5t-259 105.5zM704 221v-143q-95 -31 -250.5 -37t-246.5 18v312h298v49h-298v128h470v-303h-298v-59q50 -8 157 1.5t168 33.5z" />
    <glyph glyph-name="uni3264" unicode="&#x3264;" 
d="M692 538v-472h-485v472h485zM377 406v-208h146v208h-146zM450 671q-163 0 -258 -105.5t-96 -269.5q-1 -163 94.5 -269.5t259.5 -106.5t259 106.5t95 269.5q0 164 -95 269.5t-259 105.5zM450 -164q-140 0 -241.5 64t-150.5 166.5t-49 229.5t49 229.5t150.5 166.5t241.5 64
q105 0 190 -37t138.5 -100.5t82.5 -146t29 -176.5t-28.5 -176.5t-82.5 -146t-139 -100.5t-190 -37z" />
    <glyph glyph-name="uni3265" unicode="&#x3265;" 
d="M450 -164q-140 0 -241.5 64t-150.5 166.5t-49 229.5t49 229.5t150.5 166.5t241.5 64q105 0 190 -37t138.5 -100.5t82.5 -146t29 -176.5t-28.5 -176.5t-82.5 -146t-139 -100.5t-190 -37zM450 671q-163 0 -258 -105.5t-96 -269.5q-1 -163 94.5 -269.5t259.5 -106.5
t259 106.5t95 269.5q0 164 -95 269.5t-259 105.5zM207 66v476h168v-114h150v114h167v-476h-485zM375 198h150v98h-150v-98z" />
    <glyph glyph-name="uni3266" unicode="&#x3266;" 
d="M363 472v90h181v-91q0 -173 205 -301l-74 -87q-15 -18 -27.5 -20.5t-31.5 7.5q-29 15 -80.5 60.5t-77.5 82.5q-27 -47 -73 -91t-85 -67q-21 -11 -32.5 -9.5t-28.5 17.5l-85 77q98 61 153.5 148t55.5 184zM450 671q-163 0 -258 -105.5t-96 -269.5q-1 -163 94.5 -269.5
t259.5 -106.5t259 106.5t95 269.5q0 164 -95 269.5t-259 105.5zM450 -164q-140 0 -241.5 64t-150.5 166.5t-49 229.5t49 229.5t150.5 166.5t241.5 64q105 0 190 -37t138.5 -100.5t82.5 -146t29 -176.5t-28.5 -176.5t-82.5 -146t-139 -100.5t-190 -37z" />
    <glyph glyph-name="uni3267" unicode="&#x3267;" 
d="M190 308q0 119 68.5 184.5t190.5 65.5t191 -65.5t69 -184.5t-69 -184.5t-191 -65.5t-190.5 65.5t-68.5 184.5zM361 308q0 -56 24 -89.5t64 -33.5q39 0 63.5 33.5t24.5 89.5t-24.5 89t-63.5 33q-40 0 -64 -33t-24 -89zM450 671q-163 0 -258 -105.5t-96 -269.5
q-1 -163 94.5 -269.5t259.5 -106.5t259 106.5t95 269.5q0 164 -95 269.5t-259 105.5zM450 -164q-140 0 -241.5 64t-150.5 166.5t-49 229.5t49 229.5t150.5 166.5t241.5 64q105 0 190 -37t138.5 -100.5t82.5 -146t29 -176.5t-28.5 -176.5t-82.5 -146t-139 -100.5t-190 -37z
" />
    <glyph glyph-name="uni3268" unicode="&#x3268;" 
d="M450 -164q-140 0 -241.5 64t-150.5 166.5t-49 229.5t49 229.5t150.5 166.5t241.5 64q105 0 190 -37t138.5 -100.5t82.5 -146t29 -176.5t-28.5 -176.5t-82.5 -146t-139 -100.5t-190 -37zM450 671q-163 0 -258 -105.5t-96 -269.5q-1 -163 94.5 -269.5t259.5 -106.5
t259 106.5t95 269.5q0 164 -95 269.5t-259 105.5zM199 399v143h498v-143h-151q13 -147 194 -232l-77 -97q-11 -14 -20.5 -16t-30.5 7q-28 12 -83 59.5t-79 86.5q-30 -51 -87.5 -98.5t-90.5 -59.5q-17 -5 -26 -2t-22 18l-80 85q92 45 149 108t63 141h-157z" />
    <glyph glyph-name="uni3269" unicode="&#x3269;" 
d="M450 -164q-140 0 -241.5 64t-150.5 166.5t-49 229.5t49 229.5t150.5 166.5t241.5 64q105 0 190 -37t138.5 -100.5t82.5 -146t29 -176.5t-28.5 -176.5t-82.5 -146t-139 -100.5t-190 -37zM450 671q-163 0 -258 -105.5t-96 -269.5q-1 -163 94.5 -269.5t259.5 -106.5
t259 106.5t95 269.5q0 164 -95 269.5t-259 105.5zM200 346v139h165v100h182v-100h162v-139h-157q26 -116 194 -210l-73 -87q-14 -15 -23.5 -18t-28.5 7q-110 66 -163 144q-30 -53 -88 -100t-101 -62q-16 -5 -25 -1.5t-23 19.5l-67 84q81 35 137 93.5t70 130.5h-161z" />
    <glyph glyph-name="uni326A" unicode="&#x326a;" 
d="M450 -164q-140 0 -241.5 64t-150.5 166.5t-49 229.5t49 229.5t150.5 166.5t241.5 64q105 0 190 -37t138.5 -100.5t82.5 -146t29 -176.5t-28.5 -176.5t-82.5 -146t-139 -100.5t-190 -37zM450 671q-163 0 -258 -105.5t-96 -269.5q-1 -163 94.5 -269.5t259.5 -106.5
t259 106.5t95 269.5q0 164 -95 269.5t-259 105.5zM204 162v151h90q135 0 225 14q0 9 0.5 27t0.5 26h-316v150h494q0 -96 -9 -258t-23 -234h-173q10 55 17 143q-108 -19 -216 -19h-90z" />
    <glyph glyph-name="uni326B" unicode="&#x326b;" 
d="M450 -164q-140 0 -241.5 64t-150.5 166.5t-49 229.5t49 229.5t150.5 166.5t241.5 64q105 0 190 -37t138.5 -100.5t82.5 -146t29 -176.5t-28.5 -176.5t-82.5 -146t-139 -100.5t-190 -37zM450 671q-163 0 -258 -105.5t-96 -269.5q-1 -163 94.5 -269.5t259.5 -106.5
t259 106.5t95 269.5q0 164 -95 269.5t-259 105.5zM708 212v-142q-91 -29 -251 -31.5t-250 21.5v488h475v-128h-292v-46h291v-128h-291v-60q36 -10 148.5 -3.5t169.5 29.5z" />
    <glyph glyph-name="uni326C" unicode="&#x326c;" 
d="M450 -164q-140 0 -241.5 64t-150.5 166.5t-49 229.5t49 229.5t150.5 166.5t241.5 64q105 0 190 -37t138.5 -100.5t82.5 -146t29 -176.5t-28.5 -176.5t-82.5 -146t-139 -100.5t-190 -37zM450 671q-163 0 -258 -105.5t-96 -269.5q-1 -163 94.5 -269.5t259.5 -106.5
t259 106.5t95 269.5q0 164 -95 269.5t-259 105.5zM182 400v136h521v-136h-51v-55q0 -77 -11 -136q51 13 93 33v-141q-180 -89 -565 -38v136q27 -3 77 -7v208h-64zM471 187q12 77 12 155v58h-69v-214q39 0 57 1z" />
    <glyph glyph-name="uni326D" unicode="&#x326d;" 
d="M450 -164q-140 0 -241.5 64t-150.5 166.5t-49 229.5t49 229.5t150.5 166.5t241.5 64q105 0 190 -37t138.5 -100.5t82.5 -146t29 -176.5t-28.5 -176.5t-82.5 -146t-139 -100.5t-190 -37zM450 671q-163 0 -258 -105.5t-96 -269.5q-1 -163 94.5 -269.5t259.5 -106.5
t259 106.5t95 269.5q0 164 -95 269.5t-259 105.5zM212 181q0 86 62.5 134t177.5 48q116 0 178.5 -48t62.5 -134q0 -87 -63 -135.5t-178 -48.5t-177.5 48.5t-62.5 135.5zM193 380v136h168q8 29 8 84h189q2 -46 -9 -84h157v-136h-513zM376 181q0 -31 20 -52.5t56 -21.5
q35 0 55.5 21.5t20.5 52.5t-20.5 51.5t-55.5 20.5q-36 0 -56 -20.5t-20 -51.5z" />
    <glyph glyph-name="uni326E" unicode="&#x326e;" 
d="M450 -164q-140 0 -241.5 64t-150.5 166.5t-49 229.5t49 229.5t150.5 166.5t241.5 64q105 0 190 -37t138.5 -100.5t82.5 -146t29 -176.5t-28.5 -176.5t-82.5 -146t-139 -100.5t-190 -37zM450 671q-147 0 -240 -87h316q0 -163 -55.5 -300.5t-194.5 -252.5
q-13 -10 -21.5 -10t-21.5 10l-78 66q65 50 110.5 106t65.5 107t28 89t8 72h-200v63q-71 -99 -71 -238q-1 -163 94.5 -269.5t259.5 -106.5q108 0 192 51h-88v637h106q-87 63 -210 63zM703 283v-263q101 106 101 276q0 171 -101 275v-175h75v-113h-75z" />
    <glyph glyph-name="uni326F" unicode="&#x326f;" 
d="M450 -164q-140 0 -241.5 64t-150.5 166.5t-49 229.5t49 229.5t150.5 166.5t241.5 64q105 0 190 -37t138.5 -100.5t82.5 -146t29 -176.5t-28.5 -176.5t-82.5 -146t-139 -100.5t-190 -37zM450 671q-142 0 -236 -84h116v-428q125 -3 228 45v404h102q-87 63 -210 63zM311 41
q-69 0 -134 12v494q-81 -103 -81 -251q-1 -163 94.5 -269.5t259.5 -106.5q108 0 192 51h-84v112q-99 -42 -247 -42zM707 283v-258q97 105 97 271t-97 271v-171h75v-113h-75z" />
    <glyph glyph-name="uni3270" unicode="&#x3270;" 
d="M450 -164q-140 0 -241.5 64t-150.5 166.5t-49 229.5t49 229.5t150.5 166.5t241.5 64q105 0 190 -37t138.5 -100.5t82.5 -146t29 -176.5t-28.5 -176.5t-82.5 -146t-139 -100.5t-190 -37zM450 671q-147 0 -240 -87h308v-113h-190v-312q127 -3 230 45v404h102
q-87 63 -210 63zM558 -29v112q-101 -43 -249 -43q-67 0 -132 12v495q-81 -103 -81 -251q-1 -163 94.5 -269.5t259.5 -106.5q108 0 192 51h-84zM707 287v-262q97 105 97 271t-97 271v-167h75v-113h-75z" />
    <glyph glyph-name="uni3271" unicode="&#x3271;" 
d="M450 -164q-140 0 -241.5 64t-150.5 166.5t-49 229.5t49 229.5t150.5 166.5t241.5 64q105 0 190 -37t138.5 -100.5t82.5 -146t29 -176.5t-28.5 -176.5t-82.5 -146t-139 -100.5t-190 -37zM450 671q-141 0 -234 -82h293v-313h-191v-124q131 -4 239 48v408h103
q-87 63 -210 63zM362 478h-191v62q-75 -99 -75 -244q-2 -146 75 -246v337h191v91zM557 -29v109q-102 -45 -254 -45q-64 0 -130 11q100 -126 277 -126q108 0 192 51h-85zM706 283v-260q98 106 98 273q0 168 -98 272v-172h75v-113h-75z" />
    <glyph glyph-name="uni3272" unicode="&#x3272;" 
d="M450 -164q-140 0 -241.5 64t-150.5 166.5t-49 229.5t49 229.5t150.5 166.5t241.5 64q105 0 190 -37t138.5 -100.5t82.5 -146t29 -176.5t-28.5 -176.5t-82.5 -146t-139 -100.5t-190 -37zM450 671q-147 0 -240 -87h307v-543h-339q97 -121 272 -121q108 0 192 51h-85v637
h103q-87 63 -210 63zM706 283v-260q98 106 98 273q0 168 -98 272v-172h75v-113h-75zM96 296q-2 -146 75 -246v490q-75 -99 -75 -244zM317 152h55v321h-55v-321z" />
    <glyph glyph-name="uni3273" unicode="&#x3273;" 
d="M450 -164q-140 0 -241.5 64t-150.5 166.5t-49 229.5t49 229.5t150.5 166.5t241.5 64q105 0 190 -37t138.5 -100.5t82.5 -146t29 -176.5t-28.5 -176.5t-82.5 -146t-139 -100.5t-190 -37zM450 671q-142 0 -236 -84h103v-159h60v159h145v-546h-344q97 -121 272 -121
q108 0 192 51h-85v637h103q-87 63 -210 63zM706 283v-260q98 106 98 273q0 168 -98 272v-172h75v-113h-75zM96 296q-2 -146 75 -246v490q-75 -99 -75 -244zM317 154h60v161h-60v-161z" />
    <glyph glyph-name="uni3274" unicode="&#x3274;" 
d="M450 -164q-140 0 -241.5 64t-150.5 166.5t-49 229.5t49 229.5t150.5 166.5t241.5 64q105 0 190 -37t138.5 -100.5t82.5 -146t29 -176.5t-28.5 -176.5t-82.5 -146t-139 -100.5t-190 -37zM450 671q-163 0 -258 -105.5t-96 -269.5q-2 -99 35 -178q73 83 98.5 161t25.5 180
v132h155v-134q0 -92 30 -170t106 -170v491h114q-87 63 -210 63zM182 38l-5 4q99 -122 273 -122q108 0 192 51h-96v125l-59 -48q-28 -24 -55 2q-17 15 -46.5 54.5t-48.5 79.5q-20 -43 -52 -86t-52 -61q-15 -13 -25.5 -12.5t-25.5 13.5zM695 283v-271q109 107 109 284
t-109 283v-183h75v-113h-75z" />
    <glyph glyph-name="uni3275" unicode="&#x3275;" 
d="M450 -164q-140 0 -241.5 64t-150.5 166.5t-49 229.5t49 229.5t150.5 166.5t241.5 64q105 0 190 -37t138.5 -100.5t82.5 -146t29 -176.5t-28.5 -176.5t-82.5 -146t-139 -100.5t-190 -37zM450 671q-163 0 -258 -105.5t-96 -269.5q-1 -163 94.5 -269.5t259.5 -106.5
q108 0 192 51h-88v637h106q-87 63 -210 63zM149 319q0 146 44.5 213.5t143.5 67.5q100 0 145 -67.5t45 -213.5q0 -147 -45 -214.5t-145 -67.5q-99 0 -143.5 67.5t-44.5 214.5zM702 283v-264q102 105 102 277q0 171 -102 276v-176h75v-113h-75zM291 319q0 -94 9.5 -134
t36.5 -40q28 0 38 40.5t10 133.5q0 92 -10 132.5t-38 40.5q-27 0 -36.5 -40t-9.5 -133z" />
    <glyph glyph-name="uni3276" unicode="&#x3276;" 
d="M450 -164q-140 0 -241.5 64t-150.5 166.5t-49 229.5t49 229.5t150.5 166.5t241.5 64q105 0 190 -37t138.5 -100.5t82.5 -146t29 -176.5t-28.5 -176.5t-82.5 -146t-139 -100.5t-190 -37zM450 671q-147 0 -240 -87h307v-117h-102v-17q0 -93 28 -168t103 -165v491h114
q-87 63 -210 63zM189 38l-21 16q98 -134 282 -134q108 0 192 51h-96v125l-59 -49q-17 -15 -28 -14.5t-29 17.5q-15 14 -42.5 52.5t-45.5 74.5q-17 -38 -45 -76t-49 -58q-18 -17 -29.5 -18t-29.5 13zM152 467v45q-56 -92 -56 -216q-1 -99 38 -184q79 83 104 159.5t25 181.5
v14h-111zM695 283v-271q109 107 109 284t-109 283v-183h75v-113h-75z" />
    <glyph glyph-name="uni3277" unicode="&#x3277;" 
d="M450 -164q-140 0 -241.5 64t-150.5 166.5t-49 229.5t49 229.5t150.5 166.5t241.5 64q105 0 190 -37t138.5 -100.5t82.5 -146t29 -176.5t-28.5 -176.5t-82.5 -146t-139 -100.5t-190 -37zM450 671q-178 0 -277 -128h92v79h151v-79h108v-115h-108q2 -85 30 -156.5
t100 -157.5v494h114q-87 63 -210 63zM188 39l-21 16q99 -135 283 -135q108 0 192 51h-96v125l-60 -49q-6 -5 -15.5 -7t-19 -1t-17.5 2.5t-13 4t-3.5 4t9.5 1.5h1q11 0 -5 19.5l-44 52t-38 51.5q-31 -69 -93 -131q-17 -17 -29.5 -17.5t-30.5 13.5zM153 428v85
q-57 -92 -57 -217q-1 -101 39 -187q73 79 100.5 152.5t29.5 166.5h-112zM695 283v-271q109 107 109 284t-109 283v-183h75v-113h-75z" />
    <glyph glyph-name="uni3278" unicode="&#x3278;" 
d="M450 -164q-140 0 -241.5 64t-150.5 166.5t-49 229.5t49 229.5t150.5 166.5t241.5 64q105 0 190 -37t138.5 -100.5t82.5 -146t29 -176.5t-28.5 -176.5t-82.5 -146t-139 -100.5t-190 -37zM450 671q-147 0 -240 -87h324q0 -107 -18.5 -195t-74.5 -184t-151 -174
q-13 -10 -21.5 -10t-21.5 10l-78 66q117 90 168 203q-61 -8 -125 -8h-51v113h37q104 0 173 10q4 28 4 56h-207v65q-72 -100 -72 -240q-1 -163 94.5 -269.5t259.5 -106.5q108 0 192 51h-87v637h105q-87 63 -210 63zM704 283v-262q100 105 100 275q0 171 -100 274v-174h75
v-113h-75z" />
    <glyph glyph-name="uni3279" unicode="&#x3279;" 
d="M450 -164q-140 0 -241.5 64t-150.5 166.5t-49 229.5t49 229.5t150.5 166.5t241.5 64q105 0 190 -37t138.5 -100.5t82.5 -146t29 -176.5t-28.5 -176.5t-82.5 -146t-139 -100.5t-190 -37zM450 671q-147 0 -240 -87h304v-111h-192v-87h192v-111h-192v-123q129 -4 235 48v408
h103q-87 63 -210 63zM557 -29v109q-102 -45 -254 -45q-64 0 -130 11q100 -126 277 -126q108 0 192 51h-85zM706 283v-260q98 106 98 273q0 168 -98 272v-172h75v-113h-75zM96 296q-2 -146 75 -246v490q-75 -99 -75 -244z" />
    <glyph glyph-name="uni327A" unicode="&#x327a;" 
d="M450 -164q-140 0 -241.5 64t-150.5 166.5t-49 229.5t49 229.5t150.5 166.5t241.5 64q105 0 190 -37t138.5 -100.5t82.5 -146t29 -176.5t-28.5 -176.5t-82.5 -146t-139 -100.5t-190 -37zM147 473v30q-51 -91 -51 -207q-1 -102 39 -186v48q17 -2 49 -4v289h140v-291
q5 1 16 1.5t15 0.5q8 64 8 172v117h141v-109q0 -75 -10 -151q37 13 57 23v402h109q-87 63 -210 63q-147 0 -240 -87h318v-111h-381zM551 -29v115q-101 -48 -269 -48q-60 0 -106 5q99 -123 274 -123q108 0 192 51h-91zM699 283v-267q105 107 105 280q0 174 -105 279v-179h75
v-113h-75z" />
    <glyph glyph-name="uni327B" unicode="&#x327b;" 
d="M450 -164q-140 0 -241.5 64t-150.5 166.5t-49 229.5t49 229.5t150.5 166.5t241.5 64q105 0 190 -37t138.5 -100.5t82.5 -146t29 -176.5t-28.5 -176.5t-82.5 -146t-139 -100.5t-190 -37zM155 423v93q-59 -95 -59 -220q-1 -163 94.5 -269.5t259.5 -106.5q110 0 195 53h-90
v638h101q-87 60 -206 60q-186 0 -284 -137h102q8 37 8 66v22h152v-25q0 -31 -8 -63h110v-111h-375zM165 210q0 88 48.5 141.5t135.5 53.5t136 -53.5t49 -141.5q0 -87 -49 -140.5t-136 -53.5t-135.5 53.5t-48.5 140.5zM704 278v-257q100 105 100 275q0 171 -100 274v-179h75
v-113h-75zM306 210q0 -80 43 -80q45 0 45 80t-45 80q-43 0 -43 -80z" />
    </font>
</defs>
</svg>
